<?xml version="1.0" encoding="UTF-8" standalone="no"?>
<svg
   xmlns:dc="http://purl.org/dc/elements/1.1/"
   xmlns:cc="http://creativecommons.org/ns#"
   xmlns:rdf="http://www.w3.org/1999/02/22-rdf-syntax-ns#"
   xmlns:svg="http://www.w3.org/2000/svg"
   xmlns="http://www.w3.org/2000/svg"
   xmlns:xlink="http://www.w3.org/1999/xlink"
   xmlns:sodipodi="http://sodipodi.sourceforge.net/DTD/sodipodi-0.dtd"
   xmlns:inkscape="http://www.inkscape.org/namespaces/inkscape"
   width="327.63281pt"
   height="147.51172pt"
   viewBox="0 0 327.63281 147.51172"
   version="1.2"
   id="svg1579"
   sodipodi:docname="f6.svg"
   inkscape:version="0.92.2 5c3e80d, 2017-08-06">
  <metadata
     id="metadata1583">
    <rdf:RDF>
      <cc:Work
         rdf:about="">
        <dc:format>image/svg+xml</dc:format>
        <dc:type
           rdf:resource="http://purl.org/dc/dcmitype/StillImage" />
        <dc:title></dc:title>
      </cc:Work>
    </rdf:RDF>
  </metadata>
  <sodipodi:namedview
     pagecolor="#ffffff"
     bordercolor="#666666"
     borderopacity="1"
     objecttolerance="10"
     gridtolerance="10"
     guidetolerance="10"
     inkscape:pageopacity="0"
     inkscape:pageshadow="2"
     inkscape:window-width="1266"
     inkscape:window-height="751"
     id="namedview1581"
     showgrid="false"
     fit-margin-top="0"
     fit-margin-left="0"
     fit-margin-right="0"
     fit-margin-bottom="0"
     inkscape:zoom="0.88099376"
     inkscape:cx="-12.00763"
     inkscape:cy="22.361386"
     inkscape:window-x="639"
     inkscape:window-y="181"
     inkscape:window-maximized="0"
     inkscape:current-layer="g344" />
  <defs
     id="defs340">
    <clipPath
       id="clip1">
      <path
         d="M 81.167969,11.136719 H 409.16797 V 159.13672 H 81.167969 Z m 0,0"
         id="path2"
         inkscape:connector-curvature="0" />
    </clipPath>
    <clipPath
       id="clip3">
      <path
         d="M 0.367188,121.13672 H 6 V 126 H 0.367188 Z m 0,0"
         id="path5"
         inkscape:connector-curvature="0" />
    </clipPath>
    <clipPath
       id="clip4">
      <path
         d="M 0.367188,116 H 6 v 4 H 0.367188 Z m 0,0"
         id="path8"
         inkscape:connector-curvature="0" />
    </clipPath>
    <clipPath
       id="clip5">
      <path
         d="M 0.367188,25.136719 H 6 V 30 H 0.367188 Z m 0,0"
         id="path11"
         inkscape:connector-curvature="0" />
    </clipPath>
    <clipPath
       id="clip6">
      <path
         d="M 0.367188,20.136719 H 6 V 25 H 0.367188 Z m 0,0"
         id="path14"
         inkscape:connector-curvature="0" />
    </clipPath>
    <clipPath
       id="clip7">
      <path
         d="M 0.367188,15.136719 H 6 V 20 H 0.367188 Z m 0,0"
         id="path17"
         inkscape:connector-curvature="0" />
    </clipPath>
    <clipPath
       id="clip8">
      <path
         d="M 4,0.335938 H 6 V 7 H 4 Z m 0,0"
         id="path20"
         inkscape:connector-curvature="0" />
    </clipPath>
    <clipPath
       id="clip9">
      <path
         d="m 6.167969,0.335938 h 1 V 6 h -1 z m 0,0"
         id="path23"
         inkscape:connector-curvature="0" />
    </clipPath>
    <clipPath
       id="clip10">
      <path
         d="M 7.167969,0.335938 H 10 V 7 H 7.167969 Z m 0,0"
         id="path26"
         inkscape:connector-curvature="0" />
    </clipPath>
    <clipPath
       id="clip11">
      <path
         d="m 193.16797,0.335938 h 2 V 7 h -2 z m 0,0"
         id="path29"
         inkscape:connector-curvature="0" />
    </clipPath>
    <clipPath
       id="clip12">
      <path
         d="M 195.16797,0.335938 H 197 V 6 h -1.83203 z m 0,0"
         id="path32"
         inkscape:connector-curvature="0" />
    </clipPath>
    <clipPath
       id="clip13">
      <path
         d="M 197.16797,0.335938 H 198 V 6 h -0.83203 z m 0,0"
         id="path35"
         inkscape:connector-curvature="0" />
    </clipPath>
    <clipPath
       id="clip14">
      <path
         d="m 198.16797,0.335938 h 2 V 7 h -2 z m 0,0"
         id="path38"
         inkscape:connector-curvature="0" />
    </clipPath>
    <clipPath
       id="clip15">
      <path
         d="M 200.9375,12.59375 H 328.00391 V 127.12109 H 200.9375 Z m 0,0"
         id="path41"
         inkscape:connector-curvature="0" />
    </clipPath>
    <clipPath
       id="clip17">
      <path
         d="M 0.9375,0.59375 H 128.00391 V 115.12109 H 0.9375 Z m 0,0"
         id="path44"
         inkscape:connector-curvature="0" />
    </clipPath>
    <clipPath
       id="clip19">
      <path
         d="M 5.167969,20.136719 H 125 V 111.125 H 5.167969 Z m 0,0"
         id="path47"
         inkscape:connector-curvature="0" />
    </clipPath>
    <clipPath
       id="clip18">
      <rect
         width="129"
         height="116"
         id="rect50"
         x="0"
         y="0" />
    </clipPath>
    <g
       id="surface793"
       clip-path="url(#clip18)">
      <g
         clip-path="url(#clip19)"
         id="g55"
         style="clip-rule:nonzero">
        <path
           style="fill:none;stroke:#000000;stroke-width:0.35632801;stroke-linecap:round;stroke-linejoin:round;stroke-miterlimit:10;stroke-opacity:1"
           d="m 286.68359,-133.86719 2.375,0.0391 2.375,0.10546 2.375,0.17969 2.3711,0.25781 2.3789,0.32422 2.3711,0.39453 2.375,0.46875 2.375,0.55079 2.37109,0.60937 2.37891,0.69141 2.37109,0.75781 2.37891,0.82812 2.37109,0.91016 2.37891,0.96875 2.37109,1.05469 2.37109,1.12109 2.37891,1.19141 2.37109,1.26562 2.37891,1.33594 2.37109,1.41016 2.37891,1.48437 2.37109,1.55078 2.3711,1.63281 2.3789,1.69922 2.3711,1.76953 2.375,1.84375 2.375,1.91407 2.3789,1.99218 2.3711,2.0586 2.37109,2.13281 2.375,2.207032 2.375,2.28125 2.375,2.351563 2.375,2.421875 2.375,2.492188 2.375,2.570312 2.3711,2.636719 2.375,2.714843 2.37109,2.78125 2.37891,2.859376 2.37109,2.925781 2.37891,3.003906 2.37109,3.070313 2.37891,3.148437 2.37109,3.21875 2.37109,3.289063 2.37891,3.363281 2.37109,3.4375 2.37891,3.503906 2.37109,3.582031"
           transform="matrix(1,0,0,-1,-281,-23)"
           id="path53"
           inkscape:connector-curvature="0" />
      </g>
      <path
         style="fill:#3a3a0f;fill-opacity:0.38823499;fill-rule:nonzero;stroke:none"
         d="m 7.378906,5.183594 104.082034,0.039062 -5.92969,9.285156 C 104.13672,17.183594 73.347656,59.960938 55.007812,77.761719 38.863281,92.898438 26.933594,105.24219 6.394531,110.86719 6.636719,74.082031 6.875,35.605469 7.378906,5.183594 Z m 0,0"
         id="path57"
         inkscape:connector-curvature="0" />
      <path
         style="fill:#00007d;fill-opacity:0.10588199;fill-rule:nonzero;stroke:none"
         d="M 8.796875,110.16797 C 29.921875,102.30078 39.382812,92.308594 55.617188,76.730469 66.957031,65.851562 87.691406,40.777344 105.30859,14.421875 l 6.15235,-9.199219 6.65234,-0.023437 6.13672,-0.269531 v 15.460937 l -3.80078,6.648437 c -1.06641,1.578126 -2.09766,3.109376 -3.10938,4.609376 -4.28906,6.367187 -8.27343,12.144531 -13.4414,18.355468 -3.73828,4.488282 -11.515628,12.800782 -19.031252,20.417969 -0.464844,0.464844 -0.921876,0.933594 -1.378907,1.394531 -0.421875,0.425782 -0.84375,0.847656 -1.261719,1.261719 -0.660156,0.65625 -1.316406,1.304687 -1.960937,1.945313 -4.605469,4.546874 -8.742187,8.421874 -11.292969,10.457031 -8.929687,7.128906 -17.714844,12.703125 -26.46875,16.777341 -8.644531,4.02344 -17.257812,6.58594 -25.957031,7.73828 -2.25,-0.5039 -10.15625,1.11719 -7.75,0.17188 z m 0,0"
         id="path59"
         inkscape:connector-curvature="0" />
    </g>
    <clipPath
       id="clip16">
      <rect
         width="129"
         height="116"
         id="rect62"
         x="0"
         y="0" />
    </clipPath>
    <g
       id="surface795"
       clip-path="url(#clip16)">
      <g
         clip-path="url(#clip17)"
         id="g67"
         style="clip-rule:nonzero">
        <use
           xlink:href="#surface793"
           id="use65"
           x="0"
           y="0"
           width="100%"
           height="100%" />
      </g>
    </g>
    <clipPath
       id="clip20">
      <path
         d="M 207,16.464844 H 312 V 122.90234 H 207 Z m 0,0"
         id="path70"
         inkscape:connector-curvature="0" />
    </clipPath>
    <clipPath
       id="clip21">
      <path
         d="M 322.16797,137.13672 H 328 V 139 h -5.83203 z m 0,0"
         id="path73"
         inkscape:connector-curvature="0" />
    </clipPath>
    <clipPath
       id="clip22">
      <path
         d="M 322.16797,141.13672 H 328 v 6.71484 h -5.83203 z m 0,0"
         id="path76"
         inkscape:connector-curvature="0" />
    </clipPath>
    <clipPath
       id="clip23">
      <path
         d="M 122.16797,141.13672 H 128 v 6.71484 h -5.83203 z m 0,0"
         id="path79"
         inkscape:connector-curvature="0" />
    </clipPath>
    <clipPath
       id="clip2">
      <rect
         width="329"
         height="149"
         id="rect82"
         x="0"
         y="0" />
    </clipPath>
    <g
       id="surface789"
       clip-path="url(#clip2)">
      <path
         style="fill:none;stroke:#000000;stroke-width:0.24943;stroke-linecap:round;stroke-linejoin:round;stroke-miterlimit:10;stroke-opacity:1"
         d="M 95.074219,-137.39453 H 212.90234"
         transform="matrix(1,0,0,-1,-81,-11)"
         id="path85"
         inkscape:connector-curvature="0" />
      <path
         style="fill:#000000;fill-opacity:1;fill-rule:evenodd;stroke:#000000;stroke-width:0.26605901;stroke-linecap:butt;stroke-linejoin:miter;stroke-miterlimit:4;stroke-opacity:1"
         d="m -210.41016,137.39453 0.9961,-0.99609 -3.48828,0.99609 3.48828,1 z m 0,0"
         transform="matrix(-1,0,0,1,-81,-11)"
         id="path87"
         inkscape:connector-curvature="0" />
      <path
         style="fill:none;stroke:#000000;stroke-width:0.230134;stroke-linecap:round;stroke-linejoin:round;stroke-miterlimit:10;stroke-opacity:1"
         d="m 95.074219,-137.39453 v -2.21094"
         transform="matrix(1,0,0,-1,-81,-11)"
         id="path89"
         inkscape:connector-curvature="0" />
      <path
         style="fill:none;stroke:#000000;stroke-width:0.24943;stroke-linecap:round;stroke-linejoin:round;stroke-miterlimit:10;stroke-opacity:1"
         d="M 90.363281,-133.17187 V -27.621094"
         transform="matrix(1,0,0,-1,-81,-11)"
         id="path91"
         inkscape:connector-curvature="0" />
      <path
         style="fill:#000000;fill-opacity:1;fill-rule:evenodd;stroke:#000000;stroke-width:0.26605901;stroke-linecap:butt;stroke-linejoin:miter;stroke-miterlimit:4;stroke-opacity:1"
         d="m 30.113281,90.363281 0.996094,-1 -3.488281,1 3.488281,0.996094 z m 0,0"
         transform="matrix(0,1,1,0,-81,-11)"
         id="path93"
         inkscape:connector-curvature="0" />
      <path
         style="fill:none;stroke:#000000;stroke-width:0.230134;stroke-linecap:round;stroke-linejoin:round;stroke-miterlimit:10;stroke-opacity:1"
         d="M 90.363281,-133.17187 H 88.15625"
         transform="matrix(1,0,0,-1,-81,-11)"
         id="path95"
         inkscape:connector-curvature="0" />
      <path
         style="fill:#000000;fill-opacity:1;fill-rule:nonzero;stroke:none"
         d="m 11.457031,129.44141 c 0.648438,0 1.117188,0.27343 1.40625,0.8125 0.222657,0.41796 0.339844,0.97656 0.339844,1.68359 0,0.68359 -0.105469,1.24609 -0.316406,1.6875 -0.289063,0.62891 -0.765625,0.9375 -1.429688,0.9375 -0.597656,0 -1.039062,-0.25781 -1.324219,-0.76953 C 9.878906,133.35547 9.75,132.76953 9.75,132.04687 c 0,-0.5664 0.074219,-1.05078 0.234375,-1.45312 0.265625,-0.76563 0.757813,-1.15234 1.472656,-1.15234 z m 0,4.5664 c 0.324219,0 0.582031,-0.14062 0.769531,-0.42578 0.195313,-0.30078 0.296876,-0.83984 0.296876,-1.62109 0,-0.56641 -0.07422,-1.03125 -0.214844,-1.38672 -0.144532,-0.36719 -0.414063,-0.55469 -0.808594,-0.55469 -0.375,0 -0.640625,0.17969 -0.8125,0.53516 -0.167969,0.33984 -0.253906,0.84375 -0.253906,1.51172 0,0.51171 0.05078,0.92578 0.167968,1.23437 0.171876,0.47266 0.453126,0.70703 0.855469,0.70703 z m 0,0"
         id="path97"
         inkscape:connector-curvature="0" />
      <path
         style="fill:#000000;fill-opacity:1;fill-rule:nonzero;stroke:none"
         d="m 14.121094,133.66406 h 0.726562 v 0.76953 h -0.726562 z m 0,0"
         id="path99"
         inkscape:connector-curvature="0" />
      <path
         style="fill:#000000;fill-opacity:1;fill-rule:nonzero;stroke:none"
         d="m 17.394531,129.44141 c 0.648438,0 1.121094,0.27343 1.40625,0.8125 0.226563,0.41796 0.34375,0.97656 0.34375,1.68359 0,0.68359 -0.109375,1.24609 -0.320312,1.6875 -0.289063,0.62891 -0.761719,0.9375 -1.429688,0.9375 -0.597656,0 -1.039062,-0.25781 -1.320312,-0.76953 -0.257813,-0.4375 -0.386719,-1.02344 -0.386719,-1.7461 0,-0.5664 0.07422,-1.05078 0.234375,-1.45312 0.269531,-0.76563 0.757813,-1.15234 1.472656,-1.15234 z m 0,4.5664 c 0.324219,0 0.582031,-0.14062 0.765625,-0.42578 0.199219,-0.30078 0.300782,-0.83984 0.300782,-1.62109 0,-0.56641 -0.07422,-1.03125 -0.214844,-1.38672 -0.144532,-0.36719 -0.414063,-0.55469 -0.808594,-0.55469 -0.375,0 -0.640625,0.17969 -0.8125,0.53516 -0.167969,0.33984 -0.253906,0.84375 -0.253906,1.51172 0,0.51171 0.05469,0.92578 0.171875,1.23437 0.167969,0.47266 0.453125,0.70703 0.851562,0.70703 z m 0,0"
         id="path101"
         inkscape:connector-curvature="0" />
      <g
         clip-path="url(#clip3)"
         id="g105"
         style="clip-rule:nonzero">
        <path
           style="fill:#000000;fill-opacity:1;fill-rule:nonzero;stroke:none"
           d="m 0.386719,123.71875 c 0,-0.65234 0.269531,-1.11719 0.808593,-1.40625 0.414063,-0.22266 0.976563,-0.33984 1.683594,-0.33984 0.683594,0 1.25,0.10547 1.683594,0.3164 0.628906,0.28907 0.941406,0.76563 0.941406,1.42969 0,0.59766 -0.257812,1.03906 -0.769531,1.32422 -0.4375,0.25391 -1.023437,0.38281 -1.75,0.38281 -0.5625,0 -1.050781,-0.0781 -1.449219,-0.23437 -0.765625,-0.26953 -1.148437,-0.75782 -1.148437,-1.47266 z m 4.558593,0 c 0,-0.32422 -0.136718,-0.58203 -0.425781,-0.76953 -0.296875,-0.19531 -0.835937,-0.29688 -1.621093,-0.29688 -0.5625,0 -1.027344,0.0742 -1.382813,0.21485 -0.367187,0.14062 -0.554687,0.41406 -0.554687,0.80859 0,0.375 0.179687,0.64063 0.53125,0.8086 0.34375,0.17187 0.847656,0.25781 1.515624,0.25781 0.511719,0 0.925782,-0.0547 1.238282,-0.17188 0.46875,-0.16797 0.699218,-0.45312 0.699218,-0.85156 z m 0,0"
           id="path103"
           inkscape:connector-curvature="0" />
      </g>
      <path
         style="fill:#000000;fill-opacity:1;fill-rule:nonzero;stroke:none"
         d="m 4.605469,120.33594 h 0.765625 v 0.72265 H 4.605469 Z m 0,0"
         id="path107"
         inkscape:connector-curvature="0" />
      <g
         clip-path="url(#clip4)"
         id="g111"
         style="clip-rule:nonzero">
        <path
           style="fill:#000000;fill-opacity:1;fill-rule:nonzero;stroke:none"
           d="m 0.386719,117.78516 c 0,-0.64844 0.269531,-1.11719 0.808593,-1.40625 0.414063,-0.22266 0.976563,-0.33985 1.683594,-0.33985 0.683594,0 1.25,0.10547 1.683594,0.31641 0.628906,0.28906 0.941406,0.76562 0.941406,1.42969 0,0.59765 -0.257812,1.03906 -0.769531,1.32422 -0.4375,0.2539 -1.023437,0.38281 -1.75,0.38281 -0.5625,0 -1.050781,-0.0742 -1.449219,-0.23438 C 0.769531,118.99219 0.386719,118.5 0.386719,117.78516 Z m 4.558593,0 c 0,-0.32422 -0.136718,-0.57813 -0.425781,-0.76563 -0.296875,-0.19922 -0.835937,-0.30078 -1.621093,-0.30078 -0.5625,0 -1.027344,0.0742 -1.382813,0.21484 -0.367187,0.14454 -0.554687,0.41407 -0.554687,0.8086 0,0.375 0.179687,0.64062 0.53125,0.8125 0.34375,0.16797 0.847656,0.2539 1.515624,0.2539 0.511719,0 0.925782,-0.0547 1.238282,-0.17187 0.46875,-0.16797 0.699218,-0.45313 0.699218,-0.85156 z m 0,0"
           id="path109"
           inkscape:connector-curvature="0" />
      </g>
      <g
         clip-path="url(#clip5)"
         id="g115"
         style="clip-rule:nonzero">
        <path
           style="fill:#000000;fill-opacity:1;fill-rule:nonzero;stroke:none"
           d="m 3.96875,29.179688 c 0.285156,-0.01172 0.519531,-0.07813 0.703125,-0.195313 0.339844,-0.222656 0.511719,-0.628906 0.511719,-1.214844 0,-0.253906 -0.042969,-0.488281 -0.128906,-0.703125 -0.140626,-0.410156 -0.394532,-0.617187 -0.769532,-0.617187 -0.265625,0 -0.46875,0.08594 -0.59375,0.253906 C 3.578125,26.875 3.476562,27.152344 3.390625,27.535156 L 3.242188,28.21875 c -0.097657,0.457031 -0.214844,0.777344 -0.34375,0.960938 -0.210938,0.328124 -0.53125,0.488281 -0.957032,0.488281 -0.453125,0 -0.832031,-0.152344 -1.128906,-0.46875 C 0.511719,28.875 0.363281,28.421875 0.363281,27.832031 c 0,-0.519531 0.140625,-0.96875 0.40625,-1.339843 0.253907,-0.382813 0.671875,-0.578126 1.234375,-0.578126 v 0.640626 c -0.28125,0.04297 -0.492187,0.125 -0.640625,0.234374 -0.265625,0.214844 -0.402343,0.570313 -0.402343,1.066407 0,0.417969 0.097656,0.714843 0.277343,0.894531 0.171875,0.171875 0.371094,0.257812 0.597657,0.257812 0.246093,0 0.421874,-0.105468 0.53125,-0.320312 0.085937,-0.128906 0.183593,-0.433594 0.277343,-0.917969 l 0.171875,-0.722656 c 0.082032,-0.34375 0.191406,-0.605469 0.320313,-0.789063 0.242187,-0.328124 0.589843,-0.492187 1.042969,-0.492187 0.570312,0 0.976562,0.207031 1.214843,0.617187 0.242188,0.417969 0.363281,0.890626 0.363281,1.429688 0,0.640625 -0.160156,1.140625 -0.488281,1.492188 -0.3125,0.359374 -0.75,0.535156 -1.300781,0.535156 z m 0,0"
           id="path113"
           inkscape:connector-curvature="0" />
      </g>
      <g
         clip-path="url(#clip6)"
         id="g119"
         style="clip-rule:nonzero">
        <path
           style="fill:#000000;fill-opacity:1;fill-rule:nonzero;stroke:none"
           d="M 0.492188,24.902344 V 24.070312 L 4.628906,21.492188 H 0.492188 v -0.660157 h 5.117187 v 0.789063 l -4.136719,2.621094 h 4.136719 v 0.660156 z m 0,0"
           id="path117"
           inkscape:connector-curvature="0" />
      </g>
      <g
         clip-path="url(#clip7)"
         id="g123"
         style="clip-rule:nonzero">
        <path
           style="fill:#000000;fill-opacity:1;fill-rule:nonzero;stroke:none"
           d="m 2.835938,17.363281 c 0,-0.324219 -0.0625,-0.578125 -0.191407,-0.765625 -0.128906,-0.179687 -0.363281,-0.277344 -0.703125,-0.277344 -0.351562,0 -0.601562,0.128907 -0.746094,0.382813 C 1.125,16.847656 1.089844,17.039062 1.089844,17.28125 v 1.683594 h 1.746094 z m -2.34375,2.304688 v -2.367188 c 0,-0.394531 0.058593,-0.714843 0.171874,-0.960937 0.226563,-0.476563 0.632813,-0.722656 1.210938,-0.722656 0.316406,0 0.570312,0.0625 0.769531,0.191406 0.1875,0.128906 0.335938,0.308594 0.449219,0.53125 0.085938,-0.195313 0.203125,-0.34375 0.339844,-0.445313 C 3.5625,15.78125 3.769531,15.722656 4.050781,15.722656 l 0.707031,-0.04297 c 0.183594,0 0.328126,-0.01172 0.425782,-0.04297 0.160156,-0.03906 0.265625,-0.109375 0.320312,-0.210938 h 0.105469 v 0.832031 c -0.042969,0.03125 -0.097656,0.05078 -0.171875,0.0625 -0.070312,0.01563 -0.203125,0.03125 -0.40625,0.04297 l -0.851562,0.04297 c -0.324219,0.01563 -0.542969,0.136719 -0.660157,0.363281 -0.070312,0.128907 -0.109375,0.335938 -0.109375,0.617188 v 1.578125 h 2.199219 v 0.703125 z m 0,0"
           id="path121"
           inkscape:connector-curvature="0" />
      </g>
      <path
         style="fill:#008a8a;fill-opacity:0.49803904;fill-rule:evenodd;stroke:none"
         d="M 128.29297,17.707031 128.11719,121.91406 H 17.792969"
         id="path125"
         inkscape:connector-curvature="0" />
      <path
         style="fill:#3a3a0f;fill-opacity:0.38823499;fill-rule:nonzero;stroke:none"
         d="M 17.078125,91.339844 V 18.421875 h 54.882813 c 45.726562,0 57.582032,-1.148437 56.332032,0 -5.55859,5.105469 -10.98828,10.109375 -16.25781,14.988281 -49.082035,45.40625 -84.585941,79.609374 -88.574222,83.468754 l -6.382813,5.74218 z m 0,0"
         id="path127"
         inkscape:connector-curvature="0" />
      <path
         style="fill:#00858a;fill-opacity:0.38823499;fill-rule:nonzero;stroke:none"
         d="m 228.76172,122.53125 c -21.72656,0.26953 -22.59766,0.19141 -21.49219,-0.0937 0.90234,-0.22656 1.54688,0.32031 17.40625,-1.42187 0.24609,0.0547 0.71875,-0.27344 1.05078,-0.72657 0.32813,-0.44922 0.60156,-0.58984 0.60156,-0.30468 0,0.57031 1.75391,0.26562 2.67969,-0.46094 0.32422,-0.25 0.58594,-0.33985 0.58594,-0.19531 0,0.39062 6.54687,-1.91016 7.36719,-2.59375 0.39453,-0.32422 0.78515,-0.53907 0.875,-0.47266 0.44922,0.32422 1.1875,0.0273 2.03125,-0.81641 0.51172,-0.51172 0.93359,-0.72656 0.93359,-0.46875 0,0.76172 7.92969,-3.39843 7.97266,-4.1914 0.0234,-0.45703 0.11718,-0.51172 0.26562,-0.13672 0.17188,0.42578 0.55469,0.36719 1.48438,-0.22266 0.6875,-0.4375 1.35547,-0.90234 1.48047,-1.03906 0.1289,-0.13672 1.01953,-0.64844 1.98437,-1.13672 0.96484,-0.48437 1.75391,-1.06641 1.75391,-1.27734 0,-0.22266 0.3125,-0.39844 0.69531,-0.39844 0.38672,0 0.69922,-0.21094 0.69922,-0.46875 0,-0.25391 0.3164,-0.46094 0.70312,-0.46094 0.38672,0 0.69922,-0.3125 0.69922,-0.6875 0,-0.41797 0.27344,-0.58203 0.69922,-0.41797 0.38672,0.15235 0.70313,0.0391 0.70313,-0.25 0,-0.28125 0.26171,-0.51562 0.58593,-0.51562 0.32422,0 1.11328,-0.46875 1.75391,-1.05078 0.64453,-0.57813 3.78906,-3.152348 7,-5.718754 3.20312,-2.566406 8.61719,-7.367187 12.73828,-11.472656 7.70313,-7.691406 14.80469,-15.132812 14.80469,-15.464844 0,-0.101562 1.14453,-1.421875 2.54687,-2.941406 1.40235,-1.519531 2.46094,-2.851562 2.35157,-2.957031 -0.10547,-0.113281 0.33593,-0.625 0.98828,-1.136719 0.92578,-0.726562 1.05078,-1.027344 0.57031,-1.332031 -0.48828,-0.308594 -0.46484,-0.394531 0.11719,-0.40625 0.41406,0 1.1289,-0.425781 1.59375,-0.9375 0.46484,-0.511719 0.73437,-0.933594 0.59375,-0.933594 -0.14063,0 0.45703,-0.777344 1.32812,-1.726563 0.86719,-0.949218 1.58203,-1.976562 1.58203,-2.28125 0,-0.308593 0.31641,-0.683593 0.69922,-0.832031 0.38281,-0.144531 0.69922,-0.585937 0.69922,-0.980469 0,-0.394531 0.16406,-0.714843 0.36719,-0.714843 0.74219,0 3.8164,-4.597657 3.23437,-4.832031 -0.33984,-0.140626 -0.26172,-0.246094 0.19922,-0.269532 0.89844,-0.04297 2.42969,-2.195312 2.03125,-2.851562 -0.15625,-0.25 0.0156,-0.453125 0.38281,-0.453125 0.61329,0 2.92969,-2.984375 3.02344,-3.890625 0.0195,-0.21875 0.41797,-0.683594 0.88281,-1.039063 0.6836,-0.511719 0.71094,-0.648437 0.14844,-0.6875 -0.38281,-0.01953 -0.17969,-0.25 0.46094,-0.507812 0.94141,-0.371094 1.02734,-0.535157 0.46094,-0.894531 -0.57813,-0.367188 -0.57032,-0.4375 0.10156,-0.441407 0.4375,-0.0078 2.35156,-3.917969 2.71484,-4.429687 -0.21875,24.746094 0,67.238281 0,89.859376 -29.72656,-0.19141 -29.72656,-0.0195 -58.01172,0.082 z m 0,0"
         id="path129"
         inkscape:connector-curvature="0" />
      <path
         style="fill:#000000;fill-opacity:1;fill-rule:nonzero;stroke:none"
         d="m 49.894531,133.37109 h 0.808594 v 2.47657 c 0.183594,-0.24219 0.40625,-0.41797 0.664063,-0.53516 0.253906,-0.12891 0.53125,-0.19141 0.828124,-0.19141 0.625,0 1.132813,0.21485 1.515626,0.64063 0.382812,0.42578 0.574218,1.05469 0.574218,1.875 0,0.80078 -0.191406,1.46094 -0.574218,1.98437 -0.382813,0.51172 -0.910157,0.76563 -1.578126,0.76563 -0.382812,0 -0.703124,-0.0859 -0.960937,-0.25391 -0.160156,-0.11328 -0.328125,-0.28906 -0.511719,-0.53515 v 0.64062 h -0.765625 z m 2.175781,6.29297 c 0.453126,0 0.792969,-0.17578 1.023438,-0.53515 0.222656,-0.36719 0.339844,-0.85157 0.339844,-1.44922 0,-0.52344 -0.117188,-0.96094 -0.339844,-1.30078 -0.230469,-0.34375 -0.566406,-0.51172 -1.003906,-0.51172 -0.382813,0 -0.71875,0.14453 -1,0.42578 -0.289063,0.28906 -0.429688,0.74609 -0.429688,1.38672 0,0.46875 0.05469,0.85156 0.171875,1.15234 0.226563,0.55078 0.640625,0.83203 1.238281,0.83203 z m 0,0"
         id="path131"
         inkscape:connector-curvature="0" />
      <path
         style="fill:#000000;fill-opacity:1;fill-rule:nonzero;stroke:none"
         d="M 55.273438,135.26953 H 56.125 v 4.96875 h -0.851562 z m 0,-1.875 H 56.125 v 0.9375 h -0.851562 z m 0,0"
         id="path133"
         inkscape:connector-curvature="0" />
      <path
         style="fill:#000000;fill-opacity:1;fill-rule:nonzero;stroke:none"
         d="m 59.316406,135.09766 c 0.566406,0 1.023438,0.14062 1.367188,0.40625 0.351562,0.27343 0.574218,0.74218 0.660156,1.40625 h -0.832031 c -0.04297,-0.29688 -0.160157,-0.54297 -0.339844,-0.7461 -0.171875,-0.21094 -0.460937,-0.3164 -0.855469,-0.3164 -0.527344,0 -0.910156,0.26562 -1.148437,0.78906 -0.144531,0.33984 -0.214844,0.75781 -0.214844,1.25781 0,0.5 0.105469,0.91406 0.320313,1.25781 0.214843,0.33985 0.542968,0.51172 1.003906,0.51172 0.339844,0 0.605468,-0.10937 0.808594,-0.32031 0.214843,-0.21484 0.351562,-0.50391 0.425781,-0.875 h 0.832031 c -0.101562,0.67187 -0.339844,1.16016 -0.726562,1.47266 -0.371094,0.29687 -0.839844,0.44531 -1.40625,0.44531 -0.652344,0 -1.183594,-0.23438 -1.578126,-0.70313 -0.382812,-0.48047 -0.574218,-1.08593 -0.574218,-1.8125 0,-0.86328 0.210937,-1.53906 0.640625,-2.02343 0.425781,-0.5 0.964843,-0.75 1.617187,-0.75 z m 0,0"
         id="path135"
         inkscape:connector-curvature="0" />
      <path
         style="fill:#000000;fill-opacity:1;fill-rule:nonzero;stroke:none"
         d="m 62.199219,133.39453 h 0.828125 v 6.84375 h -0.828125 z m 0,0"
         id="path137"
         inkscape:connector-curvature="0" />
      <path
         style="fill:#000000;fill-opacity:1;fill-rule:nonzero;stroke:none"
         d="m 65.132812,135.25 v 3.30469 c 0,0.2539 0.04297,0.46875 0.128907,0.64062 0.136719,0.29688 0.414062,0.44531 0.832031,0.44531 0.582031,0 0.980469,-0.26171 1.195312,-0.78906 0.109376,-0.28125 0.167969,-0.66406 0.167969,-1.15234 V 135.25 H 68.3125 v 4.98828 H 67.5 l 0.02344,-0.74609 c -0.117188,0.20312 -0.253907,0.36328 -0.40625,0.48828 -0.332032,0.25781 -0.71875,0.38672 -1.171876,0.38672 -0.714843,0 -1.195312,-0.23438 -1.449218,-0.70313 -0.144532,-0.25781 -0.214844,-0.59765 -0.214844,-1.02344 V 135.25 Z m 0,0"
         id="path139"
         inkscape:connector-curvature="0" />
      <path
         style="fill:#000000;fill-opacity:1;fill-rule:nonzero;stroke:none"
         d="m 70.113281,138.66016 c 0.02734,0.28906 0.09766,0.50781 0.214844,0.66015 0.210937,0.27344 0.578125,0.40625 1.105469,0.40625 0.3125,0 0.582031,-0.0625 0.8125,-0.1914 0.238281,-0.14063 0.363281,-0.35157 0.363281,-0.64063 0,-0.21094 -0.09766,-0.37109 -0.28125,-0.48828 -0.125,-0.0703 -0.371094,-0.15234 -0.722656,-0.23438 L 70.945312,138 c -0.425781,-0.11328 -0.746093,-0.23438 -0.960937,-0.36328 -0.355469,-0.22266 -0.53125,-0.53906 -0.53125,-0.9375 0,-0.46875 0.167969,-0.84375 0.511719,-1.12891 0.339844,-0.30078 0.792968,-0.44922 1.363281,-0.44922 0.75,0 1.300781,0.22266 1.640625,0.66016 0.199219,0.27344 0.300781,0.57031 0.300781,0.89453 h -0.789062 c -0.01563,-0.17969 -0.08594,-0.35156 -0.214844,-0.51172 -0.1875,-0.22265 -0.519531,-0.33984 -1,-0.33984 -0.316406,0 -0.554687,0.0625 -0.726563,0.1914 -0.160156,0.11719 -0.234374,0.27344 -0.234374,0.46875 0,0.23047 0.105468,0.40625 0.320312,0.53516 0.128906,0.0742 0.308594,0.13672 0.554688,0.19141 l 0.554687,0.14843 c 0.59375,0.14454 1,0.28907 1.214844,0.42579 0.324219,0.21484 0.488281,0.55078 0.488281,1.0039 0,0.44141 -0.167969,0.82422 -0.511719,1.15235 -0.339843,0.32421 -0.851562,0.48828 -1.535156,0.48828 -0.738281,0 -1.265625,-0.17188 -1.574219,-0.51172 -0.316406,-0.33985 -0.488281,-0.75781 -0.511718,-1.25781 z m 0,0"
         id="path141"
         inkscape:connector-curvature="0" />
      <path
         style="fill:#000000;fill-opacity:1;fill-rule:nonzero;stroke:none"
         d="m 74.570312,133.83984 h 0.851563 V 135.25 h 0.789063 v 0.67969 h -0.789063 v 3.26562 c 0,0.16797 0.05469,0.28516 0.171875,0.33985 0.05078,0.043 0.160156,0.0625 0.316406,0.0625 0.04687,0 0.08594,0 0.128906,0 0.05469,-0.0117 0.113282,-0.0195 0.171876,-0.0195 v 0.66016 c -0.101563,0.0273 -0.203126,0.0469 -0.300782,0.0625 -0.09766,0.0117 -0.210937,0.0234 -0.339844,0.0234 -0.398437,0 -0.671874,-0.0977 -0.808593,-0.30078 -0.128907,-0.21094 -0.191407,-0.47266 -0.191407,-0.78907 v -3.30468 H 73.886719 V 135.25 h 0.683593 z m 0,0"
         id="path143"
         inkscape:connector-curvature="0" />
      <path
         style="fill:#000000;fill-opacity:1;fill-rule:nonzero;stroke:none"
         d="m 79.117188,135.12109 c 0.351562,0 0.691406,0.0859 1.023437,0.25391 0.339844,0.17187 0.597656,0.38672 0.765625,0.64062 0.171875,0.25782 0.285156,0.55469 0.34375,0.89454 0.05078,0.23046 0.08203,0.59375 0.08203,1.08984 h -3.664062 c 0.0078,0.51172 0.132812,0.92578 0.359375,1.23437 0.226562,0.30079 0.578125,0.44922 1.046875,0.44922 0.425781,0 0.773437,-0.13672 1.042969,-0.42578 0.140624,-0.17187 0.246093,-0.36719 0.320312,-0.59765 H 81.25 c -0.01563,0.1875 -0.08594,0.39453 -0.214844,0.61718 -0.117187,0.23047 -0.25,0.41797 -0.40625,0.55469 -0.253906,0.25781 -0.574218,0.42578 -0.957031,0.51172 -0.203125,0.043 -0.425781,0.0625 -0.683594,0.0625 -0.613281,0 -1.140625,-0.21484 -1.578125,-0.66016 -0.425781,-0.45312 -0.640625,-1.08984 -0.640625,-1.91797 0,-0.79296 0.214844,-1.4375 0.640625,-1.9414 0.4375,-0.51172 1.007813,-0.76563 1.707032,-0.76563 z m 1.339843,2.21485 c -0.03125,-0.34766 -0.105469,-0.64063 -0.230469,-0.8711 -0.230468,-0.39453 -0.617187,-0.59765 -1.152343,-0.59765 -0.382813,0 -0.714844,0.14453 -0.980469,0.42578 -0.257812,0.27344 -0.394531,0.61719 -0.40625,1.04297 z m 0,0"
         id="path145"
         inkscape:connector-curvature="0" />
      <path
         style="fill:#000000;fill-opacity:1;fill-rule:nonzero;stroke:none"
         d="m 82.382812,135.25 h 0.789063 v 0.85156 c 0.07031,-0.17187 0.234375,-0.37109 0.492187,-0.61719 0.253907,-0.24218 0.542969,-0.36328 0.875,-0.36328 0.0078,0 0.03906,0.0117 0.08203,0.0195 0.04297,0 0.109375,0.0117 0.195312,0.0234 v 0.8711 c -0.0625,-0.008 -0.109375,-0.0195 -0.152344,-0.0195 -0.03125,0 -0.07422,0 -0.125,0 -0.429687,0 -0.757812,0.14063 -0.984374,0.40625 -0.226563,0.27344 -0.339844,0.58594 -0.339844,0.9375 v 2.87891 h -0.832032 z m 0,0"
         id="path147"
         inkscape:connector-curvature="0" />
      <path
         style="fill:#000000;fill-opacity:1;fill-rule:nonzero;stroke:none"
         d="m 85.554688,135.26953 h 0.855468 v 4.96875 h -0.855468 z m 0,-1.875 h 0.855468 v 0.9375 h -0.855468 z m 0,0"
         id="path149"
         inkscape:connector-curvature="0" />
      <path
         style="fill:#000000;fill-opacity:1;fill-rule:nonzero;stroke:none"
         d="m 87.679688,135.25 h 0.789062 v 0.70312 c 0.242188,-0.30078 0.492188,-0.51171 0.746094,-0.64062 0.269531,-0.12891 0.566406,-0.19141 0.898437,-0.19141 0.707031,0 1.183594,0.25 1.425781,0.7461 0.140626,0.27343 0.214844,0.66015 0.214844,1.17187 v 3.19922 h -0.851562 v -3.15625 c 0,-0.29687 -0.05469,-0.53906 -0.152344,-0.72266 -0.140625,-0.3125 -0.414062,-0.47265 -0.808594,-0.47265 -0.203125,0 -0.363281,0.0234 -0.488281,0.0664 -0.230469,0.0742 -0.425781,0.20704 -0.597656,0.40625 -0.144531,0.16797 -0.234375,0.33985 -0.277344,0.51172 -0.04297,0.16797 -0.0625,0.41797 -0.0625,0.7461 v 2.62109 h -0.835937 z m 0,0"
         id="path151"
         inkscape:connector-curvature="0" />
      <path
         style="fill:#000000;fill-opacity:1;fill-rule:nonzero;stroke:none"
         d="m 94.765625,135.16406 c 0.382813,0 0.726563,0.0937 1.023437,0.27735 0.15625,0.11718 0.308594,0.26953 0.46875,0.46875 v -0.6211 h 0.789063 v 4.54297 c 0,0.64063 -0.09375,1.13672 -0.277344,1.49219 -0.355469,0.68359 -1.019531,1.02344 -1.984375,1.02344 -0.542968,0 -0.996094,-0.1211 -1.363281,-0.35938 -0.355469,-0.24609 -0.554687,-0.62109 -0.597656,-1.13281 h 0.855469 c 0.02344,0.22656 0.105468,0.39453 0.234374,0.51172 0.179688,0.19922 0.480469,0.30078 0.894532,0.30078 0.640625,0 1.054687,-0.23047 1.257812,-0.6836 0.128906,-0.27343 0.183594,-0.75 0.171875,-1.44921 -0.171875,0.2539 -0.378906,0.44531 -0.617187,0.57421 -0.230469,0.12891 -0.535156,0.19141 -0.917969,0.19141 -0.554687,0 -1.039063,-0.19141 -1.453125,-0.57422 -0.398438,-0.38281 -0.59375,-1.02344 -0.59375,-1.91797 0,-0.82031 0.203125,-1.47265 0.617188,-1.9414 0.410156,-0.46875 0.90625,-0.70313 1.492187,-0.70313 z m 1.492187,2.5586 c 0,-0.625 -0.125,-1.08594 -0.382812,-1.38672 -0.246094,-0.30078 -0.566406,-0.44922 -0.960938,-0.44922 -0.59375,0 -1,0.27734 -1.214843,0.83203 -0.117188,0.30078 -0.167969,0.69531 -0.167969,1.17578 0,0.55078 0.109375,0.97656 0.339844,1.27734 0.222656,0.29688 0.53125,0.44922 0.914062,0.44922 0.609375,0 1.035156,-0.27734 1.28125,-0.83203 0.128906,-0.30078 0.191406,-0.65234 0.191406,-1.0664 z m 0,0"
         id="path153"
         inkscape:connector-curvature="0" />
      <path
         style="fill:#000000;fill-opacity:1;fill-rule:nonzero;stroke:none"
         d="M 45.132812,55.984375 44.109375,52.976562 43,55.984375 Z m -1.511718,-4.03125 h 1.042968 l 2.472657,6.824219 h -1 l -0.703125,-2.046875 h -2.6875 L 42,58.777344 h -0.9375 z m 0,0"
         id="path155"
         inkscape:connector-curvature="0" />
      <path
         style="fill:#000000;fill-opacity:1;fill-rule:nonzero;stroke:none"
         d="m 68.863281,103.29297 c 0.394531,0 0.707031,-0.0469 0.917969,-0.14844 0.34375,-0.17187 0.511719,-0.47656 0.511719,-0.91797 0,-0.45312 -0.1875,-0.75781 -0.554688,-0.91797 -0.199219,-0.082 -0.5,-0.1289 -0.894531,-0.1289 h -1.664062 v 2.11328 z m 0.324219,3.15625 c 0.5625,0 0.96875,-0.16016 1.210938,-0.49219 0.140624,-0.21094 0.214843,-0.45703 0.214843,-0.74609 0,-0.4961 -0.222656,-0.83594 -0.660156,-1.02344 -0.230469,-0.0937 -0.542969,-0.14844 -0.9375,-0.14844 h -1.835937 v 2.41016 z m -2.902344,-6.03516 h 2.921875 c 0.792969,0 1.363281,0.2461 1.703125,0.72657 0.199219,0.26953 0.300782,0.58984 0.300782,0.95703 0,0.4414 -0.121094,0.80078 -0.363282,1.0664 -0.125,0.14453 -0.3125,0.27735 -0.554687,0.40625 0.351562,0.12891 0.617187,0.27735 0.789062,0.44532 0.308594,0.30078 0.46875,0.71484 0.46875,1.23828 0,0.42578 -0.140625,0.82422 -0.425781,1.19531 -0.414062,0.52734 -1.066406,0.78906 -1.960938,0.78906 h -2.878906 z m 0,0"
         id="path157"
         inkscape:connector-curvature="0" />
      <path
         style="fill:none;stroke:#000000;stroke-width:0.35632801;stroke-linecap:butt;stroke-linejoin:miter;stroke-miterlimit:4;stroke-opacity:1"
         d="M 98.792969,-132.91406 209.29297,-28.707031"
         transform="matrix(1,0,0,-1,-81,-11)"
         id="path159"
         inkscape:connector-curvature="0" />
      <path
         style="fill:#000000;fill-opacity:1;fill-rule:nonzero;stroke:none"
         d="m 222.48828,134.65234 h 0.83203 v 2.53516 c 0.19922,-0.23828 0.375,-0.41406 0.53516,-0.53125 0.26562,-0.17188 0.60547,-0.25781 1.02344,-0.25781 0.72265,0 1.21484,0.25781 1.46875,0.76953 0.14062,0.27344 0.21484,0.65625 0.21484,1.15234 v 3.19531 h -0.875 v -3.15625 c 0,-0.34765 -0.043,-0.62109 -0.12891,-0.80859 -0.16015,-0.26562 -0.4414,-0.40234 -0.85156,-0.40234 -0.35547,0 -0.67578,0.12109 -0.96094,0.35937 -0.28515,0.2461 -0.42578,0.69922 -0.42578,1.36328 v 2.64453 h -0.83203 z m 0,0"
         id="path161"
         inkscape:connector-curvature="0" />
      <path
         style="fill:#000000;fill-opacity:1;fill-rule:nonzero;stroke:none"
         d="m 227.80859,136.54687 h 0.85547 v 4.96875 h -0.85547 z m 0,-1.875 h 0.85547 v 0.94141 h -0.85547 z m 0,0"
         id="path163"
         inkscape:connector-curvature="0" />
      <path
         style="fill:#000000;fill-opacity:1;fill-rule:nonzero;stroke:none"
         d="m 231.70703,136.44141 c 0.38281,0 0.72266,0.0977 1.02344,0.27734 0.15234,0.11719 0.30859,0.27344 0.46875,0.46875 v -0.61719 h 0.78906 v 4.54297 c 0,0.64063 -0.0977,1.13281 -0.27734,1.49219 -0.35938,0.68359 -1.01953,1.02344 -1.98438,1.02344 -0.54297,0 -0.99609,-0.125 -1.36328,-0.36329 -0.35937,-0.24609 -0.55469,-0.61718 -0.59766,-1.1289 h 0.85157 c 0.0273,0.22265 0.10937,0.39453 0.23437,0.51172 0.1836,0.19531 0.48047,0.29687 0.89844,0.29687 0.63672,0 1.05469,-0.22656 1.25781,-0.67969 0.125,-0.27343 0.17969,-0.7539 0.16797,-1.45312 -0.16797,0.25781 -0.37891,0.44922 -0.61719,0.57812 -0.23047,0.125 -0.53125,0.19141 -0.91797,0.19141 -0.55468,0 -1.03906,-0.19141 -1.44921,-0.57812 -0.39844,-0.38282 -0.59766,-1.02344 -0.59766,-1.91797 0,-0.82032 0.20312,-1.46875 0.62109,-1.9375 0.41016,-0.47266 0.90625,-0.70703 1.49219,-0.70703 z M 233.19922,139 c 0,-0.62109 -0.12891,-1.08594 -0.38281,-1.38281 -0.2461,-0.30078 -0.56641,-0.44922 -0.96094,-0.44922 -0.59766,0 -1.00391,0.27734 -1.21485,0.83203 -0.11718,0.29687 -0.17187,0.69141 -0.17187,1.17187 0,0.55469 0.11328,0.98047 0.33984,1.28125 0.22657,0.29688 0.53516,0.44532 0.91797,0.44532 0.60938,0 1.03516,-0.27735 1.28125,-0.83203 0.125,-0.29688 0.19141,-0.64844 0.19141,-1.06641 z m 0,0"
         id="path165"
         inkscape:connector-curvature="0" />
      <path
         style="fill:#000000;fill-opacity:1;fill-rule:nonzero;stroke:none"
         d="m 235.25,134.65234 h 0.83203 v 2.53516 c 0.19922,-0.23828 0.375,-0.41406 0.53516,-0.53125 0.26562,-0.17188 0.60547,-0.25781 1.02343,-0.25781 0.72266,0 1.21485,0.25781 1.46875,0.76953 0.14063,0.27344 0.21485,0.65625 0.21485,1.15234 v 3.19531 h -0.875 v -3.15625 c 0,-0.34765 -0.043,-0.62109 -0.12891,-0.80859 -0.16015,-0.26562 -0.4414,-0.40234 -0.85156,-0.40234 -0.35938,0 -0.67578,0.12109 -0.96094,0.35937 -0.28515,0.2461 -0.42578,0.69922 -0.42578,1.36328 v 2.64453 H 235.25 Z m 0,0"
         id="path167"
         inkscape:connector-curvature="0" />
      <path
         style="fill:#000000;fill-opacity:1;fill-rule:nonzero;stroke:none"
         d="m 240.35547,138.42578 h 2.32422 v 0.85156 h -2.32422 z m 0,0"
         id="path169"
         inkscape:connector-curvature="0" />
      <path
         style="fill:#000000;fill-opacity:1;fill-rule:nonzero;stroke:none"
         d="m 245.74219,140.98437 c 0.55468,0 0.92578,-0.21484 1.1289,-0.64062 0.21485,-0.42578 0.32032,-0.89453 0.32032,-1.40625 0,-0.46875 -0.0742,-0.84375 -0.21485,-1.12891 -0.24219,-0.47265 -0.65625,-0.70312 -1.23437,-0.70312 -0.51172,0 -0.89063,0.19922 -1.13282,0.59375 -0.22656,0.38672 -0.33984,0.85547 -0.33984,1.41015 0,0.54297 0.11328,0.98829 0.33984,1.34375 0.24219,0.35547 0.6211,0.53125 1.13282,0.53125 z m 0.0195,-4.60546 c 0.65234,0 1.19922,0.21484 1.64062,0.64062 0.44141,0.42578 0.66407,1.05859 0.66407,1.89844 0,0.80859 -0.20313,1.48047 -0.59766,2 -0.38281,0.53125 -0.99219,0.79297 -1.8125,0.79297 -0.68359,0 -1.23047,-0.23438 -1.64063,-0.70703 -0.40234,-0.46875 -0.59765,-1.08985 -0.59765,-1.875 0,-0.83594 0.21094,-1.50391 0.63672,-2.00391 0.42968,-0.49609 0.99218,-0.74609 1.70703,-0.74609 z m 0,0"
         id="path171"
         inkscape:connector-curvature="0" />
      <path
         style="fill:#000000;fill-opacity:1;fill-rule:nonzero;stroke:none"
         d="m 249.09766,136.52734 h 0.79296 v 0.85547 c 0.0664,-0.17187 0.23047,-0.375 0.48829,-0.62109 0.2539,-0.23828 0.54296,-0.36328 0.875,-0.36328 0.008,0 0.043,0.0117 0.0859,0.0234 0.0391,0 0.10547,0.008 0.19141,0.0195 v 0.875 c -0.0586,-0.0117 -0.10547,-0.0195 -0.15234,-0.0195 -0.0312,0 -0.0742,0 -0.125,0 -0.42579,0 -0.75782,0.13672 -0.98047,0.40235 -0.23047,0.27344 -0.34375,0.58984 -0.34375,0.9414 v 2.875 h -0.83203 z m 0,0"
         id="path173"
         inkscape:connector-curvature="0" />
      <path
         style="fill:#000000;fill-opacity:1;fill-rule:nonzero;stroke:none"
         d="m 252.79687,139.08594 c 0,0.52734 0.11329,0.97656 0.34375,1.34375 0.22266,0.35937 0.58594,0.53515 1.08594,0.53515 0.38281,0 0.70313,-0.16015 0.96094,-0.49218 0.25391,-0.33985 0.38281,-0.82032 0.38281,-1.44922 0,-0.625 -0.13672,-1.08985 -0.40625,-1.38672 -0.2539,-0.3086 -0.57031,-0.46875 -0.9375,-0.46875 -0.42578,0 -0.77734,0.16406 -1.04297,0.49219 -0.25781,0.3125 -0.38672,0.78515 -0.38672,1.42578 z m 1.25782,-2.64453 c 0.38672,0 0.70703,0.082 0.96093,0.23437 0.15625,0.0859 0.32422,0.25391 0.51172,0.49219 v -2.51563 h 0.8125 v 6.86328 h -0.76953 v -0.70312 c -0.1875,0.31641 -0.41406,0.54687 -0.67969,0.68359 -0.27343,0.12891 -0.57812,0.19141 -0.91796,0.19141 -0.55469,0 -1.03907,-0.23438 -1.45313,-0.70313 -0.41406,-0.46875 -0.61719,-1.08984 -0.61719,-1.85546 0,-0.72266 0.1836,-1.34766 0.55469,-1.875 0.38672,-0.53907 0.91797,-0.8125 1.59766,-0.8125 z m 0,0"
         id="path175"
         inkscape:connector-curvature="0" />
      <path
         style="fill:#000000;fill-opacity:1;fill-rule:nonzero;stroke:none"
         d="m 259.65234,136.39844 c 0.35547,0 0.69532,0.0859 1.02344,0.25781 0.34375,0.16797 0.59766,0.38281 0.76953,0.64062 0.16797,0.25391 0.28125,0.55079 0.33985,0.89454 0.0547,0.22656 0.0859,0.58984 0.0859,1.08593 h -3.66797 c 0.0117,0.51172 0.13282,0.92969 0.36329,1.23828 0.22265,0.29688 0.57421,0.44922 1.04687,0.44922 0.42578,0 0.76953,-0.14062 1.04297,-0.42968 0.13672,-0.16797 0.24609,-0.36719 0.32031,-0.59375 h 0.8086 c -0.0156,0.18359 -0.0859,0.39453 -0.21094,0.61718 -0.11719,0.23047 -0.25391,0.41407 -0.40625,0.55469 -0.25781,0.25391 -0.57813,0.42578 -0.96094,0.51172 -0.19922,0.043 -0.42578,0.0625 -0.67969,0.0625 -0.61328,0 -1.14062,-0.21875 -1.57812,-0.66016 -0.42969,-0.45312 -0.64063,-1.09375 -0.64063,-1.91797 0,-0.79687 0.21094,-1.4414 0.64063,-1.9414 0.4375,-0.51172 1.00781,-0.76953 1.70312,-0.76953 z m 1.34375,2.21875 c -0.0312,-0.35157 -0.10547,-0.64453 -0.23437,-0.875 -0.23047,-0.39453 -0.61328,-0.59375 -1.14844,-0.59375 -0.38672,0 -0.71484,0.14062 -0.98437,0.42187 -0.25391,0.27344 -0.39454,0.6211 -0.40235,1.04688 z m 0,0"
         id="path177"
         inkscape:connector-curvature="0" />
      <path
         style="fill:#000000;fill-opacity:1;fill-rule:nonzero;stroke:none"
         d="m 262.92187,136.52734 h 0.78907 v 0.85547 c 0.0664,-0.17187 0.23437,-0.375 0.48828,-0.62109 0.25781,-0.23828 0.54297,-0.36328 0.875,-0.36328 0.0117,0 0.043,0.0117 0.0859,0.0234 0.043,0 0.10546,0.008 0.1914,0.0195 v 0.875 c -0.0586,-0.0117 -0.10547,-0.0195 -0.14844,-0.0195 -0.0312,0 -0.0742,0 -0.1289,0 -0.42578,0 -0.75781,0.13672 -0.98047,0.40235 -0.23047,0.27344 -0.33984,0.58984 -0.33984,0.9414 v 2.875 h -0.83204 z m 0,0"
         id="path179"
         inkscape:connector-curvature="0" />
      <path
         style="fill:#000000;fill-opacity:1;fill-rule:nonzero;stroke:none"
         d="m 270.66016,136.37891 c 0.5664,0 1.02343,0.13671 1.36328,0.40625 0.35547,0.26953 0.57812,0.73828 0.66406,1.40625 h -0.83203 c -0.043,-0.29688 -0.16016,-0.54297 -0.34375,-0.7461 -0.16797,-0.21484 -0.45703,-0.32031 -0.85156,-0.32031 -0.52735,0 -0.91016,0.26562 -1.15235,0.78906 -0.14062,0.33985 -0.21094,0.76172 -0.21094,1.25781 0,0.5 0.10547,0.91797 0.32032,1.25782 0.21093,0.33984 0.54297,0.51172 1,0.51172 0.34375,0 0.60937,-0.10547 0.8125,-0.32032 0.21093,-0.21484 0.35156,-0.5 0.42578,-0.875 h 0.83203 c -0.10156,0.67188 -0.33984,1.16407 -0.72656,1.47266 -0.3711,0.29687 -0.83985,0.44922 -1.40625,0.44922 -0.65625,0 -1.1836,-0.23828 -1.57813,-0.70313 -0.38281,-0.48047 -0.57422,-1.08984 -0.57422,-1.8125 0,-0.86328 0.21094,-1.54297 0.63672,-2.02734 0.42578,-0.49609 0.96485,-0.74609 1.6211,-0.74609 z m 0,0"
         id="path181"
         inkscape:connector-curvature="0" />
      <path
         style="fill:#000000;fill-opacity:1;fill-rule:nonzero;stroke:none"
         d="m 273.53906,134.67187 h 0.83203 v 6.84375 h -0.83203 z m 0,0"
         id="path183"
         inkscape:connector-curvature="0" />
      <path
         style="fill:#000000;fill-opacity:1;fill-rule:nonzero;stroke:none"
         d="m 276.47656,136.52734 v 3.30469 c 0,0.25781 0.043,0.46875 0.12891,0.64063 0.13672,0.29687 0.41406,0.44531 0.83203,0.44531 0.57812,0 0.98047,-0.25781 1.19141,-0.78516 0.11328,-0.28515 0.17187,-0.66797 0.17187,-1.15234 v -2.45313 h 0.85156 v 4.98828 h -0.80859 l 0.0195,-0.74609 c -0.11719,0.20313 -0.25,0.36328 -0.40234,0.49219 -0.33203,0.2539 -0.71875,0.38281 -1.17188,0.38281 -0.71875,0 -1.19531,-0.23437 -1.45312,-0.70312 -0.14063,-0.25391 -0.21094,-0.59766 -0.21094,-1.02344 v -3.39063 z m 0,0"
         id="path185"
         inkscape:connector-curvature="0" />
      <path
         style="fill:#000000;fill-opacity:1;fill-rule:nonzero;stroke:none"
         d="m 281.44922,139.94141 c 0.0273,0.28515 0.0976,0.5039 0.21484,0.66015 0.21094,0.26953 0.57813,0.40235 1.10938,0.40235 0.30859,0 0.57812,-0.0625 0.80859,-0.19141 0.24219,-0.13672 0.36328,-0.35156 0.36328,-0.63672 0,-0.21484 -0.0976,-0.375 -0.27734,-0.49219 -0.12891,-0.0703 -0.375,-0.14843 -0.72656,-0.23437 l -0.66016,-0.17188 c -0.42578,-0.10937 -0.74609,-0.23437 -0.95703,-0.35937 -0.35938,-0.22656 -0.53516,-0.53906 -0.53516,-0.94141 0,-0.46875 0.17188,-0.83984 0.51172,-1.1289 0.33984,-0.30079 0.79297,-0.44922 1.36328,-0.44922 0.75391,0 1.30078,0.22656 1.64453,0.66015 0.19532,0.27344 0.29688,0.57422 0.29688,0.89844 h -0.78906 c -0.0156,-0.17969 -0.0859,-0.35156 -0.21094,-0.51172 -0.1875,-0.22656 -0.52344,-0.33984 -1.00391,-0.33984 -0.3125,0 -0.55469,0.0625 -0.72656,0.1914 -0.16016,0.11719 -0.23438,0.26954 -0.23438,0.46875 0,0.22657 0.10938,0.40625 0.32032,0.53125 0.1289,0.0742 0.30859,0.14063 0.55468,0.19141 l 0.55469,0.15234 c 0.59766,0.14063 1,0.28516 1.21485,0.42579 0.32421,0.21093 0.49218,0.54687 0.49218,1 0,0.44531 -0.17187,0.82812 -0.51172,1.15234 -0.34375,0.32422 -0.85546,0.49219 -1.53515,0.49219 -0.74219,0 -1.26953,-0.17188 -1.57813,-0.51172 -0.3164,-0.34375 -0.48828,-0.75781 -0.51172,-1.25781 z m 0,0"
         id="path187"
         inkscape:connector-curvature="0" />
      <path
         style="fill:#000000;fill-opacity:1;fill-rule:nonzero;stroke:none"
         d="m 285.90625,135.12109 h 0.85156 v 1.40625 h 0.78906 v 0.6836 h -0.78906 v 3.26172 c 0,0.17187 0.0547,0.28906 0.17188,0.33984 0.0547,0.043 0.16015,0.0664 0.32031,0.0664 0.043,0 0.0859,0 0.12891,0 0.0508,-0.0117 0.10937,-0.0234 0.16796,-0.0234 v 0.66015 c -0.10156,0.0273 -0.19921,0.0508 -0.29687,0.0664 -0.10156,0.0117 -0.21484,0.0195 -0.34375,0.0195 -0.39844,0 -0.67188,-0.0937 -0.80859,-0.29687 -0.12891,-0.21485 -0.19141,-0.47657 -0.19141,-0.78907 v -3.30468 h -0.68359 v -0.6836 h 0.68359 z m 0,0"
         id="path189"
         inkscape:connector-curvature="0" />
      <path
         style="fill:#000000;fill-opacity:1;fill-rule:nonzero;stroke:none"
         d="m 290.45312,136.39844 c 0.35157,0 0.69141,0.0859 1.02344,0.25781 0.33985,0.16797 0.59766,0.38281 0.76953,0.64062 0.16797,0.25391 0.28125,0.55079 0.33985,0.89454 0.0547,0.22656 0.0859,0.58984 0.0859,1.08593 h -3.66796 c 0.008,0.51172 0.13281,0.92969 0.36328,1.23828 0.22265,0.29688 0.57422,0.44922 1.04297,0.44922 0.42578,0 0.77343,-0.14062 1.04296,-0.42968 0.14063,-0.16797 0.2461,-0.36719 0.32032,-0.59375 h 0.8125 c -0.0156,0.18359 -0.0859,0.39453 -0.21485,0.61718 -0.11718,0.23047 -0.25,0.41407 -0.40234,0.55469 -0.25781,0.25391 -0.57813,0.42578 -0.96094,0.51172 -0.20312,0.043 -0.42578,0.0625 -0.68359,0.0625 -0.61328,0 -1.14063,-0.21875 -1.57813,-0.66016 -0.42578,-0.45312 -0.64062,-1.09375 -0.64062,-1.91797 0,-0.79687 0.21484,-1.4414 0.64062,-1.9414 0.4375,-0.51172 1.00782,-0.76953 1.70703,-0.76953 z m 1.34375,2.21875 c -0.0312,-0.35157 -0.10937,-0.64453 -0.23437,-0.875 -0.23047,-0.39453 -0.61328,-0.59375 -1.15234,-0.59375 -0.38282,0 -0.71485,0.14062 -0.98047,0.42187 -0.25391,0.27344 -0.39453,0.6211 -0.40625,1.04688 z m 0,0"
         id="path191"
         inkscape:connector-curvature="0" />
      <path
         style="fill:#000000;fill-opacity:1;fill-rule:nonzero;stroke:none"
         d="m 293.72656,136.52734 h 0.78906 v 0.85547 c 0.0664,-0.17187 0.23438,-0.375 0.48829,-0.62109 0.25781,-0.23828 0.54296,-0.36328 0.875,-0.36328 0.0117,0 0.043,0.0117 0.0859,0.0234 0.043,0 0.10547,0.008 0.19141,0.0195 v 0.875 c -0.0586,-0.0117 -0.10547,-0.0195 -0.14844,-0.0195 -0.0312,0 -0.0742,0 -0.1289,0 -0.42579,0 -0.75782,0.13672 -0.98047,0.40235 -0.23047,0.27344 -0.33985,0.58984 -0.33985,0.9414 v 2.875 h -0.83203 z m 0,0"
         id="path193"
         inkscape:connector-curvature="0" />
      <path
         style="fill:#000000;fill-opacity:1;fill-rule:nonzero;stroke:none"
         d="m 296.89062,136.54687 h 0.85547 v 4.96875 h -0.85547 z m 0,-1.875 h 0.85547 v 0.94141 h -0.85547 z m 0,0"
         id="path195"
         inkscape:connector-curvature="0" />
      <path
         style="fill:#000000;fill-opacity:1;fill-rule:nonzero;stroke:none"
         d="m 299.01953,136.52734 h 0.78906 v 0.70313 c 0.23828,-0.29688 0.48828,-0.51172 0.7461,-0.63672 0.26562,-0.12891 0.5664,-0.19531 0.89453,-0.19531 0.71094,0 1.18359,0.2539 1.42969,0.75 0.13671,0.26953 0.21484,0.66015 0.21484,1.17187 v 3.19531 h -0.85547 v -3.15625 c 0,-0.29687 -0.0508,-0.53515 -0.14844,-0.72265 -0.14453,-0.3086 -0.41406,-0.46875 -0.80859,-0.46875 -0.20313,0 -0.36328,0.0195 -0.49219,0.0625 -0.23047,0.0742 -0.42578,0.21094 -0.59765,0.40625 -0.14454,0.17187 -0.23438,0.33984 -0.27735,0.51172 -0.043,0.17187 -0.0625,0.42187 -0.0625,0.74609 v 2.62109 h -0.83203 z m 0,0"
         id="path197"
         inkscape:connector-curvature="0" />
      <path
         style="fill:#000000;fill-opacity:1;fill-rule:nonzero;stroke:none"
         d="m 306.10937,136.44141 c 0.38282,0 0.72266,0.0977 1.02344,0.27734 0.15235,0.11719 0.3086,0.27344 0.46875,0.46875 v -0.61719 h 0.78906 v 4.54297 c 0,0.64063 -0.0976,1.13281 -0.27734,1.49219 -0.35547,0.68359 -1.01953,1.02344 -1.98437,1.02344 -0.54297,0 -0.9961,-0.125 -1.36329,-0.36329 -0.35546,-0.24609 -0.55468,-0.61718 -0.59765,-1.1289 h 0.85156 c 0.0273,0.22265 0.10938,0.39453 0.23828,0.51172 0.17969,0.19531 0.47656,0.29687 0.89453,0.29687 0.64063,0 1.05469,-0.22656 1.25782,-0.67969 0.1289,-0.27343 0.17968,-0.7539 0.16796,-1.45312 -0.16796,0.25781 -0.375,0.44922 -0.61718,0.57812 -0.22657,0.125 -0.53125,0.19141 -0.91797,0.19141 -0.55078,0 -1.03906,-0.19141 -1.44922,-0.57812 -0.39844,-0.38282 -0.59766,-1.02344 -0.59766,-1.91797 0,-0.82032 0.20313,-1.46875 0.6211,-1.9375 0.41015,-0.47266 0.90625,-0.70703 1.49218,-0.70703 z M 307.60156,139 c 0,-0.62109 -0.1289,-1.08594 -0.38281,-1.38281 -0.24609,-0.30078 -0.56641,-0.44922 -0.96094,-0.44922 -0.59765,0 -1,0.27734 -1.21484,0.83203 -0.11719,0.29687 -0.17188,0.69141 -0.17188,1.17187 0,0.55469 0.11328,0.98047 0.34375,1.28125 0.22266,0.29688 0.53125,0.44532 0.91407,0.44532 0.60937,0 1.03515,-0.27735 1.28125,-0.83203 0.1289,-0.29688 0.1914,-0.64844 0.1914,-1.06641 z m 0,0"
         id="path199"
         inkscape:connector-curvature="0" />
      <g
         clip-path="url(#clip8)"
         id="g203"
         style="clip-rule:nonzero">
        <path
           style="fill:#000000;fill-opacity:1;fill-rule:nonzero;stroke:none"
           d="M 5.714844,0.339844 C 5.359375,1.011719 5.128906,1.507812 5.03125,1.832031 4.875,2.316406 4.796875,2.875 4.796875,3.515625 c 0,0.640625 0.085937,1.230469 0.257813,1.769531 0.113281,0.328125 0.332031,0.796875 0.660156,1.410156 H 5.308594 C 4.980469,6.191406 4.78125,5.875 4.714844,5.734375 4.640625,5.589844 4.554688,5.398438 4.457031,5.160156 4.328125,4.832031 4.246094,4.488281 4.203125,4.113281 4.167969,3.917969 4.160156,3.730469 4.160156,3.558594 4.160156,2.910156 4.265625,2.316406 4.480469,1.789062 4.605469,1.464844 4.875,0.980469 5.289062,0.339844 Z m 0,0"
           id="path201"
           inkscape:connector-curvature="0" />
      </g>
      <g
         clip-path="url(#clip9)"
         id="g207"
         style="clip-rule:nonzero">
        <path
           style="fill:#000000;fill-opacity:1;fill-rule:nonzero;stroke:none"
           d="m 6.417969,1.746094 h 0.597656 v 3.5625 H 6.417969 Z m 0,-1.34375 H 7.015625 V 1.085938 H 6.417969 Z m 0,0"
           id="path205"
           inkscape:connector-curvature="0" />
      </g>
      <g
         clip-path="url(#clip10)"
         id="g211"
         style="clip-rule:nonzero">
        <path
           style="fill:#000000;fill-opacity:1;fill-rule:nonzero;stroke:none"
           d="M 7.726562,6.695312 C 8.078125,6.011719 8.304688,5.511719 8.40625,5.199219 8.5625,4.722656 8.640625,4.15625 8.640625,3.515625 8.640625,2.875 8.546875,2.292969 8.363281,1.746094 8.261719,1.421875 8.050781,0.953125 7.726562,0.339844 h 0.402344 c 0.34375,0.542968 0.546875,0.875 0.621094,1 C 8.816406,1.46875 8.898438,1.652344 8.980469,1.875 9.078125,2.148438 9.152344,2.421875 9.195312,2.707031 9.25,2.980469 9.28125,3.234375 9.28125,3.472656 c 0,0.65625 -0.105469,1.25 -0.320312,1.773438 C 8.832031,5.570312 8.5625,6.054688 8.152344,6.695312 Z m 0,0"
           id="path209"
           inkscape:connector-curvature="0" />
      </g>
      <g
         clip-path="url(#clip11)"
         id="g215"
         style="clip-rule:nonzero">
        <path
           style="fill:#000000;fill-opacity:1;fill-rule:nonzero;stroke:none"
           d="m 195.05469,0.339844 c -0.35938,0.671875 -0.58594,1.167968 -0.6836,1.492187 -0.16015,0.484375 -0.23437,1.042969 -0.23437,1.683594 0,0.640625 0.0859,1.230469 0.25781,1.769531 0.10938,0.328125 0.32813,0.796875 0.66016,1.410156 h -0.40625 C 194.31641,6.191406 194.12109,5.875 194.05078,5.734375 c -0.0742,-0.144531 -0.16016,-0.335937 -0.25391,-0.574219 -0.1289,-0.328125 -0.21484,-0.671875 -0.25781,-1.046875 -0.0312,-0.195312 -0.043,-0.382812 -0.043,-0.554687 0,-0.648438 0.10547,-1.242188 0.32032,-1.769532 0.1289,-0.324218 0.39453,-0.808593 0.80859,-1.449218 z m 0,0"
           id="path213"
           inkscape:connector-curvature="0" />
      </g>
      <g
         clip-path="url(#clip12)"
         id="g219"
         style="clip-rule:nonzero">
        <path
           style="fill:#000000;fill-opacity:1;fill-rule:nonzero;stroke:none"
           d="m 195.75781,1.746094 h 0.59766 v 3.5625 h -0.59766 z m 0,-1.34375 h 0.59766 v 0.683594 h -0.59766 z m 0,0"
           id="path217"
           inkscape:connector-curvature="0" />
      </g>
      <g
         clip-path="url(#clip13)"
         id="g223"
         style="clip-rule:nonzero">
        <path
           style="fill:#000000;fill-opacity:1;fill-rule:nonzero;stroke:none"
           d="m 197.27734,1.746094 h 0.59375 v 3.5625 h -0.59375 z m 0,-1.34375 h 0.59375 v 0.683594 h -0.59375 z m 0,0"
           id="path221"
           inkscape:connector-curvature="0" />
      </g>
      <g
         clip-path="url(#clip14)"
         id="g227"
         style="clip-rule:nonzero">
        <path
           style="fill:#000000;fill-opacity:1;fill-rule:nonzero;stroke:none"
           d="m 198.58203,6.695312 c 0.35156,-0.683593 0.58203,-1.183593 0.68359,-1.496093 C 199.41797,4.722656 199.5,4.15625 199.5,3.515625 c 0,-0.640625 -0.0977,-1.222656 -0.27734,-1.769531 -0.10157,-0.324219 -0.31641,-0.792969 -0.64063,-1.40625 h 0.40625 c 0.33984,0.542968 0.54297,0.875 0.61719,1 0.0703,0.128906 0.14844,0.3125 0.23437,0.535156 0.0977,0.273438 0.17188,0.546875 0.21485,0.832031 0.0508,0.273438 0.0859,0.527344 0.0859,0.765625 0,0.65625 -0.10937,1.25 -0.32031,1.773438 -0.1289,0.324218 -0.40234,0.808594 -0.8125,1.449218 z m 0,0"
           id="path225"
           inkscape:connector-curvature="0" />
      </g>
      <g
         clip-path="url(#clip15)"
         id="g231"
         style="clip-rule:nonzero">
        <use
           xlink:href="#surface795"
           transform="translate(200,12)"
           id="use229"
           x="0"
           y="0"
           width="100%"
           height="100%" />
      </g>
      <path
         style="fill:#000000;fill-opacity:1;fill-rule:evenodd;stroke:#000000;stroke-width:0.24943;stroke-linecap:butt;stroke-linejoin:miter;stroke-miterlimit:4;stroke-opacity:1"
         d="m 286.17578,-138.32422 119.22266,-0.5039"
         transform="matrix(1,0,0,-1,-81,-11)"
         id="path233"
         inkscape:connector-curvature="0" />
      <path
         style="fill:#000000;fill-opacity:1;fill-rule:evenodd;stroke:#000000;stroke-width:0.266056;stroke-linecap:butt;stroke-linejoin:miter;stroke-miterlimit:4;stroke-opacity:1"
         d="m -403.48576,137.10335 1.00035,-0.99965 -3.49643,0.99684 3.49182,1.00314 z m 0,0"
         transform="matrix(-1,-0.00425532,-0.00425532,1,-81,-11)"
         id="path235"
         inkscape:connector-curvature="0" />
      <path
         style="fill:none;stroke:#000000;stroke-width:0.24943;stroke-linecap:butt;stroke-linejoin:miter;stroke-miterlimit:4;stroke-opacity:1"
         d="M 281.44141,-133.94922 V -28.054688"
         transform="matrix(1,0,0,-1,-81,-11)"
         id="path237"
         inkscape:connector-curvature="0" />
      <path
         style="fill:#000000;fill-opacity:1;fill-rule:evenodd;stroke:#000000;stroke-width:0.26605901;stroke-linecap:butt;stroke-linejoin:miter;stroke-miterlimit:4;stroke-opacity:1"
         d="m 30.550899,281.44139 0.996093,-0.99609 -3.492187,0.99609 3.492188,1 z m 0,0"
         transform="matrix(4.18879e-7,1,1,-4.18879e-7,-81,-11)"
         id="path239"
         inkscape:connector-curvature="0" />
      <path
         style="fill:#000000;fill-opacity:1;fill-rule:nonzero;stroke:none"
         d="m 194.8125,28.585938 c 0.28906,-0.01172 0.52344,-0.07422 0.70703,-0.191407 0.33984,-0.226562 0.51172,-0.628906 0.51172,-1.214843 0,-0.257813 -0.043,-0.492188 -0.12891,-0.703126 -0.14062,-0.414062 -0.39453,-0.621093 -0.76953,-0.621093 -0.26562,0 -0.46875,0.08594 -0.59765,0.257812 -0.10938,0.171875 -0.21094,0.449219 -0.29688,0.832031 L 194.08984,27.625 c -0.0977,0.460938 -0.21484,0.777344 -0.34375,0.960938 -0.21093,0.328124 -0.53125,0.488281 -0.95703,0.488281 -0.45312,0 -0.83203,-0.152344 -1.1289,-0.464844 -0.30079,-0.328125 -0.44922,-0.78125 -0.44922,-1.367187 0,-0.523438 0.13672,-0.96875 0.40234,-1.34375 0.25781,-0.382813 0.67578,-0.574219 1.23828,-0.574219 v 0.640625 c -0.28125,0.03906 -0.49609,0.121094 -0.64062,0.234375 -0.26563,0.210937 -0.40235,0.570312 -0.40235,1.0625 0,0.417969 0.0937,0.714843 0.27735,0.898437 0.16797,0.171875 0.37109,0.253906 0.59765,0.253906 0.24219,0 0.41797,-0.105468 0.53125,-0.316406 0.0859,-0.128906 0.17969,-0.433594 0.27735,-0.917968 l 0.16797,-0.726563 c 0.0859,-0.339844 0.19531,-0.601563 0.32421,-0.789063 0.24219,-0.324218 0.58985,-0.488281 1.04297,-0.488281 0.57032,0 0.97657,0.207031 1.21485,0.617188 0.24218,0.414062 0.36328,0.890625 0.36328,1.429687 0,0.636719 -0.16016,1.140625 -0.49219,1.492188 -0.30859,0.355468 -0.74609,0.53125 -1.30078,0.53125 z m 0,0"
         id="path241"
         inkscape:connector-curvature="0" />
      <path
         style="fill:#000000;fill-opacity:1;fill-rule:nonzero;stroke:none"
         d="m 191.33984,24.304688 v -0.832032 l 4.13672,-2.578125 h -4.13672 v -0.660156 h 5.11719 v 0.789063 l -4.13672,2.621093 h 4.13672 v 0.660157 z m 0,0"
         id="path243"
         inkscape:connector-curvature="0" />
      <path
         style="fill:#000000;fill-opacity:1;fill-rule:nonzero;stroke:none"
         d="m 193.68359,16.773438 c 0,-0.324219 -0.0625,-0.582032 -0.1914,-0.769532 -0.12891,-0.179687 -0.36328,-0.277344 -0.70313,-0.277344 -0.35156,0 -0.60547,0.128907 -0.74609,0.386719 -0.0703,0.144531 -0.10547,0.335938 -0.10547,0.574219 v 1.6875 h 1.74609 z m -2.34375,2.300781 v -2.363281 c 0,-0.394532 0.0586,-0.714844 0.16797,-0.960938 0.23047,-0.480469 0.63672,-0.722656 1.21485,-0.722656 0.3164,0 0.57031,0.0625 0.76953,0.1875 0.1875,0.128906 0.33593,0.3125 0.44922,0.535156 0.082,-0.199219 0.19921,-0.347656 0.33984,-0.445312 0.12891,-0.113282 0.33594,-0.171876 0.61719,-0.171876 l 0.70312,-0.04297 c 0.1875,0 0.33203,-0.01172 0.42969,-0.04297 0.15625,-0.04297 0.26562,-0.113281 0.31641,-0.214844 h 0.10937 v 0.832031 c -0.043,0.03125 -0.0977,0.05469 -0.17187,0.0625 -0.0703,0.01953 -0.20313,0.03516 -0.40625,0.04297 l -0.85157,0.04687 c -0.32422,0.01172 -0.54297,0.136719 -0.66015,0.359375 -0.0703,0.128907 -0.10938,0.335938 -0.10938,0.617188 V 18.375 h 2.19922 v 0.699219 z m 0,0"
         id="path245"
         inkscape:connector-curvature="0" />
      <path
         style="fill:#000000;fill-opacity:1;fill-rule:nonzero;stroke:none"
         d="m 204.05078,132.48047 c 0.65234,0 1.12109,0.27344 1.40625,0.8125 0.22656,0.41406 0.34375,0.97265 0.34375,1.68359 0,0.6836 -0.10547,1.2461 -0.32031,1.6836 -0.28906,0.6289 -0.76172,0.9375 -1.42969,0.9375 -0.59766,0 -1.03906,-0.25391 -1.32031,-0.76563 -0.25781,-0.4375 -0.38281,-1.02344 -0.38281,-1.75 0,-0.5625 0.0703,-1.04687 0.23437,-1.44922 0.26563,-0.76562 0.75391,-1.15234 1.46875,-1.15234 z m 0,4.5664 c 0.32422,0 0.58203,-0.14062 0.76953,-0.42968 0.19531,-0.29688 0.29688,-0.83594 0.29688,-1.61719 0,-0.56641 -0.0742,-1.03125 -0.21094,-1.38672 -0.14453,-0.37109 -0.41797,-0.55469 -0.8125,-0.55469 -0.37109,0 -0.64063,0.17969 -0.80859,0.53125 -0.17188,0.33985 -0.25782,0.84766 -0.25782,1.51563 0,0.51172 0.0547,0.92578 0.17188,1.23437 0.17187,0.47266 0.45312,0.70703 0.85156,0.70703 z m 0,0"
         id="path247"
         inkscape:connector-curvature="0" />
      <path
         style="fill:#000000;fill-opacity:1;fill-rule:nonzero;stroke:none"
         d="m 206.71875,136.70312 h 0.72266 v 0.76954 h -0.72266 z m 0,0"
         id="path249"
         inkscape:connector-curvature="0" />
      <path
         style="fill:#000000;fill-opacity:1;fill-rule:nonzero;stroke:none"
         d="m 209.98828,132.48047 c 0.65234,0 1.12109,0.27344 1.41016,0.8125 0.22265,0.41406 0.33984,0.97265 0.33984,1.68359 0,0.6836 -0.10547,1.2461 -0.32031,1.6836 -0.28906,0.6289 -0.76172,0.9375 -1.42969,0.9375 -0.59375,0 -1.03906,-0.25391 -1.32031,-0.76563 -0.25781,-0.4375 -0.38281,-1.02344 -0.38281,-1.75 0,-0.5625 0.0742,-1.04687 0.23437,-1.44922 0.26563,-0.76562 0.75781,-1.15234 1.46875,-1.15234 z m 0,4.5664 c 0.32813,0 0.58203,-0.14062 0.76953,-0.42968 0.19531,-0.29688 0.29688,-0.83594 0.29688,-1.61719 0,-0.56641 -0.0742,-1.03125 -0.21094,-1.38672 -0.14453,-0.37109 -0.41797,-0.55469 -0.8125,-0.55469 -0.37109,0 -0.63672,0.17969 -0.80859,0.53125 -0.17188,0.33985 -0.25782,0.84766 -0.25782,1.51563 0,0.51172 0.0547,0.92578 0.17188,1.23437 0.17187,0.47266 0.45312,0.70703 0.85156,0.70703 z m 0,0"
         id="path251"
         inkscape:connector-curvature="0" />
      <path
         style="fill:#000000;fill-opacity:1;fill-rule:nonzero;stroke:none"
         d="m 190.73437,118.54688 c 0,0.65234 0.27344,1.12109 0.8125,1.41015 0.41407,0.22266 0.97266,0.33985 1.6836,0.33985 0.68359,0 1.24609,-0.10547 1.68359,-0.32032 0.62891,-0.28906 0.9375,-0.76172 0.9375,-1.42968 0,-0.59766 -0.2539,-1.03907 -0.76562,-1.32032 -0.4375,-0.2539 -1.02344,-0.38281 -1.75,-0.38281 -0.5625,0 -1.04688,0.0742 -1.44922,0.23438 -0.76563,0.26562 -1.15235,0.7539 -1.15235,1.46875 z m 4.56641,0 c 0,0.32812 -0.14062,0.58203 -0.42969,0.76953 -0.29687,0.19531 -0.83593,0.29687 -1.61718,0.29687 -0.56641,0 -1.03125,-0.0742 -1.38672,-0.21094 -0.3711,-0.14453 -0.55469,-0.41796 -0.55469,-0.8125 0,-0.37109 0.17969,-0.64062 0.53125,-0.80859 0.33984,-0.17187 0.84766,-0.25781 1.51562,-0.25781 0.51172,0 0.92579,0.0547 1.23438,0.17187 0.47266,0.17188 0.70703,0.45313 0.70703,0.85157 z m 0,0"
         id="path253"
         inkscape:connector-curvature="0" />
      <path
         style="fill:#000000;fill-opacity:1;fill-rule:nonzero;stroke:none"
         d="m 194.95703,121.20703 h 0.76953 v 0.72656 h -0.76953 z m 0,0"
         id="path255"
         inkscape:connector-curvature="0" />
      <path
         style="fill:#000000;fill-opacity:1;fill-rule:nonzero;stroke:none"
         d="m 190.73437,124.48438 c 0,0.65234 0.27344,1.12109 0.8125,1.41015 0.41407,0.22266 0.97266,0.33985 1.6836,0.33985 0.68359,0 1.24609,-0.10547 1.68359,-0.32032 0.62891,-0.28906 0.9375,-0.76172 0.9375,-1.42968 0,-0.59375 -0.2539,-1.03516 -0.76562,-1.32032 -0.4375,-0.2539 -1.02344,-0.38281 -1.75,-0.38281 -0.5625,0 -1.04688,0.0742 -1.44922,0.23438 -0.76563,0.26562 -1.15235,0.75781 -1.15235,1.46875 z m 4.56641,0 c 0,0.32812 -0.14062,0.58203 -0.42969,0.76953 -0.29687,0.19922 -0.83593,0.30078 -1.61718,0.30078 -0.56641,0 -1.03125,-0.0781 -1.38672,-0.21485 -0.3711,-0.14453 -0.55469,-0.41796 -0.55469,-0.80859 0,-0.375 0.17969,-0.64062 0.53125,-0.8125 0.33984,-0.17187 0.84766,-0.25781 1.51562,-0.25781 0.51172,0 0.92579,0.0547 1.23438,0.17187 0.47266,0.17188 0.70703,0.45313 0.70703,0.85157 z m 0,0"
         id="path257"
         inkscape:connector-curvature="0" />
      <path
         style="fill:none;stroke:#000000;stroke-width:0.22055499;stroke-linecap:butt;stroke-linejoin:miter;stroke-miterlimit:4;stroke-opacity:1"
         d="m 279.30469,-133.94922 h 2.13672"
         transform="matrix(1,0,0,-1,-81,-11)"
         id="path259"
         inkscape:connector-curvature="0" />
      <path
         style="fill:none;stroke:#000000;stroke-width:0.243202;stroke-linecap:butt;stroke-linejoin:miter;stroke-miterlimit:4;stroke-opacity:1"
         d="m 286.42578,-138.57812 v -2.13672"
         transform="matrix(1,0,0,-1,-81,-11)"
         id="path261"
         inkscape:connector-curvature="0" />
      <g
         clip-path="url(#clip20)"
         id="g265"
         style="clip-rule:nonzero">
        <path
           style="fill:none;stroke:#000000;stroke-width:0.35632801;stroke-linecap:round;stroke-linejoin:round;stroke-miterlimit:10;stroke-opacity:1"
           d="m 288.30469,-133.53125 2.37109,0.36328 2.375,0.66016 2.375,0.85547 2.37109,1.02343 2.37891,1.14063 2.37109,1.27344 2.375,1.38281 2.3711,1.48828 2.3789,1.57812 2.375,1.66797 2.375,1.76172 2.3711,1.83985 2.375,1.91015 2.375,1.9961 2.37109,2.0664 2.37891,2.13281 2.37109,2.20704 2.37891,2.26953 2.37109,2.33593 2.3711,2.39454 2.3789,2.449215 2.3711,2.519531 2.3789,2.566406 2.3711,2.640626 2.3789,2.679687 2.3711,2.734375 2.37109,2.792969 2.37891,2.84375 2.37109,2.898437 2.37891,2.941406 2.37109,3 2.37891,3.039063 2.37109,3.097656 2.37109,3.144531 2.37891,3.183594 2.37109,3.230469 2.375,3.273437 2.375,3.324219 2.375,3.363281 2.375,3.410157 2.375,3.445312 2.375,3.496094 2.3711,3.535156 2.375,3.578125"
           transform="matrix(1,0,0,-1,-81,-11)"
           id="path263"
           inkscape:connector-curvature="0" />
      </g>
      <path
         style="fill:#000000;fill-opacity:1;fill-rule:evenodd;stroke:none"
         d="M 78.121094,73.648438 V 73.53125 l -0.0078,-0.109375 -0.01172,-0.117187 -0.0078,-0.113282 -0.03125,-0.214844 -0.02344,-0.105468 -0.02734,-0.101563 -0.02734,-0.09375 -0.03125,-0.09766 -0.03125,-0.08984 -0.04297,-0.08984 -0.08594,-0.171876 -0.05078,-0.07812 -0.109376,-0.152344 -0.05859,-0.06641 -0.0625,-0.06641 -0.136719,-0.117187 -0.15625,-0.101563 -0.08203,-0.04297 -0.08594,-0.03516 -0.179687,-0.06641 -0.09375,-0.01953 -0.101563,-0.02344 -0.214843,-0.01953 h -0.109376 c -1.035156,0 -1.910156,0.832031 -1.980468,0.890625 -0.792969,0.789063 -1.089844,1.679687 -1.089844,1.699219 0,0.05859 0.04687,0.07422 0.09766,0.07422 0.1875,0 0.347656,-0.101562 0.496094,-0.210937 0.175781,-0.128906 0.191406,-0.160156 0.300781,-0.390625 0.08203,-0.195312 0.316407,-0.683594 0.679688,-1.101562 0.242187,-0.269532 0.4375,-0.417969 0.839843,-0.417969 0.964844,0 1.574219,0.800781 1.574219,2.101562 0,2.023438 -1.4375,4.035157 -3.277343,4.035157 -1.410157,0 -2.183594,-1.128907 -2.183594,-2.546876 0,-1.347656 0.695312,-2.84375 2.148437,-3.699218 0.09375,-0.05859 0.394531,-0.234375 0.394531,-0.371094 0,-0.0625 -0.07422,-0.0625 -0.09766,-0.0625 -0.34375,0 -3.289062,1.578125 -3.289062,4.5625 0,1.386719 0.726562,2.660156 2.375,2.660156 1.9375,0 4.78125,-1.949218 4.78125,-5.011718 z m 0,0"
         id="path267"
         inkscape:connector-curvature="0" />
      <path
         style="fill:#000000;fill-opacity:1;fill-rule:evenodd;stroke:none"
         d="m 81.871094,80.824219 v -0.01563 h -0.0039 v -0.01563 l -0.01172,-0.01172 v -0.0039 l -0.01172,-0.01172 -0.0039,-0.01172 -0.01172,-0.0078 v -0.0078 l -0.0039,-0.0039 h -0.0039 v -0.0078 l -0.01172,-0.0078 v -0.0078 l -0.01172,-0.0078 h -0.0039 l -0.0078,-0.01172 -0.04687,-0.04687 -0.0039,-0.0078 -0.03125,-0.03125 c -1.238281,-1.253907 -1.558594,-3.128907 -1.558594,-4.648438 0,-1.726562 0.378907,-3.457031 1.601563,-4.699219 0.125,-0.117187 0.125,-0.140624 0.125,-0.171874 0,-0.07031 -0.03516,-0.09766 -0.09375,-0.09766 -0.101563,0 -0.996094,0.671875 -1.578125,1.9375 -0.511719,1.089844 -0.628907,2.195313 -0.628907,3.03125 0,0.777344 0.105469,1.976563 0.65625,3.101563 0.589844,1.222656 1.449219,1.867187 1.550782,1.867187 0.05859,0 0.09375,-0.02734 0.09375,-0.101562 z m 0,0"
         id="path269"
         inkscape:connector-curvature="0" />
      <path
         style="fill:#000000;fill-opacity:1;fill-rule:evenodd;stroke:none"
         d="m 82.886719,79.652344 -0.01172,0.03125 -0.0078,0.03125 -0.0039,0.02734 -0.01172,0.02734 -0.0039,0.02734 -0.01172,0.04297 -0.0078,0.01953 -0.0078,0.02344 -0.01172,0.01563 -0.0039,0.01562 -0.03125,0.04688 -0.01172,0.01172 -0.01172,0.01563 -0.01563,0.0039 -0.03125,0.02344 -0.01563,0.0039 -0.01563,0.01172 -0.0625,0.01563 -0.02734,0.0039 h -0.03125 l -0.01172,0.0078 h -0.06641 l -0.01563,0.0039 h -0.109375 c -0.117187,0 -0.230468,0 -0.230468,0.1875 0,0.07813 0.05078,0.121094 0.128906,0.121094 0.269531,0 0.558594,-0.03125 0.835937,-0.03125 0.324219,0 0.667969,0.03125 0.984375,0.03125 0.05078,0 0.175782,0 0.175782,-0.203125 0,-0.105469 -0.09766,-0.105469 -0.234376,-0.105469 -0.5,0 -0.5,-0.07031 -0.5,-0.160156 0,-0.121094 0.414063,-1.738282 0.492188,-1.988282 0.125,0.289063 0.402344,0.640626 0.910156,0.640626 l -0.01172,-0.226563 c -0.65625,0 -0.78125,-0.824219 -0.78125,-0.878906 0,-0.01953 0,-0.04297 0.02734,-0.15625 l 0.488281,-1.953125 c 0.07031,-0.265625 0.335938,-0.542969 0.515626,-0.695313 0.347656,-0.308593 0.636718,-0.375 0.808593,-0.375 0.394531,0 0.632813,0.34375 0.632813,0.9375 0,0.582031 -0.324219,1.722657 -0.507813,2.105469 -0.335937,0.691406 -0.808593,1.015625 -1.183593,1.015625 l 0.01172,0.226563 c 1.152344,0 2.394532,-1.457032 2.394532,-2.917969 0,-0.929688 -0.566407,-1.585938 -1.324219,-1.585938 -0.496094,0 -0.96875,0.355469 -1.300781,0.746094 -0.09375,-0.539063 -0.523438,-0.746094 -0.886719,-0.746094 -0.460938,0 -0.652344,0.386719 -0.738281,0.5625 -0.179688,0.34375 -0.308594,0.933594 -0.308594,0.964844 0,0.101563 0.09766,0.101563 0.117187,0.101563 0.101563,0 0.105469,-0.01563 0.171875,-0.226563 0.167969,-0.707031 0.367188,-1.183594 0.722656,-1.183594 0.164063,0 0.308594,0.07813 0.308594,0.453125 0,0.234375 -0.03125,0.339844 -0.06641,0.511719 z m 0,0"
         id="path271"
         inkscape:connector-curvature="0" />
      <path
         style="fill:#000000;fill-opacity:1;fill-rule:evenodd;stroke:none"
         d="m 92.613281,73.28125 h 0.01953 l 0.02344,-0.0039 h 0.07031 l 0.0078,-0.0078 h 0.02734 l 0.02344,-0.0078 h 0.0078 l 0.01172,-0.0039 0.0039,-0.0078 0.02344,-0.01172 0.02734,-0.02734 v -0.0039 h 0.0039 l 0.0039,-0.01172 0.0078,-0.0039 v -0.0039 l 0.0039,-0.0078 v -0.0039 l 0.0039,-0.0039 v -0.02734 l 0.0078,-0.0078 v -0.02734 c 0,-0.167969 -0.160156,-0.167969 -0.277344,-0.167969 H 88.46875 c -0.113281,0 -0.277344,0 -0.277344,0.164063 0,0.175781 0.15625,0.175781 0.277344,0.175781 z m 0,0"
         id="path273"
         inkscape:connector-curvature="0" />
      <path
         style="fill:#000000;fill-opacity:1;fill-rule:evenodd;stroke:none"
         d="m 95.964844,70.429688 v -0.113282 l -0.0039,-0.0039 v -0.01172 l -0.0039,-0.0078 v -0.0078 l -0.01172,-0.0078 v -0.01172 l -0.0078,-0.0078 h -0.0039 l -0.0039,-0.0039 -0.01172,-0.0039 h -0.0039 l -0.01172,-0.0078 h -0.01563 l -0.0078,-0.0039 h -0.04297 l -0.0039,-0.0039 h -0.07422 c -0.441406,0.441406 -1.078124,0.445313 -1.359374,0.445313 v 0.25 c 0.164062,0 0.625,0 1.007812,-0.191407 v 3.542969 c 0,0.230469 0,0.324219 -0.699219,0.324219 h -0.261719 v 0.242187 c 0.125,-0.0039 0.980469,-0.02344 1.238282,-0.02344 0.21875,0 1.089844,0.01953 1.242187,0.02344 v -0.242187 h -0.261719 c -0.699218,0 -0.699218,-0.09375 -0.699218,-0.324219 z m 0,0"
         id="path275"
         inkscape:connector-curvature="0" />
      <path
         style="fill:#000000;fill-opacity:1;fill-rule:evenodd;stroke:none"
         d="m 100.98828,75.957031 v -0.226562 l -0.008,-0.08203 -0.008,-0.171876 -0.0117,-0.171874 -0.0156,-0.183594 -0.0234,-0.191406 -0.0273,-0.191407 -0.0312,-0.203125 -0.0352,-0.203125 -0.10157,-0.414062 -0.0586,-0.210938 -0.0703,-0.21875 -0.0781,-0.210937 -0.043,-0.101563 -0.043,-0.105469 -0.0508,-0.109374 -0.0508,-0.105469 c -0.597655,-1.21875 -1.453124,-1.867188 -1.55078,-1.867188 -0.05469,0 -0.09766,0.03906 -0.09766,0.09766 0,0.03125 0,0.05469 0.1875,0.230468 0.972656,0.980469 1.542966,2.5625 1.542966,4.640625 0,1.695313 -0.37109,3.449219 -1.60156,4.703125 -0.128906,0.117188 -0.128906,0.136719 -0.128906,0.164063 0,0.05859 0.04297,0.101562 0.09766,0.101562 0.09766,0 0.992188,-0.675781 1.58203,-1.941406 0.50391,-1.085937 0.625,-2.191406 0.625,-3.027344 z m 0,0"
         id="path277"
         inkscape:connector-curvature="0" />
      <path
         style="fill:#000000;fill-opacity:1;fill-rule:evenodd;stroke:none"
         d="m 325.57031,130.29687 v -0.0781 l -0.004,-0.0117 v -0.0547 l -0.008,-0.0117 v -0.0156 l -0.0156,-0.0312 -0.004,-0.004 -0.0156,-0.0234 -0.0234,-0.0117 -0.004,-0.004 h -0.0117 l -0.0156,-0.004 h -0.0117 l -0.004,-0.004 h -0.0469 l -0.0117,-0.008 h -0.10937 c -0.59375,0.58593 -1.4375,0.59765 -1.82032,0.59765 v 0.33594 c 0.22266,0 0.84375,0 1.34766,-0.26172 v 4.75 c 0,0.3125 0,0.42969 -0.93359,0.42969 h -0.34375 v 0.33594 c 0.16406,-0.008 1.30468,-0.0352 1.65625,-0.0352 0.28906,0 1.46093,0.0273 1.66406,0.0352 v -0.33594 h -0.35156 c -0.9336,0 -0.9336,-0.11719 -0.9336,-0.42969 z m 0,0"
         id="path279"
         inkscape:connector-curvature="0" />
      <g
         clip-path="url(#clip21)"
         id="g283"
         style="clip-rule:nonzero">
        <path
           style="fill:#000000;fill-opacity:1;fill-rule:nonzero;stroke:none"
           d="M 322.48047,138.29687 H 328 v -0.54296 h -5.51953"
           id="path281"
           inkscape:connector-curvature="0" />
      </g>
      <g
         clip-path="url(#clip22)"
         id="g287"
         style="clip-rule:nonzero">
        <path
           style="fill:#000000;fill-opacity:1;fill-rule:evenodd;stroke:none"
           d="m 323.05078,147.17578 -0.008,0.0273 -0.0195,0.0859 -0.008,0.0156 -0.004,0.0234 -0.0117,0.0312 -0.008,0.0156 -0.0117,0.0117 -0.0117,0.0156 -0.004,0.0117 -0.043,0.0391 -0.0117,0.008 -0.0156,0.0117 -0.0625,0.0195 -0.043,0.0117 h -0.0195 l -0.0195,0.004 h -0.0625 l -0.0156,0.004 h -0.0781 c -0.125,0 -0.25391,0 -0.25391,0.19922 0,0.10156 0.082,0.14062 0.12891,0.14062 0.24609,0 0.55469,-0.0391 0.80078,-0.0391 0.32031,0 0.67188,0.0391 0.98047,0.0391 0.0859,0 0.1875,-0.0273 0.1875,-0.20312 0,-0.13672 -0.13281,-0.13672 -0.24219,-0.13672 -0.21094,0 -0.45703,0 -0.45703,-0.10938 0,-0.0469 0.0625,-0.29297 0.10156,-0.42578 0.11328,-0.49609 0.23828,-1.0039 0.33985,-1.38672 0.11328,0.17969 0.40625,0.54297 0.96484,0.54297 v -0.2539 c -0.66016,0 -0.82422,-0.72266 -0.82422,-0.81641 0,-0.0391 0.0156,-0.10156 0.0195,-0.14063 l 0.46875,-1.875 c 0.53907,-0.71484 1.00782,-0.85156 1.3086,-0.85156 0.35937,0 0.67578,0.26953 0.67578,0.90625 0,0.375 -0.20313,1.32813 -0.48828,1.8711 -0.22657,0.45312 -0.6836,0.90625 -1.16016,0.90625 v 0.2539 c 1.13672,0 2.39453,-1.25781 2.39453,-2.64453 0,-1.08594 -0.75781,-1.55469 -1.39844,-1.55469 -0.57812,0 -1.07421,0.39063 -1.32421,0.65625 -0.15625,-0.53515 -0.67969,-0.65625 -0.96094,-0.65625 -0.36328,0 -0.58594,0.2461 -0.73438,0.4961 -0.1875,0.3125 -0.33203,0.875 -0.33203,0.92968 0,0.11719 0.12891,0.11719 0.15625,0.11719 0.13281,0 0.13672,-0.0234 0.20703,-0.27344 0.13672,-0.54687 0.3125,-1.00781 0.67969,-1.00781 0.24219,0 0.30469,0.20703 0.30469,0.45313 0,0.10547 -0.0195,0.22656 -0.0312,0.28125 z m 0,0"
           id="path285"
           inkscape:connector-curvature="0" />
      </g>
      <path
         style="fill:#000000;fill-opacity:1;fill-rule:evenodd;stroke:none"
         d="m 125.75781,130.21875 v -0.12891 l -0.004,-0.008 v -0.0312 l -0.008,-0.004 v -0.004 l -0.004,-0.0117 v -0.0117 l -0.008,-0.0117 -0.004,-0.004 -0.008,-0.0117 -0.008,-0.004 -0.0156,-0.0156 -0.0195,-0.0117 h -0.0117 l -0.0117,-0.004 h -0.0156 l -0.004,-0.008 h -0.0469 l -0.008,-0.004 h -0.10547 c -0.59765,0.59375 -1.44531,0.59766 -1.82422,0.59766 v 0.33594 c 0.22657,0 0.83985,0 1.34375,-0.26172 v 4.7539 c 0,0.3125 0,0.4336 -0.92578,0.4336 h -0.35156 v 0.33203 c 0.16406,-0.008 1.30859,-0.0391 1.65625,-0.0391 0.28906,0 1.46484,0.0312 1.66797,0.0391 v -0.33203 h -0.35547 c -0.93359,0 -0.93359,-0.1211 -0.93359,-0.4336 z m 0,0"
         id="path289"
         inkscape:connector-curvature="0" />
      <path
         style="fill:#000000;fill-opacity:1;fill-rule:nonzero;stroke:none"
         d="m 122.67188,138.21094 h 5.51562 v -0.54297 h -5.51562"
         id="path291"
         inkscape:connector-curvature="0" />
      <g
         clip-path="url(#clip23)"
         id="g295"
         style="clip-rule:nonzero">
        <path
           style="fill:#000000;fill-opacity:1;fill-rule:evenodd;stroke:none"
           d="m 123.24219,147.09375 -0.008,0.0234 -0.0195,0.0859 -0.0117,0.0195 -0.004,0.0195 -0.0156,0.0469 -0.0117,0.0156 -0.004,0.0117 -0.0117,0.0156 -0.004,0.0117 -0.0234,0.0195 -0.0117,0.008 -0.0156,0.0117 -0.008,0.004 -0.0156,0.004 -0.0195,0.0117 -0.0156,0.004 -0.0195,0.008 h -0.0156 l -0.0234,0.004 h -0.0156 l -0.008,0.004 h -0.0391 l -0.0117,0.008 h -0.1211 c -0.1289,0 -0.25781,0 -0.25781,0.19531 0,0.10937 0.0859,0.14453 0.12891,0.14453 0.24609,0 0.55468,-0.0352 0.80468,-0.0352 0.32032,0 0.66797,0.0352 0.98047,0.0352 0.082,0 0.1875,-0.0312 0.1875,-0.20703 0,-0.13281 -0.13281,-0.13281 -0.23828,-0.13281 -0.21484,0 -0.46484,0 -0.46484,-0.10547 0,-0.0508 0.0703,-0.29688 0.10547,-0.4336 0.11328,-0.49609 0.24218,-0.99609 0.34375,-1.38671 0.10937,0.1875 0.39843,0.54296 0.95703,0.54296 v -0.2539 c -0.66016,0 -0.82422,-0.72266 -0.82422,-0.8125 0,-0.0352 0.0156,-0.10547 0.0234,-0.14063 L 125,142.96484 c 0.54297,-0.71875 1.01172,-0.85547 1.30469,-0.85547 0.36328,0 0.68359,0.27735 0.68359,0.90625 0,0.38282 -0.20703,1.33204 -0.48437,1.875 -0.23438,0.45313 -0.69141,0.90235 -1.16797,0.90235 v 0.2539 c 1.13672,0 2.39844,-1.25781 2.39844,-2.64062 0,-1.08984 -0.75782,-1.55469 -1.39454,-1.55469 -0.58203,0 -1.07812,0.38672 -1.32812,0.65235 -0.16016,-0.53516 -0.68359,-0.65235 -0.96094,-0.65235 -0.36328,0 -0.58594,0.24219 -0.73437,0.49219 -0.1875,0.32031 -0.33594,0.875 -0.33594,0.93359 0,0.1211 0.12891,0.1211 0.16016,0.1211 0.125,0 0.13671,-0.0312 0.20312,-0.28125 0.13672,-0.54688 0.32031,-1.00782 0.67969,-1.00782 0.24219,0 0.30469,0.20704 0.30469,0.45704 0,0.10156 -0.0156,0.22656 -0.0273,0.27734 z m 0,0"
           id="path293"
           inkscape:connector-curvature="0" />
      </g>
      <path
         style="fill:#000000;fill-opacity:1;fill-rule:evenodd;stroke:none"
         d="m 252.60547,42.640625 -0.004,-0.109375 v -0.113281 l -0.0234,-0.210938 -0.0312,-0.203125 -0.0391,-0.191406 -0.0273,-0.09766 -0.0312,-0.08984 -0.0703,-0.171875 -0.043,-0.08594 -0.043,-0.07422 -0.0508,-0.07813 -0.0469,-0.07031 -0.0508,-0.07031 -0.0547,-0.0625 -0.0625,-0.0625 -0.0664,-0.05859 -0.0625,-0.05078 -0.0742,-0.05078 -0.15235,-0.08594 -0.0781,-0.03906 -0.0859,-0.03125 -0.0898,-0.02734 -0.17969,-0.04297 -0.20312,-0.01563 -0.10938,-0.0039 c -0.97656,0 -1.80469,0.789062 -1.875,0.847656 -0.75,0.746094 -1.02734,1.585937 -1.02734,1.609375 0,0.05469 0.043,0.06641 0.0898,0.06641 0.18359,0 0.33203,-0.09375 0.47266,-0.199218 0.16797,-0.125 0.17578,-0.148438 0.28515,-0.371094 0.0781,-0.183594 0.29688,-0.648438 0.64453,-1.042969 0.22266,-0.25 0.41407,-0.394531 0.79297,-0.394531 0.91016,0 1.49219,0.757812 1.49219,1.988281 0,1.917969 -1.36328,3.824219 -3.10547,3.824219 -1.33203,0 -2.07031,-1.066406 -2.07031,-2.410156 0,-1.28125 0.66016,-2.691407 2.03516,-3.507813 0.0937,-0.05469 0.375,-0.21875 0.375,-0.347656 0,-0.0625 -0.0742,-0.0625 -0.0898,-0.0625 -0.33203,0 -3.11719,1.496093 -3.11719,4.324219 0,1.316406 0.6875,2.515624 2.2461,2.515624 1.83984,0 4.53125,-1.839843 4.53125,-4.742187 z m 0,0"
         id="path297"
         inkscape:connector-curvature="0" />
      <path
         style="fill:#000000;fill-opacity:1;fill-rule:evenodd;stroke:none"
         d="m 256.15625,49.433594 v -0.01953 h -0.004 v -0.0078 l -0.004,-0.0039 v -0.0078 l -0.008,-0.0039 v -0.0039 l -0.004,-0.0078 V 49.375 l -0.0352,-0.03125 v -0.0078 l -0.0117,-0.0078 h -0.004 l -0.008,-0.0078 v -0.0039 l -0.0391,-0.03906 -0.008,-0.01563 -0.0117,-0.0039 -0.004,-0.0039 -0.008,-0.01172 -0.004,-0.0078 -0.0117,-0.0039 c -1.17188,-1.1875 -1.47657,-2.964844 -1.47657,-4.402344 0,-1.640625 0.35938,-3.277344 1.51563,-4.449219 0.12109,-0.117187 0.12109,-0.136718 0.12109,-0.167968 0,-0.0625 -0.0351,-0.08984 -0.0898,-0.08984 -0.0937,0 -0.94141,0.640625 -1.5,1.832031 -0.47656,1.035156 -0.58984,2.078125 -0.58984,2.875 0,0.730469 0.10156,1.867187 0.61718,2.929687 0.56641,1.164063 1.37891,1.773438 1.47266,1.773438 0.0547,0 0.0898,-0.02734 0.0898,-0.09766 z m 0,0"
         id="path299"
         inkscape:connector-curvature="0" />
      <path
         style="fill:#000000;fill-opacity:1;fill-rule:evenodd;stroke:none"
         d="m 257.11719,48.324219 -0.0117,0.03125 -0.0117,0.05469 -0.004,0.01953 -0.004,0.02734 -0.0117,0.02344 -0.0117,0.03906 -0.004,0.01953 -0.0117,0.01563 -0.0117,0.01953 -0.004,0.01563 -0.0234,0.02344 -0.008,0.01563 -0.0234,0.01953 -0.0156,0.01172 -0.0312,0.01172 -0.0156,0.01172 -0.0625,0.01172 h -0.0234 l -0.0156,0.0078 h -0.0273 l -0.0117,0.0039 h -0.0469 l -0.0156,0.0078 h -0.10547 c -0.11328,0 -0.21485,0 -0.21485,0.175781 0,0.07422 0.0469,0.109375 0.125,0.109375 0.25391,0 0.52735,-0.02344 0.78516,-0.02344 0.3125,0 0.63281,0.02344 0.93359,0.02344 0.0508,0 0.17188,0 0.17188,-0.183594 0,-0.101562 -0.0977,-0.101562 -0.23047,-0.101562 -0.46875,0 -0.46875,-0.07031 -0.46875,-0.148438 0,-0.117187 0.39453,-1.648437 0.46484,-1.890625 0.11719,0.273438 0.38282,0.605469 0.86329,0.605469 l -0.0117,-0.210938 c -0.61719,0 -0.73828,-0.777343 -0.73828,-0.835937 0,-0.01563 0,-0.03516 0.0234,-0.148437 l 0.46485,-1.84375 c 0.0625,-0.257813 0.32031,-0.515626 0.48437,-0.664063 0.33203,-0.289063 0.60938,-0.355469 0.76953,-0.355469 0.3711,0 0.59766,0.332032 0.59766,0.890625 0,0.546875 -0.3125,1.632813 -0.48047,1.992188 -0.32031,0.65625 -0.76953,0.964843 -1.12109,0.964843 l 0.0117,0.210938 c 1.09375,0 2.26562,-1.371094 2.26562,-2.757812 0,-0.886719 -0.53516,-1.503907 -1.24609,-1.503907 -0.47657,0 -0.92188,0.335938 -1.23438,0.707031 -0.0937,-0.507812 -0.5,-0.707031 -0.84765,-0.707031 -0.4336,0 -0.60938,0.363281 -0.69532,0.535157 -0.17187,0.320312 -0.29297,0.882812 -0.29297,0.917968 0,0.08984 0.0937,0.08984 0.10938,0.08984 0.0977,0 0.10937,-0.01172 0.16016,-0.21875 0.16796,-0.667969 0.34765,-1.121094 0.6875,-1.121094 0.16015,0 0.29296,0.07422 0.29296,0.433594 0,0.21875 -0.0312,0.316406 -0.0625,0.484375 z m 0,0"
         id="path301"
         inkscape:connector-curvature="0" />
      <path
         style="fill:#000000;fill-opacity:1;fill-rule:evenodd;stroke:none"
         d="m 266.32812,42.289062 h 0.0742 l 0.0117,-0.0039 h 0.0312 l 0.008,-0.0039 h 0.0234 l 0.0312,-0.01563 h 0.0117 l 0.004,-0.0078 0.0117,-0.0039 0.0273,-0.02734 v -0.0039 h 0.004 l 0.008,-0.01172 v -0.0039 l 0.004,-0.0078 v -0.0039 l 0.004,-0.0078 v -0.01563 l 0.008,-0.0078 v -0.03516 c 0,-0.164062 -0.15234,-0.164062 -0.26172,-0.164062 h -3.92578 c -0.10547,0 -0.25781,0 -0.25781,0.160156 0,0.164062 0.14844,0.164062 0.25781,0.164062 z m 0,0"
         id="path303"
         inkscape:connector-curvature="0" />
      <path
         style="fill:#000000;fill-opacity:1;fill-rule:evenodd;stroke:none"
         d="m 271.0625,39.40625 v -0.01172 l 0.004,-0.0039 v -0.01172 l 0.004,-0.0039 v -0.01563 l 0.008,-0.0039 v -0.02344 l 0.004,-0.0039 v -0.01953 l 0.004,-0.0039 v -0.0039 c 0,-0.03125 -0.0234,-0.08984 -0.10547,-0.08984 -0.13281,0 -0.67578,0.05078 -0.84375,0.0625 -0.0508,0.0039 -0.14063,0.01562 -0.14063,0.152343 0,0.09375 0.0899,0.09375 0.16797,0.09375 0.31641,0 0.31641,0.04687 0.31641,0.101563 0,0.04297 -0.0117,0.08594 -0.0274,0.144531 l -0.375,1.496094 c -0.13671,-0.214844 -0.35937,-0.382813 -0.67968,-0.382813 v 0.179688 c 0.46093,0 0.58984,0.5 0.58984,0.570312 0,0.02734 -0.0156,0.07422 -0.0195,0.09766 l -0.30859,1.222657 c -0.0469,0.1875 -0.19532,0.324219 -0.33594,0.449219 -0.0586,0.05078 -0.32813,0.261718 -0.60938,0.261718 -0.24609,0 -0.48047,-0.171875 -0.48047,-0.640625 0,-0.351562 0.19532,-1.070312 0.34375,-1.335937 0.30469,-0.527344 0.64063,-0.625 0.82032,-0.625 v -0.179688 c -0.83594,0 -1.69532,0.925782 -1.69532,1.871094 0,0.640625 0.42579,1.09375 0.9961,1.09375 0.35156,0 0.66797,-0.207031 0.93359,-0.460938 0.1211,0.394532 0.50391,0.460938 0.67578,0.460938 0.23438,0 0.39844,-0.144531 0.51563,-0.347656 0.15234,-0.257813 0.23828,-0.636719 0.23828,-0.660156 0,-0.08594 -0.0859,-0.08594 -0.10938,-0.08594 -0.0937,0 -0.10156,0.02734 -0.14062,0.199219 -0.082,0.324219 -0.21094,0.710937 -0.48047,0.710937 -0.17187,0 -0.21875,-0.144531 -0.21875,-0.324218 0,-0.121094 0.0156,-0.183594 0.0312,-0.269532 z m 0,0"
         id="path305"
         inkscape:connector-curvature="0" />
      <path
         style="fill:#000000;fill-opacity:1;fill-rule:evenodd;stroke:none"
         d="m 274.51953,39.136719 v -0.0078 l 0.004,-0.0039 v -0.0078 l 0.008,-0.0039 v -0.01172 l 0.004,-0.0039 v -0.0039 l 0.008,-0.0078 v -0.0039 l 0.004,-0.0039 v -0.01172 l 0.004,-0.0078 v -0.0039 l 0.008,-0.0039 v -0.02344 l 0.004,-0.0039 v -0.01563 c 0,-0.105468 -0.0859,-0.164062 -0.16406,-0.164062 -0.10938,0 -0.14063,0.07031 -0.17188,0.164062 l -2.45703,6.125 c -0.043,0.08594 -0.043,0.101563 -0.043,0.128907 0,0.09766 0.0899,0.164062 0.16016,0.164062 0.11328,0 0.14453,-0.08203 0.17578,-0.164062 z m 0,0"
         id="path307"
         inkscape:connector-curvature="0" />
      <path
         style="fill:#000000;fill-opacity:1;fill-rule:evenodd;stroke:none"
         d="m 278.40234,42.578125 h -0.22656 c -0.0195,0.144531 -0.082,0.539063 -0.16797,0.601563 -0.0547,0.03906 -0.5625,0.03906 -0.65234,0.03906 h -1.21485 c 0.69532,-0.613281 0.92188,-0.792969 1.31641,-1.105469 0.48438,-0.386719 0.94531,-0.796875 0.94531,-1.421875 0,-0.800781 -0.69922,-1.285156 -1.54297,-1.285156 -0.8125,0 -1.37109,0.570312 -1.37109,1.179688 0,0.335937 0.28516,0.367187 0.35547,0.367187 0.15234,0 0.34375,-0.113281 0.34375,-0.347656 0,-0.117188 -0.0469,-0.351563 -0.38672,-0.351563 0.19922,-0.464844 0.64844,-0.605468 0.95703,-0.605468 0.66016,0 1.00391,0.511718 1.00391,1.042968 0,0.570313 -0.40625,1.023438 -0.61719,1.261719 l -1.58984,1.566406 c -0.0664,0.05859 -0.0664,0.07813 -0.0664,0.257813 h 2.71094 z m 0,0"
         id="path309"
         inkscape:connector-curvature="0" />
      <path
         style="fill:#000000;fill-opacity:1;fill-rule:evenodd;stroke:none"
         d="m 282.03516,44.828125 v -0.07422 l -0.004,-0.07031 v -0.07422 l -0.008,-0.07813 -0.004,-0.15625 -0.008,-0.171875 -0.0195,-0.171875 -0.0391,-0.359375 -0.0703,-0.382813 -0.043,-0.199218 -0.0547,-0.195313 -0.0586,-0.199219 -0.0625,-0.203124 -0.0742,-0.203126 -0.043,-0.101562 -0.0391,-0.09766 -0.0469,-0.105469 -0.0508,-0.09375 c -0.5625,-1.15625 -1.3711,-1.769531 -1.46875,-1.769531 -0.0508,0 -0.0899,0.03906 -0.0899,0.08984 0,0.03125 0,0.05078 0.17969,0.21875 0.92187,0.925781 1.46094,2.425781 1.46094,4.398437 0,1.605469 -0.35157,3.261719 -1.51953,4.449219 -0.1211,0.109375 -0.1211,0.128906 -0.1211,0.15625 0,0.05859 0.043,0.09766 0.0899,0.09766 0.10156,0 0.9375,-0.640625 1.5,-1.835938 0.48046,-1.035156 0.58984,-2.078124 0.58984,-2.867187 z m 0,0"
         id="path311"
         inkscape:connector-curvature="0" />
      <path
         style="fill:#000000;fill-opacity:1;fill-rule:evenodd;stroke:none"
         d="m 285.73047,88.589844 v -0.105469 l -0.008,-0.105469 -0.008,-0.101562 -0.004,-0.101563 -0.0195,-0.101562 -0.0156,-0.09375 -0.0195,-0.09766 -0.0234,-0.08984 -0.0273,-0.09375 -0.0312,-0.08203 -0.0274,-0.08594 -0.0703,-0.160156 -0.0469,-0.07422 -0.0469,-0.07031 -0.043,-0.07031 -0.0508,-0.07031 -0.0547,-0.05859 -0.11718,-0.117188 -0.0625,-0.04687 -0.0703,-0.04687 -0.0703,-0.04297 -0.0742,-0.04297 -0.16015,-0.0625 -0.0859,-0.02734 -0.082,-0.02344 -0.1875,-0.03125 -0.0977,-0.0039 H 284.125 c -0.9375,0 -1.73047,0.757813 -1.79688,0.808594 -0.71875,0.710937 -0.99218,1.519531 -0.99218,1.542969 0,0.05078 0.0508,0.0625 0.0937,0.0625 0.16797,0 0.3125,-0.08984 0.45312,-0.191406 0.16016,-0.117188 0.16797,-0.144532 0.26953,-0.351563 0.0742,-0.175781 0.28907,-0.621094 0.6211,-1.003906 0.21484,-0.238281 0.39843,-0.378907 0.7539,-0.378907 0.875,0 1.4375,0.726563 1.4375,1.90625 0,1.835938 -1.30859,3.660157 -2.97656,3.660157 -1.27734,0 -1.98437,-1.023438 -1.98437,-2.308594 0,-1.226563 0.63671,-2.574219 1.95312,-3.351563 0.0859,-0.05469 0.35547,-0.214843 0.35547,-0.335937 0,-0.05859 -0.0703,-0.05859 -0.0898,-0.05859 -0.31641,0 -2.98047,1.429688 -2.98047,4.136719 0,1.257812 0.65625,2.410156 2.15234,2.410156 1.75781,0 4.33594,-1.765625 4.33594,-4.539062 z m 0,0"
         id="path313"
         inkscape:connector-curvature="0" />
      <path
         style="fill:#000000;fill-opacity:1;fill-rule:evenodd;stroke:none"
         d="m 289.12891,95.09375 v -0.01563 h -0.004 V 95.0625 h -0.004 v -0.0039 l -0.004,-0.0078 v -0.0039 l -0.008,-0.0078 v -0.0039 l -0.0273,-0.02734 v -0.0039 l -0.0234,-0.02734 v -0.0039 l -0.0351,-0.03516 -0.0117,-0.0039 -0.0195,-0.01953 -0.004,-0.01172 -0.0117,-0.0039 c -1.125,-1.136719 -1.41406,-2.84375 -1.41406,-4.21875 0,-1.566407 0.34375,-3.140626 1.44922,-4.257813 0.11719,-0.113281 0.11719,-0.132813 0.11719,-0.160156 0,-0.05859 -0.0352,-0.08594 -0.082,-0.08594 -0.0937,0 -0.90625,0.609375 -1.43359,1.753907 -0.46484,0.992187 -0.57031,1.992187 -0.57031,2.75 0,0.703124 0.0976,1.792968 0.59765,2.808593 0.53516,1.109375 1.3125,1.695313 1.40625,1.695313 0.0469,0 0.082,-0.02734 0.082,-0.08984 z m 0,0"
         id="path315"
         inkscape:connector-curvature="0" />
      <path
         style="fill:#000000;fill-opacity:1;fill-rule:evenodd;stroke:none"
         d="m 290.04687,94.035156 -0.0117,0.02734 -0.008,0.05078 -0.0234,0.08594 -0.008,0.01953 -0.0117,0.03125 -0.0117,0.01953 -0.004,0.01563 -0.0117,0.0078 -0.0117,0.01563 -0.0312,0.03516 -0.0156,0.0039 -0.0117,0.01172 -0.0156,0.0039 -0.0195,0.0039 -0.0156,0.0078 -0.0234,0.0039 -0.0156,0.0078 -0.0273,0.0039 h -0.0234 l -0.0117,0.0039 h -0.0547 l -0.0156,0.0078 h -0.10156 c -0.10547,0 -0.20703,0 -0.20703,0.171875 0,0.07031 0.043,0.105469 0.11719,0.105469 0.24609,0 0.5039,-0.02734 0.75781,-0.02734 0.29297,0 0.60156,0.02734 0.88672,0.02734 0.0508,0 0.16797,0 0.16797,-0.183594 0,-0.09375 -0.0899,-0.09375 -0.21875,-0.09375 -0.45313,0 -0.45313,-0.06641 -0.45313,-0.144532 0,-0.113281 0.37891,-1.578124 0.44141,-1.800781 0.11718,0.257813 0.36718,0.574219 0.83203,0.574219 l -0.0117,-0.199219 c -0.58984,0 -0.70703,-0.75 -0.70703,-0.804687 0,-0.01172 0,-0.03516 0.0273,-0.140625 l 0.44141,-1.765625 c 0.0586,-0.246094 0.30469,-0.496094 0.46484,-0.628906 0.32031,-0.28125 0.57813,-0.339844 0.73438,-0.339844 0.35547,0 0.57422,0.308594 0.57422,0.847656 0,0.527344 -0.29688,1.5625 -0.46094,1.90625 -0.30469,0.628906 -0.73828,0.925781 -1.07422,0.925781 l 0.0117,0.199219 c 1.04687,0 2.17187,-1.316406 2.17187,-2.636719 0,-0.847656 -0.51172,-1.441406 -1.20312,-1.441406 -0.44531,0 -0.87891,0.320313 -1.17578,0.671875 -0.0899,-0.484375 -0.47657,-0.671875 -0.8125,-0.671875 -0.41407,0 -0.58594,0.347656 -0.66407,0.507813 -0.16796,0.308593 -0.28125,0.847656 -0.28125,0.878906 0,0.08984 0.0899,0.08984 0.10938,0.08984 0.0898,0 0.0977,-0.01563 0.14844,-0.214844 0.15625,-0.632813 0.33593,-1.0625 0.66406,-1.0625 0.14844,0 0.27344,0.06641 0.27344,0.410156 0,0.207031 -0.0234,0.308594 -0.0625,0.457031 z m 0,0"
         id="path317"
         inkscape:connector-curvature="0" />
      <path
         style="fill:#000000;fill-opacity:1;fill-rule:evenodd;stroke:none"
         d="m 298.86328,88.253906 h 0.0234 l 0.0195,-0.0039 h 0.0664 l 0.008,-0.0039 h 0.0234 l 0.0117,-0.0078 h 0.008 l 0.008,-0.0039 0.008,-0.0078 h 0.0117 l 0.0234,-0.01953 0.008,-0.0039 0.0117,-0.01172 v -0.0039 h 0.004 v -0.0078 l 0.008,-0.0039 v -0.0078 l 0.004,-0.0039 v -0.01172 l 0.008,-0.0039 v -0.01953 l 0.004,-0.0078 v -0.01953 c 0,-0.15625 -0.14453,-0.15625 -0.25781,-0.15625 h -3.75 c -0.10156,0 -0.25,0 -0.25,0.148438 0,0.160156 0.14063,0.160156 0.25,0.160156 z m 0,0"
         id="path319"
         inkscape:connector-curvature="0" />
      <path
         style="fill:#000000;fill-opacity:1;fill-rule:evenodd;stroke:none"
         d="m 302.03516,84.949219 -0.10547,0.08203 -0.10547,0.08594 -0.19141,0.167968 -0.0937,0.08984 -0.082,0.09375 -0.0859,0.09375 -0.0781,0.09766 -0.0664,0.101563 -0.0703,0.09375 -0.0625,0.101562 -0.0586,0.101563 -0.0586,0.105468 -0.0508,0.101563 -0.0508,0.109375 -0.043,0.101562 -0.043,0.105469 -0.0391,0.105469 -0.0312,0.105469 -0.0312,0.101562 -0.0547,0.214844 -0.0195,0.101563 -0.0195,0.105468 -0.0352,0.203125 -0.008,0.101563 -0.0117,0.09375 -0.0156,0.289062 v 0.08984 c 0,0.890625 0.26562,2.273438 1.51172,3.152344 0.0547,0 0.1289,0 0.1289,-0.07422 0,-0.03906 -0.0156,-0.05078 -0.0625,-0.09766 -0.83984,-0.757813 -1.14844,-1.828125 -1.14844,-2.972657 0,-1.703124 0.65235,-2.53125 1.16797,-3.003906 0.0274,-0.02344 0.043,-0.03906 0.043,-0.07422 0,-0.07422 -0.0742,-0.07422 -0.1289,-0.07422 z m 0,0"
         id="path321"
         inkscape:connector-curvature="0" />
      <path
         style="fill:#000000;fill-opacity:1;fill-rule:evenodd;stroke:none"
         d="m 306.22266,85.492188 v -0.0078 l 0.004,-0.0039 v -0.01953 h 0.004 v -0.01563 l 0.008,-0.0039 v -0.02734 h 0.004 v -0.01953 c 0,-0.03516 -0.0195,-0.09375 -0.0977,-0.09375 -0.12891,0 -0.64844,0.05078 -0.80859,0.06641 -0.0469,0.0039 -0.13672,0.0078 -0.13672,0.144531 0,0.08984 0.0898,0.08984 0.16406,0.08984 0.30469,0 0.30469,0.04297 0.30469,0.09375 0,0.04297 -0.0156,0.08203 -0.0274,0.140626 l -0.35937,1.433593 c -0.13672,-0.207031 -0.35156,-0.375 -0.64844,-0.375 v 0.175781 c 0.4375,0 0.5586,0.480469 0.5586,0.550782 0,0.02734 -0.0117,0.07031 -0.0156,0.08984 l -0.30078,1.179687 c -0.0391,0.175781 -0.17969,0.296875 -0.31641,0.417969 -0.0586,0.05078 -0.30859,0.257812 -0.58203,0.257812 -0.23437,0 -0.45703,-0.164062 -0.45703,-0.613281 0,-0.335937 0.17969,-1.027344 0.32422,-1.277344 0.28906,-0.507812 0.61328,-0.605469 0.78906,-0.605469 v -0.175781 c -0.8125,0 -1.625,0.890625 -1.625,1.796875 0,0.613282 0.41016,1.046875 0.95313,1.046875 0.33593,0 0.64062,-0.191406 0.89062,-0.4375 0.1211,0.378907 0.48438,0.4375 0.64844,0.4375 0.22656,0 0.38672,-0.140625 0.49609,-0.332031 0.14063,-0.246094 0.22657,-0.609375 0.22657,-0.628906 0,-0.08594 -0.0859,-0.08594 -0.10157,-0.08594 -0.0937,0 -0.0976,0.02734 -0.14062,0.199219 -0.0742,0.296875 -0.19922,0.675781 -0.45703,0.675781 -0.16797,0 -0.21485,-0.144531 -0.21485,-0.308594 0,-0.125 0.0156,-0.183593 0.0312,-0.261718 z m 0,0"
         id="path323"
         inkscape:connector-curvature="0" />
      <path
         style="fill:#000000;fill-opacity:1;fill-rule:evenodd;stroke:none"
         d="m 311.06641,88.253906 h 0.0156 l 0.0195,-0.0039 h 0.0664 l 0.0117,-0.0039 h 0.0195 l 0.0117,-0.0078 h 0.004 l 0.0234,-0.01172 h 0.008 l 0.0234,-0.01953 0.0117,-0.0039 0.004,-0.0078 v -0.0039 l 0.0117,-0.01172 v -0.0039 l 0.004,-0.0078 v -0.0039 l 0.004,-0.0039 v -0.01172 l 0.008,-0.0039 v -0.03516 l 0.004,-0.0039 v -0.0039 c 0,-0.15625 -0.14454,-0.15625 -0.25,-0.15625 h -3.75782 c -0.10156,0 -0.25,0 -0.25,0.148438 0,0.160156 0.14453,0.160156 0.25,0.160156 z m 0,0"
         id="path325"
         inkscape:connector-curvature="0" />
      <path
         style="fill:#000000;fill-opacity:1;fill-rule:evenodd;stroke:none"
         d="m 314.10937,85.667969 -0.004,-0.0078 V 85.5625 l -0.008,-0.0039 v -0.01563 l -0.004,-0.0039 v -0.0078 l -0.0195,-0.01953 h -0.008 l -0.004,-0.0078 h -0.0117 l -0.008,-0.0039 h -0.0195 l -0.004,-0.0078 h -0.10156 c -0.40625,0.394531 -0.97656,0.402343 -1.23828,0.402343 v 0.226563 c 0.15625,0 0.57031,0 0.91797,-0.175782 v 3.214844 c 0,0.207032 0,0.289063 -0.63282,0.289063 h -0.23437 v 0.230469 c 0.10937,-0.0078 0.88281,-0.02734 1.11719,-0.02734 0.19921,0 0.99218,0.01953 1.13281,0.02734 v -0.230469 h -0.24219 c -0.62891,0 -0.62891,-0.08203 -0.62891,-0.289063 z m 0,0"
         id="path327"
         inkscape:connector-curvature="0" />
      <path
         style="fill:#000000;fill-opacity:1;fill-rule:evenodd;stroke:none"
         d="m 316.14453,84.949219 h -0.0586 l -0.004,0.0078 h -0.0156 l -0.004,0.0039 h -0.008 v 0.0078 h -0.004 l -0.008,0.0039 h -0.008 v 0.0078 h -0.004 v 0.0078 l -0.008,0.0039 V 85 l -0.004,0.0039 v 0.01953 c 0,0.03516 0.0195,0.05078 0.0508,0.09766 0.54688,0.496094 1.15235,1.347656 1.15235,2.972656 0,1.316406 -0.41016,2.316406 -1.09375,2.929688 -0.10547,0.109374 -0.10938,0.117187 -0.10938,0.148437 0,0.03125 0.0195,0.07422 0.0781,0.07422 0.0781,0 0.67968,-0.417969 1.09375,-1.207032 0.27734,-0.519531 0.46093,-1.203124 0.46093,-1.9375 0,-0.886718 -0.26953,-2.265624 -1.51172,-3.152343 z m 0,0"
         id="path329"
         inkscape:connector-curvature="0" />
      <path
         style="fill:#000000;fill-opacity:1;fill-rule:evenodd;stroke:none"
         d="m 321.48047,90.679688 v -0.07031 l -0.004,-0.06641 v -0.144531 l -0.0195,-0.308594 -0.0352,-0.34375 -0.0234,-0.171875 -0.0352,-0.183594 -0.0312,-0.1875 -0.043,-0.1875 -0.0469,-0.183594 -0.0547,-0.191406 -0.0625,-0.195313 -0.0742,-0.195312 -0.0742,-0.191406 -0.043,-0.09766 -0.0469,-0.09375 c -0.53906,-1.105469 -1.3125,-1.691407 -1.40235,-1.691407 -0.0547,0 -0.0937,0.03125 -0.0937,0.08594 0,0.02734 0,0.04687 0.17188,0.207031 0.87891,0.890625 1.39844,2.324219 1.39844,4.210938 0,1.542968 -0.33594,3.125 -1.45703,4.257812 -0.11329,0.109375 -0.11329,0.128906 -0.11329,0.15625 0,0.05469 0.0391,0.08984 0.0937,0.08984 0.0899,0 0.89454,-0.609375 1.42579,-1.757813 0.46484,-0.984375 0.57031,-1.988281 0.57031,-2.746093 z m 0,0"
         id="path331"
         inkscape:connector-curvature="0" />
      <path
         style="fill:#000000;fill-opacity:1;fill-rule:nonzero;stroke:none"
         d="m 228.63672,64.914062 -1.04688,-3.03125 -1.10937,3.03125 z m -1.51563,-4.03125 h 1.04688 l 2.47265,6.84375 h -1.0039 l -0.70313,-2.046874 h -2.70703 l -0.74609,2.046874 h -0.9375 z m 0,0"
         id="path333"
         inkscape:connector-curvature="0" />
      <path
         style="fill:#000000;fill-opacity:1;fill-rule:nonzero;stroke:none"
         d="m 287.01562,108.42969 c 0.38282,0 0.6875,-0.0469 0.91407,-0.14844 0.34375,-0.17187 0.51172,-0.47266 0.51172,-0.91406 0,-0.45313 -0.1836,-0.75781 -0.55079,-0.91797 -0.20312,-0.0859 -0.50781,-0.12891 -0.91796,-0.12891 h -1.64063 v 2.10938 z m 0.32032,3.17969 c 0.5625,0 0.96875,-0.16016 1.21484,-0.49219 0.13672,-0.21485 0.21094,-0.46875 0.21094,-0.76563 0,-0.49609 -0.22266,-0.83984 -0.66016,-1.02343 -0.24219,-0.0859 -0.55469,-0.12891 -0.9375,-0.12891 h -1.83203 v 2.41016 z m -2.92188,-6.0586 h 2.94141 c 0.80859,0 1.375,0.23438 1.70703,0.70703 0.19531,0.28516 0.29687,0.60938 0.29687,0.98047 0,0.44141 -0.12109,0.79688 -0.35937,1.06641 -0.12891,0.14453 -0.31641,0.27344 -0.55859,0.40234 0.35156,0.12891 0.62109,0.27735 0.79296,0.44922 0.3086,0.29688 0.46485,0.71484 0.46485,1.23438 0,0.44531 -0.14063,0.84375 -0.42578,1.19531 -0.41407,0.54297 -1.0625,0.8125 -1.96094,0.8125 h -2.89844 z m 0,0"
         id="path335"
         inkscape:connector-curvature="0" />
      <path
         style="fill:#000000;fill-opacity:1;fill-rule:nonzero;stroke:none"
         d="m 283.31641,67.34375 c 0.86328,0 1.53515,0.230469 2.0039,0.683594 0.48047,0.457031 0.75,0.972656 0.8086,1.554687 h -0.91797 c -0.0977,-0.4375 -0.30469,-0.789062 -0.61719,-1.042969 -0.29688,-0.257812 -0.72266,-0.386718 -1.27734,-0.386718 -0.67188,0 -1.21485,0.234375 -1.64063,0.707031 -0.41797,0.46875 -0.62109,1.191406 -0.62109,2.171875 0,0.8125 0.18359,1.46875 0.55468,1.960938 0.38282,0.503906 0.94532,0.75 1.6836,0.75 0.68359,0 1.19922,-0.261719 1.55859,-0.789063 0.19531,-0.269531 0.33985,-0.628906 0.42578,-1.089844 h 0.91797 c -0.0859,0.726563 -0.35937,1.332031 -0.8125,1.8125 -0.54297,0.585938 -1.27344,0.875 -2.19531,0.875 -0.80078,0 -1.46484,-0.238281 -2.00391,-0.726562 -0.71484,-0.621094 -1.0664,-1.601563 -1.0664,-2.941407 0,-1.007812 0.26172,-1.839843 0.78906,-2.496093 0.58203,-0.691407 1.38672,-1.042969 2.41016,-1.042969 z m 0,0"
         id="path337"
         inkscape:connector-curvature="0" />
    </g>
  </defs>
  <g
     id="surface786"
     transform="translate(-81.367188,-11.339844)">
    <g
       clip-path="url(#clip1)"
       id="g344"
       style="clip-rule:nonzero">
      <use
         xlink:href="#surface789"
         transform="translate(83.553934,13.553934)"
         id="use342"
         x="0"
         y="0"
         width="100%"
         height="100%" />
    </g>
  </g>
</svg>
