<?xml version="1.0" encoding="UTF-8" standalone="no"?>
<!-- Created with Inkscape (http://www.inkscape.org/) -->

<svg
   xmlns:dc="http://purl.org/dc/elements/1.1/"
   xmlns:cc="http://creativecommons.org/ns#"
   xmlns:rdf="http://www.w3.org/1999/02/22-rdf-syntax-ns#"
   xmlns:svg="http://www.w3.org/2000/svg"
   xmlns="http://www.w3.org/2000/svg"
   xmlns:sodipodi="http://sodipodi.sourceforge.net/DTD/sodipodi-0.dtd"
   xmlns:inkscape="http://www.inkscape.org/namespaces/inkscape"
   version="1.1"
   id="svg834"
   xml:space="preserve"
   width="1432.3066"
   height="523.77979"
   viewBox="0 0 1432.3066 523.77979"
   sodipodi:docname="milestone.svg"
   inkscape:version="0.92.5 (2060ec1f9f, 2020-04-08)"><metadata
     id="metadata840"><rdf:RDF><cc:Work
         rdf:about=""><dc:format>image/svg+xml</dc:format><dc:type
           rdf:resource="http://purl.org/dc/dcmitype/StillImage" /><dc:title></dc:title></cc:Work></rdf:RDF></metadata><defs
     id="defs838" /><sodipodi:namedview
     pagecolor="#ffffff"
     bordercolor="#666666"
     borderopacity="1"
     objecttolerance="10"
     gridtolerance="10"
     guidetolerance="10"
     inkscape:pageopacity="0"
     inkscape:pageshadow="2"
     inkscape:window-width="1578"
     inkscape:window-height="859"
     id="namedview836"
     showgrid="false"
     inkscape:zoom="0.73308325"
     inkscape:cx="654.76875"
     inkscape:cy="152.76177"
     inkscape:window-x="0"
     inkscape:window-y="0"
     inkscape:window-maximized="0"
     inkscape:current-layer="g844" /><g
     id="g842"
     inkscape:groupmode="layer"
     inkscape:label="milestone"
     transform="matrix(1.3333333,0,0,-1.3333333,0,523.77979)"><g
       id="g844"><g
         id="g846"
         transform="matrix(1,0,0,-1,0,392.83484)"><path
           d="M 1.75,62.66 H 1050.57"
           style="fill:none;stroke:#000000;stroke-width:1.409253;stroke-linecap:butt;stroke-linejoin:miter;stroke-miterlimit:4;stroke-dasharray:none;stroke-opacity:1"
           id="path848"
           inkscape:connector-curvature="0" /></g><g
         id="g850"
         transform="matrix(1,0,0,-1,0,392.83484)"><path
           d="M 596.008,62.363 V 368.504"
           style="fill:none;stroke:#000000;stroke-width:0.85039401;stroke-linecap:butt;stroke-linejoin:miter;stroke-miterlimit:4;stroke-dasharray:5.102362, 5.102362;stroke-dashoffset:0;stroke-opacity:1"
           id="path852"
           inkscape:connector-curvature="0" /></g><g
         id="g862"
         transform="matrix(1,0,0,-1,0,392.83484)"><path
           d="M 0,164.922 H 1048.82"
           style="fill:none;stroke:#000000;stroke-width:1.02188098;stroke-linecap:butt;stroke-linejoin:miter;stroke-miterlimit:4;stroke-dasharray:none;stroke-opacity:1"
           id="path864"
           inkscape:connector-curvature="0" /></g><path
         d="M 595.277,192.991 H 746.363 V 160.393 H 595.277 Z"
         style="fill:#ffa164;fill-opacity:1;fill-rule:nonzero;stroke:none"
         id="path866"
         inkscape:connector-curvature="0" /><path
         d="M 443.906,158.975 H 594.992 V 126.377 H 443.906 Z"
         style="fill:#ffa164;fill-opacity:1;fill-rule:nonzero;stroke:none"
         id="path868"
         inkscape:connector-curvature="0" /><path
         d="M 141.73,192.991 H 292.82 V 160.393 H 141.73 Z"
         style="fill:#ffa265;fill-opacity:1;fill-rule:nonzero;stroke:none"
         id="path870"
         inkscape:connector-curvature="0" /><text
         transform="matrix(1,0,0,-1,151.24485,171.04934)"
         style="font-variant:normal;font-weight:normal;font-size:15.9999876px;font-family:Helvetica;-inkscape-font-specification:Helvetica;writing-mode:lr-tb;fill:#000000;fill-opacity:1;fill-rule:nonzero;stroke:none"
         id="text874"><tspan
           x="0 8.8959932 17.791986 26.687981 31.119976 39.119972 48.015965 61.343952 70.287949 74.71994 88.047935 96.943924 105.83992 110.27192 113.82391 122.71991"
           y="0"
           sodipodi:role="line"
           id="tspan872">bootcamp meeting</tspan></text>
<path
         d="m 1.418,279.448 v 51.024 h 141.73 V 230.249 l -3.429,-0.891 c -1.883,-0.492 -33.774,-0.902 -70.864,-0.914 L 1.418,228.425 Z"
         style="fill:#858c90;fill-opacity:0.23809503;fill-rule:nonzero;stroke:none"
         id="path876"
         inkscape:connector-curvature="0" /><text
         transform="matrix(1,0,0,-1,27.083239,272.43758)"
         style="font-variant:normal;font-weight:bold;font-size:20.00001335px;font-family:Helvetica;-inkscape-font-specification:Helvetica-Bold;writing-mode:lr-tb;fill:#000000;fill-opacity:1;fill-rule:nonzero;stroke:none"
         id="text880"><tspan
           x="0 14.440009 25.560017 36.680023 47.80003 58.92004 66.700043 77.820053"
           y="0"
           sodipodi:role="line"
           id="tspan878">Research</tspan></text>
<g
         id="g882"
         transform="matrix(1,0,0,-1,0,392.83484)"><path
           d="M 1.418,62.363 2.125,368.504"
           style="fill:none;stroke:#000000;stroke-width:1.41735101;stroke-linecap:butt;stroke-linejoin:miter;stroke-miterlimit:4;stroke-dasharray:none;stroke-opacity:1"
           id="path884"
           inkscape:connector-curvature="0" /></g><g
         id="g886"
         transform="matrix(1,0,0,-1,0,392.83484)"><path
           d="M 0,369.309 H 1048.82"
           style="fill:none;stroke:#000000;stroke-width:1.41732299;stroke-linecap:butt;stroke-linejoin:miter;stroke-miterlimit:4;stroke-dasharray:none;stroke-opacity:1"
           id="path888"
           inkscape:connector-curvature="0" /></g><path
         d="m 897.449,192.991 h 151.086 V 160.393 H 897.449 Z"
         style="fill:#ffa164;fill-opacity:1;fill-rule:nonzero;stroke:none"
         id="path890"
         inkscape:connector-curvature="0" /><text
         transform="matrix(1,0,0,-1,910.10925,171.89823)"
         style="font-variant:normal;font-weight:normal;font-size:15.9999876px;font-family:Helvetica;-inkscape-font-specification:Helvetica;writing-mode:lr-tb;fill:#000000;fill-opacity:1;fill-rule:nonzero;stroke:none"
         id="text894"><tspan
           x="0 5.3279958 14.223989 23.119982 32.015976 35.615974 44.511967 53.407959 57.839958 65.839951 73.839943 87.167938 96.063927 104.95992 112.95992 116.55991"
           y="0"
           sodipodi:role="line"
           id="tspan892">reunion symposia</tspan></text>
<g
         id="g896"
         transform="matrix(1,0,0,-1,0,392.83484)"><path
           d="m 1050.57,62.66 -1.004,305.844"
           style="fill:none;stroke:#000000;stroke-width:1.53516996;stroke-linecap:butt;stroke-linejoin:miter;stroke-miterlimit:4;stroke-dasharray:none;stroke-opacity:1"
           id="path898"
           inkscape:connector-curvature="0" /></g><g
         id="g900"
         transform="matrix(1,0,0,-1,0,392.83484)"><path
           d="M 0,266.969 H 1048.82"
           style="fill:none;stroke:#000000;stroke-width:1.02188098;stroke-linecap:butt;stroke-linejoin:miter;stroke-miterlimit:4;stroke-dasharray:none;stroke-opacity:1"
           id="path902"
           inkscape:connector-curvature="0" /></g><path
         d="m 1.418,177.401 v 51.024 h 141.73 V 128.202 l -3.429,-0.891 c -1.883,-0.492 -33.774,-0.902 -70.864,-0.914 L 1.418,126.378 Z"
         style="fill:#858c90;fill-opacity:0.23809503;fill-rule:nonzero;stroke:none"
         id="path904"
         inkscape:connector-curvature="0" /><text
         transform="matrix(1,0,0,-1,23.738546,170.34639)"
         style="font-variant:normal;font-weight:bold;font-size:20.00001335px;font-family:Helvetica;-inkscape-font-specification:Helvetica-Bold;writing-mode:lr-tb;fill:#000000;fill-opacity:1;fill-rule:nonzero;stroke:none"
         id="text908"><tspan
           x="0 13.320008 25.520016 37.720024 48.840031 60.020039 66.680046 72.220047 84.420052"
           y="0"
           sodipodi:role="line"
           id="tspan906">Education</tspan></text>
<path
         d="m 1.418,75.354 v 51.024 h 141.73 V 26.155 l -3.429,-0.89 C 137.836,24.772 105.945,24.362 68.855,24.35 L 1.418,24.331 Z"
         style="fill:#858c90;fill-opacity:0.23809503;fill-rule:nonzero;stroke:none"
         id="path910"
         inkscape:connector-curvature="0" /><text
         transform="matrix(1,0,0,-1,7.630145,70.042339)"
         style="font-variant:normal;font-weight:bold;font-size:20.00001335px;font-family:Helvetica;-inkscape-font-specification:Helvetica-Bold;writing-mode:lr-tb;fill:#000000;fill-opacity:1;fill-rule:nonzero;stroke:none"
         id="text914"><tspan
           x="0 13.320008 25.520016 36.640022 42.180027 53.300034 58.840038 64.380043 69.920044 87.700058 99.900063 111.02007 122.14008"
           y="0"
           sodipodi:role="line"
           id="tspan912">Social Impact</tspan></text>
<g
         id="g916"
         transform="matrix(1,0,0,-1,0,392.83484)"><path
           d="M 293.242,62.363 V 368.504"
           style="fill:none;stroke:#000000;stroke-width:0.85039401;stroke-linecap:butt;stroke-linejoin:miter;stroke-miterlimit:4;stroke-dasharray:5.102362, 5.102362;stroke-dashoffset:0;stroke-opacity:1"
           id="path918"
           inkscape:connector-curvature="0" /></g><g
         id="g920"
         transform="matrix(1,0,0,-1,0,392.83484)"><path
           d="M 444.332,62.363 V 368.504"
           style="fill:none;stroke:#000000;stroke-width:0.85039401;stroke-linecap:butt;stroke-linejoin:miter;stroke-miterlimit:4;stroke-dasharray:5.102362, 5.102362;stroke-dashoffset:0;stroke-opacity:1"
           id="path922"
           inkscape:connector-curvature="0" /></g><g
         id="g924"
         transform="matrix(1,0,0,-1,0,392.83484)"><path
           d="M 897.875,62.363 V 368.504"
           style="fill:none;stroke:#000000;stroke-width:0.85039401;stroke-linecap:butt;stroke-linejoin:miter;stroke-miterlimit:4;stroke-dasharray:5.102362, 5.102362;stroke-dashoffset:0;stroke-opacity:1"
           id="path926"
           inkscape:connector-curvature="0" /></g><g
         id="g928"
         transform="matrix(1,0,0,-1,0,392.83484)"><path
           d="M 746.789,62.363 V 368.504"
           style="fill:none;stroke:#000000;stroke-width:0.85039401;stroke-linecap:butt;stroke-linejoin:miter;stroke-miterlimit:4;stroke-dasharray:5.102362, 5.102362;stroke-dashoffset:0;stroke-opacity:1"
           id="path930"
           inkscape:connector-curvature="0" /></g><text
         transform="matrix(1,0,0,-1,132.95491,336.00395)"
         style="font-variant:normal;font-weight:normal;font-size:15.9999876px;font-family:Helvetica;-inkscape-font-specification:Helvetica;writing-mode:lr-tb;fill:#000000;fill-opacity:1;fill-rule:nonzero;stroke:none"
         id="text940"><tspan
           x="0 7.9999938 16.895987"
           y="0"
           sodipodi:role="line"
           id="tspan932">Jan</tspan><tspan
           sodipodi:role="line"
           id="tspan934"
           x="0"
           y="19.999985" /><tspan
           sodipodi:role="line"
           id="tspan936"
           x="0"
           y="39.999969" /><tspan
           sodipodi:role="line"
           id="tspan938"
           x="0"
           y="59.999954" /></text>
<path
         d="M 595.277,329.054 H 897.449 V 296.456 H 595.277 Z"
         style="fill:#93d0d6;fill-opacity:1;fill-rule:nonzero;stroke:none"
         id="path942"
         inkscape:connector-curvature="0" /><text
         transform="matrix(1,0,0,-1,614.63477,306.95801)"
         style="font-variant:normal;font-weight:normal;font-size:15.9999876px;font-family:Helvetica;-inkscape-font-specification:Helvetica;writing-mode:lr-tb;fill:#000000;fill-opacity:1;fill-rule:nonzero;stroke:none"
         id="text946"><tspan
           x="0 8.8959932 17.791986 21.343985 24.895981 33.791973 38.223972 51.59996 60.495956 69.391945 78.287941 81.839935 86.271935 90.703934 99.599922 104.92793 109.35992 118.25591 127.19991 135.19991 144.09589 152.99188 161.88788 167.21588 175.21587 178.81587 186.81586 195.71185 204.60785 209.03984 212.59184 221.48784 230.38383 235.75983 244.65582 248.20781 257.10382 265.99979"
           y="0"
           sodipodi:role="line"
           id="tspan944">build model for unsupervised learning </tspan></text>
<path
         d="m 746.555,295.038 h 302.176 V 262.44 H 746.555 Z"
         style="fill:#94d0d6;fill-opacity:1;fill-rule:nonzero;stroke:none"
         id="path948"
         inkscape:connector-curvature="0" /><text
         transform="matrix(1,0,0,-1,817.55086,272.19454)"
         style="font-variant:normal;font-weight:normal;font-size:15.9999876px;font-family:Helvetica;-inkscape-font-specification:Helvetica;writing-mode:lr-tb;fill:#000000;fill-opacity:1;fill-rule:nonzero;stroke:none"
         id="text952"><tspan
           x="0 8.8959932 17.791986 26.687981 32.015976 40.015968 48.959965 57.855957 65.855949 74.751945 82.751938 87.183937 96.079926 99.631927 108.52792 117.42391 122.79991 126.35191 130.78391 139.6799"
           y="0"
           sodipodi:role="line"
           id="tspan950">non-convex algorithm</tspan></text>
<path
         d="M 292.82,295.038 H 594.992 V 262.44 H 292.82 Z"
         style="fill:#94d0d6;fill-opacity:1;fill-rule:nonzero;stroke:none"
         id="path954"
         inkscape:connector-curvature="0" /><text
         transform="matrix(1,0,0,-1,367.62759,273.04235)"
         style="font-variant:normal;font-weight:normal;font-size:15.9999876px;font-family:Helvetica;-inkscape-font-specification:Helvetica;writing-mode:lr-tb;fill:#000000;fill-opacity:1;fill-rule:nonzero;stroke:none"
         id="text958"><tspan
           x="0 8.8959932 17.791986 22.223984 25.77598 39.10397 42.655968 50.655964 59.599957 64.031952 67.583946 76.479942 85.375938 89.80793 98.703926 102.25592 111.15192 120.04791 125.4239 128.97591 133.4079 142.30389"
           y="0"
           sodipodi:role="line"
           id="tspan956">optimization algorithm</tspan></text>
<path
         d="M 141.73,329.054 H 443.906 V 296.456 H 141.73 Z"
         style="fill:#93d0d6;fill-opacity:1;fill-rule:nonzero;stroke:none"
         id="path960"
         inkscape:connector-curvature="0" /><text
         transform="matrix(1,0,0,-1,164.59346,306.89278)"
         style="font-variant:normal;font-weight:normal;font-size:15.9999876px;font-family:Helvetica;-inkscape-font-specification:Helvetica;writing-mode:lr-tb;fill:#000000;fill-opacity:1;fill-rule:nonzero;stroke:none"
         id="text964"><tspan
           x="0 8.8959932 17.791986 21.343985 24.895981 33.791973 38.223972 51.59996 60.495956 69.391945 78.287941 81.839935 86.271935 90.703934 99.599922 104.92793 109.35992 117.35991 126.25591 135.19991 144.09589 149.42389 157.42389 160.97588 168.97588 177.87187 186.81586 191.24786 194.79985 203.69585 212.59184 217.91983 226.81583 230.41583 239.31181"
           y="0"
           sodipodi:role="line"
           id="tspan962">build model for supervised learning</tspan></text>
<path
         d="M 443.906,261.022 H 594.992 V 228.424 H 443.906 Z"
         style="fill:#93d0d6;fill-opacity:1;fill-rule:nonzero;stroke:none"
         id="path966"
         inkscape:connector-curvature="0" /><text
         transform="matrix(1,0,0,-1,476.37626,240.80958)"
         style="font-variant:normal;font-weight:normal;font-size:15.9999876px;font-family:Helvetica;-inkscape-font-specification:Helvetica;writing-mode:lr-tb;fill:#000000;fill-opacity:1;fill-rule:nonzero;stroke:none"
         id="text970"><tspan
           x="0 8.8959932 17.791986 26.687981 30.239977 33.791973 41.791969 50.735962 55.167957 58.719955 67.615952 76.51194 80.943939"
           y="0"
           sodipodi:role="line"
           id="tspan968">publication 1</tspan></text>
<path
         d="m 897.449,261.022 h 151.086 V 228.424 H 897.449 Z"
         style="fill:#93d0d6;fill-opacity:1;fill-rule:nonzero;stroke:none"
         id="path972"
         inkscape:connector-curvature="0" /><text
         transform="matrix(1,0,0,-1,929.91959,241.01716)"
         style="font-variant:normal;font-weight:normal;font-size:15.9999876px;font-family:Helvetica;-inkscape-font-specification:Helvetica;writing-mode:lr-tb;fill:#000000;fill-opacity:1;fill-rule:nonzero;stroke:none"
         id="text976"><tspan
           x="0 8.8959932 17.791986 26.687981 30.239977 33.791973 41.791969 50.735962 55.167957 58.719955 67.615952 76.51194 80.943939"
           y="0"
           sodipodi:role="line"
           id="tspan974">publication 2</tspan></text>
<path
         d="M 292.82,227.007 H 746.363 V 194.409 H 292.82 Z"
         style="fill:#ffa164;fill-opacity:1;fill-rule:nonzero;stroke:none"
         id="path978"
         inkscape:connector-curvature="0" /><text
         transform="matrix(1,0,0,-1,422.75608,204.43385)"
         style="font-variant:normal;font-weight:normal;font-size:15.9999876px;font-family:Helvetica;-inkscape-font-specification:Helvetica;writing-mode:lr-tb;fill:#000000;fill-opacity:1;fill-rule:nonzero;stroke:none"
         id="text982"><tspan
           x="0 8.8959932 17.791986 29.343979 33.775974 41.77597 50.671963 59.567955 64.943954 72.943947 81.839935 86.271935 95.167931 104.06392 108.49592 117.39191 126.2879 130.71989 139.61589 144.0479 152.04788 160.04788 163.59988 172.49586 181.39186 189.39186"
           y="0"
           sodipodi:role="line"
           id="tspan980">new course on data science</tspan></text>
<path
         d="m 747.781,227.007 h 300.754 V 194.409 H 747.781 Z"
         style="fill:#ffa164;fill-opacity:1;fill-rule:nonzero;stroke:none"
         id="path984"
         inkscape:connector-curvature="0" /><text
         transform="matrix(1,0,0,-1,821.3783,204.73978)"
         style="font-variant:normal;font-weight:normal;font-size:15.9999876px;font-family:Helvetica;-inkscape-font-specification:Helvetica;writing-mode:lr-tb;fill:#000000;fill-opacity:1;fill-rule:nonzero;stroke:none"
         id="text992"><tspan
           x="0 7.9999938 13.32799 22.223984 31.119976 35.551971 44.447968 48.879963 57.775955 66.671951 70.27195 73.823944 82.71994 91.615929 96.047928 104.04792 112.94392 121.83991 127.2159 135.2159 144.11189"
           y="0"
           sodipodi:role="line"
           id="tspan986">create online courses</tspan><tspan
           x="-216.40065 -207.50465 -202.17667 -193.28067 -184.38467 -175.44069 -171.88869 -163.88869 -154.99271 -150.5607 -139.00871 -130.11272 -124.78472 -116.78473 -108.78474 -99.840744 -90.944748"
           y="32.84156"
           sodipodi:role="line"
           id="tspan988">organize workshop</tspan><tspan
           x="-378.11212 -373.68015 -365.68015 -361.24814 -352.35214 -343.45615 -334.56015 -325.66418 -321.23218 -316.80017 -307.90417 -302.5762 -293.68021 -285.68021 -276.78421 -267.84021 -263.40823 -254.51222 -250.08023 -246.52823 -237.63223"
           y="66.515259"
           sodipodi:role="line"
           id="tspan990"> student presentation</tspan></text>
<path
         d="m 898.09,158.975 h 150.801 V 126.377 H 898.09 Z"
         style="fill:#ffa164;fill-opacity:1;fill-rule:nonzero;stroke:none"
         id="path994"
         inkscape:connector-curvature="0" /><text
         transform="matrix(1,0,0,-1,901.88084,138.22449)"
         style="font-variant:normal;font-weight:normal;font-size:15.9999876px;font-family:Helvetica;-inkscape-font-specification:Helvetica;writing-mode:lr-tb;fill:#000000;fill-opacity:1;fill-rule:nonzero;stroke:none"
         id="text998"><tspan
           x="0 7.9999938 12.431991 21.327984 30.223978 39.119972 48.015965 52.44796 56.879959 65.775948 71.103943 79.999939 87.999931 96.895927 105.83992 110.27192 119.16791 123.59991 127.1519 136.0479"
           y="0"
           sodipodi:role="line"
           id="tspan996">student presentation</tspan></text>
<path
         d="M 292.82,124.96 H 594.992 V 92.362 H 292.82 Z"
         style="fill:#afc6e9;fill-opacity:1;fill-rule:nonzero;stroke:none"
         id="path1000"
         inkscape:connector-curvature="0" /><text
         transform="matrix(1,0,0,-1,330.5911,103.88499)"
         style="font-variant:normal;font-weight:normal;font-size:15.9999876px;font-family:Helvetica;-inkscape-font-specification:Helvetica;writing-mode:lr-tb;fill:#000000;fill-opacity:1;fill-rule:nonzero;stroke:none"
         id="text1004"><tspan
           x="0 8.8959932 17.791986 21.343985 24.895981 33.791973 38.223972 43.599968 52.49596 60.495956 69.391945 82.71994 96.095924 104.99192 113.88792 122.78391 131.6799 136.11189 139.66389 148.55989 157.50388 161.93588 169.93587 177.93587 185.93587 190.36786 199.26385 212.59184"
           y="0"
           sodipodi:role="line"
           id="tspan1002">build recommendation systems</tspan></text>
<path
         d="M 443.906,90.944 H 594.992 V 58.346 H 443.906 Z"
         style="fill:#afc6e9;fill-opacity:1;fill-rule:nonzero;stroke:none"
         id="path1006"
         inkscape:connector-curvature="0" /><text
         transform="matrix(1,0,0,-1,444.19287,70.116302)"
         style="font-variant:normal;font-weight:normal;font-size:15.9999876px;font-family:Helvetica;-inkscape-font-specification:Helvetica;writing-mode:lr-tb;fill:#000000;fill-opacity:1;fill-rule:nonzero;stroke:none"
         id="text1010"><tspan
           x="0 5.3279958 14.223989 17.775986 26.67198 35.615974 43.615967 52.511959 56.943958 61.375954 66.703949 75.599945 84.495934 88.927933 96.927925 105.82392 110.25592 114.68791 126.23991 135.13589 140.4639"
           y="0"
           sodipodi:role="line"
           id="tspan1008">release free software</tspan></text>
<path
         d="m 897.449,90.401 h 151.086 V 57.803 H 897.449 Z"
         style="fill:#afc6e9;fill-opacity:1;fill-rule:nonzero;stroke:none"
         id="path1012"
         inkscape:connector-curvature="0" /><path
         d="m 292.82,56.929 h 755.715 V 24.331 H 292.82 Z"
         style="fill:#afc6e9;fill-opacity:1;fill-rule:nonzero;stroke:none"
         id="path1014"
         inkscape:connector-curvature="0" /><text
         transform="matrix(1,0,0,-1,400.51294,35.169744)"
         style="font-variant:normal;font-weight:normal;font-size:15.9999876px;font-family:Helvetica;-inkscape-font-specification:Helvetica;writing-mode:lr-tb;fill:#000000;fill-opacity:1;fill-rule:nonzero;stroke:none"
         id="text1018"><tspan
           x="0 8.8959932 12.44799 20.447985 28.447979 37.343971 50.671963 54.271957 63.167953 72.06395 76.495941 80.047943 88.943932 97.839928 102.27193 111.16792 115.59991 120.03191 125.35991 134.25591 142.25589 151.19989 160.09589 165.42387 173.42387 182.31987 186.75186 192.07985 201.02385 209.02385 217.91983 221.47183 225.90382 233.90382 238.33582 241.88782 250.78381 255.21581 264.11182 272.11179 281.00778 289.90378 298.79977 312.17575 315.72775 323.72775 328.15976 337.05576 345.95175 354.84775 359.27972 362.83173 371.72772 380.67172 389.56772 397.56769 401.99969 407.3277 410.8797 419.7757 423.3277 427.75967 435.75967 444.65567 453.59967 458.03165 466.92764 472.25565 481.15164 490.04764 498.04764 506.94363"
           y="0"
           sodipodi:role="line"
           id="tspan1016">dissemination of research results in academic and industrial conferences</tspan></text>
<path
         d="m 746.363,124.96 h 302.172 V 92.362 H 746.363 Z"
         style="fill:#afc6e9;fill-opacity:1;fill-rule:nonzero;stroke:none"
         id="path1020"
         inkscape:connector-curvature="0" /><text
         transform="matrix(1,0,0,-1,763.83814,103.88482)"
         style="font-variant:normal;font-weight:normal;font-size:15.9999876px;font-family:Helvetica;-inkscape-font-specification:Helvetica;writing-mode:lr-tb;fill:#000000;fill-opacity:1;fill-rule:nonzero;stroke:none"
         id="text1026"><tspan
           x="0 8.8959932 17.791986 21.343985 24.895981 33.791973 38.223972 47.119965 50.719963 59.615955 68.511948 72.06395 75.615944 84.51194 93.455933 101.45592 105.88792 110.31992 119.21591 124.54391 128.97591 142.30389 151.19989 154.75188 159.18388 162.73587 176.11186 185.00786 193.90385 202.79985 206.35185 210.78384 219.67984 228.57584 237.51982 241.07182 249.07181 253.50381 257.05582 265.05579"
           y="0"
           sodipodi:role="line"
           id="tspan1022">build pipelines for multimodal analytics</tspan><tspan
           x="134.01373 139.34174 148.23773 151.78972 160.68571 169.62971 177.6297 186.5257 190.9577 195.38969 200.71768 209.61368 218.50967 222.94167 230.94167 239.83766 244.26965 248.70166 260.25363 269.14963 274.47763"
           y="35.572773"
           sodipodi:role="line"
           id="tspan1024">release free software</tspan></text>
<text
         xml:space="preserve"
         style="font-style:normal;font-weight:normal;font-size:20px;line-height:1.25;font-family:sans-serif;letter-spacing:0px;word-spacing:0px;fill:#000000;fill-opacity:1;stroke:none;stroke-width:0.75"
         x="287.48441"
         y="-374.44589"
         id="text1030"
         transform="scale(1,-1)"><tspan
           sodipodi:role="line"
           id="tspan1028"
           x="287.48441"
           y="-356.75058"
           style="stroke-width:0.75" /></text>
<text
         xml:space="preserve"
         style="font-style:normal;font-weight:normal;font-size:15px;line-height:1.25;font-family:sans-serif;letter-spacing:0px;word-spacing:0px;fill:#000000;fill-opacity:1;stroke:none;stroke-width:0.75"
         x="276.23059"
         y="-335.16129"
         id="text1034"
         transform="scale(1,-1)"><tspan
           sodipodi:role="line"
           id="tspan1032"
           x="276.23059"
           y="-335.16129"
           style="font-size:15px;stroke-width:0.75">March</tspan></text>
<text
         xml:space="preserve"
         style="font-style:normal;font-weight:normal;font-size:15px;line-height:1.25;font-family:sans-serif;letter-spacing:0px;word-spacing:0px;fill:#000000;fill-opacity:1;stroke:none;stroke-width:0.75"
         x="433.7843"
         y="-334.13824"
         id="text1038"
         transform="scale(1,-1)"><tspan
           sodipodi:role="line"
           id="tspan1036"
           x="433.7843"
           y="-334.13824"
           style="font-size:15px;stroke-width:0.75">May</tspan></text>
<text
         xml:space="preserve"
         style="font-style:normal;font-weight:normal;font-size:15px;line-height:1.25;font-family:sans-serif;letter-spacing:0px;word-spacing:0px;fill:#000000;fill-opacity:1;stroke:none;stroke-width:0.75"
         x="587.24579"
         y="-336.18439"
         id="text1042"
         transform="scale(1,-1)"><tspan
           sodipodi:role="line"
           id="tspan1040"
           x="587.24579"
           y="-336.18439"
           style="font-size:15px;stroke-width:0.75">July</tspan></text>
<text
         xml:space="preserve"
         style="font-style:normal;font-weight:normal;font-size:15px;line-height:1.25;font-family:sans-serif;letter-spacing:0px;word-spacing:0px;fill:#000000;fill-opacity:1;stroke:none;stroke-width:0.75"
         x="735.59174"
         y="-335.63821"
         id="text1046"
         transform="scale(1,-1)"><tspan
           sodipodi:role="line"
           id="tspan1044"
           x="735.59174"
           y="-335.63821"
           style="font-size:15px;stroke-width:0.75">Sep</tspan></text>
<text
         xml:space="preserve"
         style="font-style:normal;font-weight:normal;font-size:15px;line-height:1.25;font-family:sans-serif;letter-spacing:0px;word-spacing:0px;fill:#000000;fill-opacity:1;stroke:none;stroke-width:0.75"
         x="884.96088"
         y="-335.70743"
         id="text1050"
         transform="scale(1,-1)"><tspan
           sodipodi:role="line"
           id="tspan1048"
           x="884.96088"
           y="-335.70743"
           style="font-size:15px;stroke-width:0.75">Nov</tspan></text>
</g></g></svg>