<?xml version="1.0" encoding="UTF-8" standalone="no"?>
<!-- Created with Inkscape (http://www.inkscape.org/) -->

<svg
   xmlns:dc="http://purl.org/dc/elements/1.1/"
   xmlns:cc="http://creativecommons.org/ns#"
   xmlns:rdf="http://www.w3.org/1999/02/22-rdf-syntax-ns#"
   xmlns:svg="http://www.w3.org/2000/svg"
   xmlns="http://www.w3.org/2000/svg"
   xmlns:sodipodi="http://sodipodi.sourceforge.net/DTD/sodipodi-0.dtd"
   xmlns:inkscape="http://www.inkscape.org/namespaces/inkscape"
   version="1.1"
   id="svg2"
   xml:space="preserve"
   width="1432.3066"
   height="523.77979"
   viewBox="0 0 1432.3066 523.77979"
   sodipodi:docname="milestone.svg"
   inkscape:version="0.92.2 5c3e80d, 2017-08-06"><metadata
     id="metadata8"><rdf:RDF><cc:Work
         rdf:about=""><dc:format>image/svg+xml</dc:format><dc:type
           rdf:resource="http://purl.org/dc/dcmitype/StillImage" /><dc:title></dc:title></cc:Work></rdf:RDF></metadata><defs
     id="defs6" /><sodipodi:namedview
     pagecolor="#ffffff"
     bordercolor="#666666"
     borderopacity="1"
     objecttolerance="10"
     gridtolerance="10"
     guidetolerance="10"
     inkscape:pageopacity="0"
     inkscape:pageshadow="2"
     inkscape:window-width="1600"
     inkscape:window-height="783"
     id="namedview4"
     showgrid="false"
     inkscape:zoom="0.68229201"
     inkscape:cx="1170.6201"
     inkscape:cy="213.32258"
     inkscape:window-x="124"
     inkscape:window-y="20"
     inkscape:window-maximized="0"
     inkscape:current-layer="g12" /><g
     id="g10"
     inkscape:groupmode="layer"
     inkscape:label="milestone"
     transform="matrix(1.3333333,0,0,1.3333333,0,1.7761161e-5)"><g
       id="g12"><g
         id="g14"><path
           d="M 1.75,62.66 H 1050.57"
           style="fill:none;stroke:#000000;stroke-width:1.409253;stroke-linecap:butt;stroke-linejoin:miter;stroke-miterlimit:4;stroke-dasharray:none;stroke-opacity:1"
           id="path16"
           inkscape:connector-curvature="0" /></g><g
         id="g18"
         transform="translate(51)"><path
           d="M 596.008,62.363 V 368.504"
           style="fill:none;stroke:#000000;stroke-width:0.85039401;stroke-linecap:butt;stroke-linejoin:miter;stroke-miterlimit:4;stroke-dasharray:5.102362, 5.102362;stroke-dashoffset:0;stroke-opacity:1"
           id="path20"
           inkscape:connector-curvature="0" /></g><g
         id="g22"><path
           d="M 0,164.922 H 1048.82"
           style="fill:none;stroke:#000000;stroke-width:1.02188098;stroke-linecap:butt;stroke-linejoin:miter;stroke-miterlimit:4;stroke-dasharray:none;stroke-opacity:1"
           id="path24"
           inkscape:connector-curvature="0" /></g><path
         d="m 294.40989,233.859 h 351.60229 v 32.598 H 294.40989 Z"
         style="fill:#ffa164;fill-opacity:1;fill-rule:nonzero;stroke:none;stroke-width:1.52550519"
         id="path28"
         inkscape:connector-curvature="0" /><path
         d="m 141.73,199.844 h 151.09 v 32.598 H 141.73 Z"
         style="fill:#ffa265;fill-opacity:1;fill-rule:nonzero;stroke:none"
         id="path30"
         inkscape:connector-curvature="0" /><path
         d="M 1.418,113.387 V 62.363 h 141.73 v 100.223 l -3.429,0.891 c -1.883,0.492 -33.774,0.902 -70.864,0.914 L 1.418,164.41 Z"
         style="fill:#858c90;fill-opacity:0.23809503;fill-rule:nonzero;stroke:none"
         id="path62"
         inkscape:connector-curvature="0" /><path
         d="m 31.613,108.508 v 3.859 h 3.407 c 0.675,0 1.187,-0.078 1.531,-0.234 0.594,-0.27 0.89,-0.813 0.89,-1.625 0,-0.863 -0.289,-1.446 -0.859,-1.75 -0.336,-0.164 -0.824,-0.25 -1.469,-0.25 z m 4.125,-2.5 c 1.008,0.023 1.785,0.148 2.328,0.375 0.539,0.219 1,0.555 1.375,1 0.313,0.367 0.555,0.773 0.735,1.219 0.187,0.437 0.281,0.937 0.281,1.5 0,0.687 -0.172,1.367 -0.516,2.031 -0.343,0.656 -0.914,1.121 -1.703,1.39 0.664,0.274 1.133,0.653 1.407,1.141 0.281,0.492 0.421,1.242 0.421,2.25 v 0.969 c 0,0.656 0.024,1.101 0.079,1.328 0.07,0.375 0.253,0.652 0.546,0.828 v 0.359 h -3.312 c -0.094,-0.32 -0.164,-0.578 -0.203,-0.765 -0.074,-0.406 -0.117,-0.821 -0.125,-1.25 l -0.016,-1.328 c -0.012,-0.926 -0.18,-1.539 -0.5,-1.844 -0.324,-0.301 -0.93,-0.453 -1.812,-0.453 h -3.11 v 5.64 h -2.937 v -14.39 z"
         style="fill:#000000;fill-opacity:1;fill-rule:nonzero;stroke:none"
         id="path64"
         inkscape:connector-curvature="0" /><path
         d="m 47.023,111.758 c -0.648,0 -1.148,0.203 -1.5,0.609 -0.355,0.406 -0.578,0.953 -0.671,1.641 h 4.328 c -0.043,-0.727 -0.266,-1.285 -0.672,-1.672 -0.399,-0.383 -0.891,-0.578 -1.485,-0.578 z m 0,-2.281 c 0.883,0 1.68,0.168 2.391,0.5 0.707,0.324 1.297,0.843 1.766,1.562 0.414,0.637 0.679,1.371 0.797,2.203 0.07,0.492 0.101,1.196 0.093,2.11 h -7.281 c 0.039,1.062 0.375,1.808 1,2.234 0.383,0.273 0.848,0.406 1.391,0.406 0.57,0 1.035,-0.16 1.39,-0.484 0.196,-0.176 0.368,-0.422 0.516,-0.735 h 2.844 c -0.075,0.637 -0.403,1.278 -0.985,1.922 -0.906,1.043 -2.183,1.563 -3.828,1.563 -1.355,0 -2.555,-0.438 -3.594,-1.313 -1.031,-0.875 -1.546,-2.297 -1.546,-4.265 0,-1.844 0.468,-3.254 1.406,-4.235 0.937,-0.976 2.148,-1.468 3.64,-1.468 z m 0.188,0 z"
         style="fill:#000000;fill-opacity:1;fill-rule:nonzero;stroke:none"
         id="path66"
         inkscape:connector-curvature="0" /><path
         d="m 56.113,116.992 c 0.063,0.5 0.188,0.856 0.375,1.063 0.344,0.375 0.985,0.562 1.922,0.562 0.539,0 0.973,-0.082 1.297,-0.25 0.32,-0.164 0.484,-0.41 0.484,-0.734 0,-0.313 -0.132,-0.551 -0.39,-0.719 -0.262,-0.156 -1.227,-0.43 -2.891,-0.828 -1.211,-0.301 -2.062,-0.676 -2.562,-1.125 -0.493,-0.445 -0.735,-1.086 -0.735,-1.922 0,-0.977 0.383,-1.82 1.157,-2.531 0.769,-0.707 1.851,-1.063 3.25,-1.063 1.332,0 2.414,0.266 3.25,0.797 0.843,0.531 1.32,1.449 1.437,2.75 h -2.781 c -0.031,-0.351 -0.133,-0.633 -0.297,-0.844 -0.305,-0.375 -0.824,-0.562 -1.563,-0.562 -0.605,0 -1.039,0.094 -1.296,0.281 -0.262,0.188 -0.391,0.406 -0.391,0.656 0,0.325 0.141,0.559 0.422,0.704 0.269,0.148 1.234,0.402 2.89,0.765 1.114,0.262 1.946,0.656 2.5,1.188 0.539,0.531 0.813,1.199 0.813,2 0,1.054 -0.391,1.914 -1.172,2.578 -0.781,0.664 -1.996,1 -3.641,1 -1.679,0 -2.918,-0.356 -3.718,-1.063 -0.793,-0.707 -1.188,-1.609 -1.188,-2.703 z m 2.125,-7.515 z"
         style="fill:#000000;fill-opacity:1;fill-rule:nonzero;stroke:none"
         id="path68"
         inkscape:connector-curvature="0" /><path
         d="m 69.262,111.758 c -0.649,0 -1.149,0.203 -1.5,0.609 -0.356,0.406 -0.578,0.953 -0.672,1.641 h 4.328 c -0.043,-0.727 -0.266,-1.285 -0.672,-1.672 -0.398,-0.383 -0.891,-0.578 -1.484,-0.578 z m 0,-2.281 c 0.883,0 1.679,0.168 2.39,0.5 0.707,0.324 1.297,0.843 1.766,1.562 0.414,0.637 0.68,1.371 0.797,2.203 0.07,0.492 0.101,1.196 0.094,2.11 h -7.282 c 0.039,1.062 0.375,1.808 1,2.234 0.383,0.273 0.848,0.406 1.391,0.406 0.57,0 1.035,-0.16 1.391,-0.484 0.195,-0.176 0.367,-0.422 0.515,-0.735 h 2.844 c -0.074,0.637 -0.402,1.278 -0.984,1.922 -0.907,1.043 -2.184,1.563 -3.829,1.563 -1.355,0 -2.554,-0.438 -3.593,-1.313 -1.032,-0.875 -1.547,-2.297 -1.547,-4.265 0,-1.844 0.469,-3.254 1.406,-4.235 0.938,-0.976 2.149,-1.468 3.641,-1.468 z m 0.187,0 z"
         style="fill:#000000;fill-opacity:1;fill-rule:nonzero;stroke:none"
         id="path70"
         inkscape:connector-curvature="0" /><path
         d="m 82.055,115.227 c -0.18,0.105 -0.356,0.195 -0.532,0.265 -0.179,0.063 -0.421,0.125 -0.734,0.188 l -0.625,0.125 c -0.594,0.105 -1.016,0.23 -1.266,0.375 -0.429,0.25 -0.64,0.648 -0.64,1.187 0,0.469 0.129,0.813 0.39,1.031 0.258,0.211 0.582,0.313 0.969,0.313 0.594,0 1.141,-0.176 1.641,-0.531 0.508,-0.352 0.773,-0.992 0.797,-1.922 z m -1.688,-1.297 c 0.508,-0.071 0.875,-0.157 1.094,-0.25 0.394,-0.164 0.594,-0.43 0.594,-0.797 0,-0.438 -0.153,-0.735 -0.453,-0.891 -0.305,-0.164 -0.747,-0.25 -1.329,-0.25 -0.656,0 -1.121,0.164 -1.39,0.485 -0.199,0.242 -0.328,0.562 -0.391,0.968 h -2.687 c 0.05,-0.925 0.312,-1.691 0.781,-2.297 0.726,-0.937 1.988,-1.406 3.781,-1.406 1.164,0 2.203,0.235 3.11,0.703 0.906,0.461 1.359,1.328 1.359,2.61 v 4.89 c 0,0.336 0.004,0.746 0.016,1.235 0.019,0.367 0.078,0.617 0.171,0.75 0.094,0.125 0.227,0.23 0.407,0.312 v 0.406 h -3.032 c -0.086,-0.218 -0.14,-0.421 -0.171,-0.609 -0.032,-0.187 -0.059,-0.398 -0.079,-0.641 -0.386,0.418 -0.828,0.774 -1.328,1.063 -0.593,0.344 -1.273,0.516 -2.031,0.516 -0.961,0 -1.758,-0.274 -2.391,-0.813 -0.625,-0.551 -0.937,-1.332 -0.937,-2.344 0,-1.312 0.504,-2.258 1.516,-2.843 0.55,-0.321 1.363,-0.551 2.437,-0.688 z m 0.141,-4.453 z"
         style="fill:#000000;fill-opacity:1;fill-rule:nonzero;stroke:none"
         id="path72"
         inkscape:connector-curvature="0" /><path
         d="m 93.082,109.492 c 0.051,0 0.094,0.008 0.125,0.016 0.039,0 0.125,0.008 0.25,0.015 v 2.844 c -0.18,-0.019 -0.336,-0.031 -0.469,-0.031 -0.136,-0.008 -0.246,-0.016 -0.328,-0.016 -1.125,0 -1.883,0.368 -2.265,1.094 -0.211,0.406 -0.313,1.039 -0.313,1.891 v 5.093 H 87.27 v -10.64 h 2.656 v 1.844 c 0.437,-0.707 0.812,-1.192 1.125,-1.454 0.519,-0.437 1.195,-0.656 2.031,-0.656 z"
         style="fill:#000000;fill-opacity:1;fill-rule:nonzero;stroke:none"
         id="path74"
         inkscape:connector-curvature="0" /><path
         d="m 101.441,113.57 c -0.054,-0.394 -0.187,-0.754 -0.406,-1.078 -0.312,-0.426 -0.797,-0.64 -1.453,-0.64 -0.937,0 -1.578,0.464 -1.922,1.39 -0.18,0.5 -0.265,1.164 -0.265,1.985 0,0.781 0.085,1.406 0.265,1.875 0.332,0.886 0.957,1.328 1.875,1.328 0.656,0 1.117,-0.172 1.391,-0.516 0.269,-0.352 0.437,-0.812 0.5,-1.375 h 2.844 c -0.075,0.844 -0.383,1.649 -0.922,2.406 -0.875,1.219 -2.168,1.828 -3.875,1.828 -1.719,0 -2.985,-0.503 -3.797,-1.515 -0.805,-1.02 -1.203,-2.344 -1.203,-3.969 0,-1.832 0.445,-3.254 1.343,-4.266 0.895,-1.019 2.125,-1.531 3.688,-1.531 1.332,0 2.426,0.305 3.281,0.906 0.852,0.594 1.36,1.653 1.516,3.172 z m -1.89,-4.093 z"
         style="fill:#000000;fill-opacity:1;fill-rule:nonzero;stroke:none"
         id="path76"
         inkscape:connector-curvature="0" /><path
         d="m 112.074,109.477 c 0.656,0 1.25,0.117 1.781,0.343 0.54,0.231 0.985,0.578 1.329,1.047 0.289,0.399 0.468,0.809 0.531,1.235 0.07,0.418 0.109,1.101 0.109,2.046 v 6.25 h -2.844 v -6.468 c 0,-0.571 -0.101,-1.035 -0.296,-1.391 -0.25,-0.5 -0.731,-0.75 -1.438,-0.75 -0.742,0 -1.305,0.25 -1.687,0.75 -0.375,0.492 -0.563,1.188 -0.563,2.094 v 5.765 h -2.781 v -14.343 h 2.781 v 5.078 c 0.406,-0.613 0.875,-1.039 1.406,-1.281 0.532,-0.25 1.086,-0.375 1.672,-0.375 z"
         style="fill:#000000;fill-opacity:1;fill-rule:nonzero;stroke:none"
         id="path78"
         inkscape:connector-curvature="0" /><g
         id="g80"><path
           d="M 1.418,62.363 2.125,368.504"
           style="fill:none;stroke:#000000;stroke-width:1.41735101;stroke-linecap:butt;stroke-linejoin:miter;stroke-miterlimit:4;stroke-dasharray:none;stroke-opacity:1"
           id="path82"
           inkscape:connector-curvature="0" /></g><g
         id="g84"><path
           d="M 0,369.309 H 1048.82"
           style="fill:none;stroke:#000000;stroke-width:1.41732299;stroke-linecap:butt;stroke-linejoin:miter;stroke-miterlimit:4;stroke-dasharray:none;stroke-opacity:1"
           id="path86"
           inkscape:connector-curvature="0" /></g><path
         d="m 746.38218,199.844 h 303.92562 v 32.598 H 746.38218 Z"
         style="fill:#ffa164;fill-opacity:1;fill-rule:nonzero;stroke:none;stroke-width:1.41831112"
         id="path88"
         inkscape:connector-curvature="0" /><g
         id="g120"><path
           d="m 1050.57,62.66 -1.004,305.844"
           style="fill:none;stroke:#000000;stroke-width:1.53516996;stroke-linecap:butt;stroke-linejoin:miter;stroke-miterlimit:4;stroke-dasharray:none;stroke-opacity:1"
           id="path122"
           inkscape:connector-curvature="0" /></g><g
         id="g124"><path
           d="M 0,266.969 H 1048.82"
           style="fill:none;stroke:#000000;stroke-width:1.02188098;stroke-linecap:butt;stroke-linejoin:miter;stroke-miterlimit:4;stroke-dasharray:none;stroke-opacity:1"
           id="path126"
           inkscape:connector-curvature="0" /></g><path
         d="M 1.418,215.434 V 164.41 h 141.73 v 100.223 l -3.429,0.89 c -1.883,0.493 -33.774,0.903 -70.864,0.915 l -67.437,0.019 z"
         style="fill:#858c90;fill-opacity:0.23809503;fill-rule:nonzero;stroke:none"
         id="path128"
         inkscape:connector-curvature="0" /><path
         d="m 35.91,210.645 h -7.625 v 3.046 h 7 v 2.5 h -7 v 3.704 h 7.969 v 2.593 H 25.348 v -14.39 H 35.91 Z"
         style="fill:#000000;fill-opacity:1;fill-rule:nonzero;stroke:none"
         id="path130"
         inkscape:connector-curvature="0" /><path
         d="m 42.277,211.582 c 0.645,0 1.219,0.148 1.719,0.438 0.508,0.281 0.922,0.671 1.234,1.171 v -5.078 h 2.813 v 14.375 H 45.34 v -1.468 c -0.399,0.625 -0.852,1.085 -1.36,1.375 -0.511,0.281 -1.14,0.421 -1.89,0.421 -1.242,0 -2.289,-0.5 -3.141,-1.5 -0.855,-1.007 -1.281,-2.3 -1.281,-3.875 0,-1.82 0.414,-3.253 1.25,-4.296 0.844,-1.04 1.961,-1.563 3.359,-1.563 z m 0.61,8.891 c 0.789,0 1.39,-0.289 1.797,-0.875 0.414,-0.582 0.625,-1.344 0.625,-2.282 0,-1.3 -0.336,-2.226 -1,-2.781 -0.399,-0.344 -0.868,-0.515 -1.407,-0.515 -0.812,0 -1.414,0.308 -1.797,0.921 -0.375,0.618 -0.562,1.383 -0.562,2.297 0,0.981 0.191,1.766 0.578,2.36 0.395,0.586 0.984,0.875 1.766,0.875 z"
         style="fill:#000000;fill-opacity:1;fill-rule:nonzero;stroke:none"
         id="path132"
         inkscape:connector-curvature="0" /><path
         d="m 53.336,211.848 v 6.406 c 0,0.605 0.066,1.062 0.203,1.375 0.258,0.543 0.758,0.812 1.5,0.812 0.945,0 1.598,-0.382 1.953,-1.156 0.188,-0.414 0.281,-0.969 0.281,-1.656 v -5.781 h 2.813 v 10.64 h -2.703 v -1.5 c -0.024,0.032 -0.086,0.133 -0.188,0.297 -0.105,0.156 -0.23,0.297 -0.375,0.422 -0.437,0.387 -0.859,0.652 -1.265,0.797 -0.407,0.144 -0.887,0.219 -1.438,0.219 -1.574,0 -2.633,-0.567 -3.172,-1.703 -0.312,-0.625 -0.468,-1.547 -0.468,-2.766 v -6.406 z m 1.953,-0.282 z"
         style="fill:#000000;fill-opacity:1;fill-rule:nonzero;stroke:none"
         id="path134"
         inkscape:connector-curvature="0" /><path
         d="m 69.113,215.66 c -0.054,-0.394 -0.187,-0.754 -0.406,-1.078 -0.312,-0.426 -0.797,-0.641 -1.453,-0.641 -0.938,0 -1.578,0.465 -1.922,1.391 -0.18,0.5 -0.266,1.164 -0.266,1.984 0,0.782 0.086,1.407 0.266,1.875 0.332,0.887 0.957,1.329 1.875,1.329 0.656,0 1.117,-0.172 1.391,-0.516 0.269,-0.352 0.437,-0.813 0.5,-1.375 h 2.843 c -0.074,0.844 -0.382,1.648 -0.921,2.406 -0.875,1.219 -2.168,1.828 -3.875,1.828 -1.719,0 -2.985,-0.504 -3.797,-1.515 -0.805,-1.02 -1.203,-2.344 -1.203,-3.969 0,-1.832 0.445,-3.254 1.343,-4.266 0.895,-1.019 2.125,-1.531 3.688,-1.531 1.332,0 2.426,0.305 3.281,0.906 0.852,0.594 1.359,1.653 1.516,3.172 z m -1.89,-4.094 z"
         style="fill:#000000;fill-opacity:1;fill-rule:nonzero;stroke:none"
         id="path136"
         inkscape:connector-curvature="0" /><path
         d="m 79.75,217.316 c -0.18,0.106 -0.355,0.196 -0.531,0.266 -0.18,0.063 -0.422,0.125 -0.735,0.188 l -0.625,0.125 c -0.593,0.105 -1.015,0.23 -1.265,0.375 -0.43,0.25 -0.641,0.648 -0.641,1.187 0,0.469 0.129,0.813 0.391,1.031 0.258,0.211 0.582,0.313 0.968,0.313 0.594,0 1.141,-0.176 1.641,-0.531 0.508,-0.352 0.774,-0.993 0.797,-1.922 z m -1.688,-1.296 c 0.508,-0.071 0.876,-0.157 1.094,-0.25 0.395,-0.165 0.594,-0.43 0.594,-0.797 0,-0.438 -0.152,-0.735 -0.453,-0.891 -0.305,-0.164 -0.746,-0.25 -1.328,-0.25 -0.657,0 -1.121,0.164 -1.391,0.484 -0.199,0.243 -0.328,0.563 -0.39,0.969 H 73.5 c 0.051,-0.926 0.312,-1.691 0.781,-2.297 0.727,-0.937 1.989,-1.406 3.781,-1.406 1.165,0 2.204,0.234 3.11,0.703 0.906,0.461 1.359,1.328 1.359,2.61 v 4.89 c 0,0.336 0.004,0.746 0.016,1.235 0.019,0.367 0.078,0.617 0.172,0.75 0.093,0.125 0.226,0.23 0.406,0.312 v 0.406 h -3.031 c -0.086,-0.218 -0.141,-0.422 -0.172,-0.609 -0.031,-0.188 -0.059,-0.399 -0.078,-0.641 -0.387,0.418 -0.828,0.774 -1.328,1.063 -0.594,0.344 -1.274,0.515 -2.032,0.515 -0.961,0 -1.757,-0.273 -2.39,-0.812 -0.625,-0.551 -0.938,-1.332 -0.938,-2.344 0,-1.312 0.504,-2.258 1.516,-2.844 0.551,-0.32 1.363,-0.55 2.437,-0.687 z m 0.141,-4.454 z"
         style="fill:#000000;fill-opacity:1;fill-rule:nonzero;stroke:none"
         id="path138"
         inkscape:connector-curvature="0" /><path
         d="m 83.961,213.926 v -1.985 h 1.484 v -2.968 h 2.75 v 2.968 h 1.735 v 1.985 h -1.735 v 5.625 c 0,0.437 0.055,0.711 0.172,0.812 0.113,0.106 0.453,0.157 1.016,0.157 0.082,0 0.172,0 0.265,0 0.094,0 0.188,-0.004 0.282,-0.016 v 2.078 l -1.313,0.047 c -1.324,0.051 -2.226,-0.172 -2.703,-0.672 -0.312,-0.32 -0.469,-0.816 -0.469,-1.484 v -6.547 z"
         style="fill:#000000;fill-opacity:1;fill-rule:nonzero;stroke:none"
         id="path140"
         inkscape:connector-curvature="0" /><path
         d="m 94.574,210.566 h -2.812 v -2.562 h 2.812 z m -2.812,1.282 h 2.812 v 10.64 h -2.812 z"
         style="fill:#000000;fill-opacity:1;fill-rule:nonzero;stroke:none"
         id="path142"
         inkscape:connector-curvature="0" /><path
         d="m 102.035,220.52 c 0.813,0 1.438,-0.286 1.875,-0.86 0.438,-0.582 0.656,-1.406 0.656,-2.469 0,-1.07 -0.218,-1.894 -0.656,-2.468 -0.437,-0.582 -1.062,-0.875 -1.875,-0.875 -0.812,0 -1.445,0.293 -1.89,0.875 -0.438,0.574 -0.657,1.398 -0.657,2.468 0,1.063 0.219,1.887 0.657,2.469 0.445,0.574 1.078,0.86 1.89,0.86 z m 5.453,-3.329 c 0,1.563 -0.453,2.903 -1.359,4.016 -0.899,1.105 -2.262,1.656 -4.094,1.656 -1.824,0 -3.187,-0.551 -4.094,-1.656 -0.898,-1.113 -1.343,-2.453 -1.343,-4.016 0,-1.539 0.445,-2.875 1.343,-4 0.907,-1.125 2.27,-1.687 4.094,-1.687 1.832,0 3.195,0.562 4.094,1.687 0.906,1.125 1.359,2.461 1.359,4 z m -5.453,-5.625 z"
         style="fill:#000000;fill-opacity:1;fill-rule:nonzero;stroke:none"
         id="path144"
         inkscape:connector-curvature="0" /><path
         d="m 115.363,211.582 c 1.094,0 1.989,0.293 2.688,0.875 0.707,0.574 1.062,1.527 1.062,2.859 v 7.172 h -2.859 v -6.468 c 0,-0.563 -0.074,-0.993 -0.219,-1.297 -0.273,-0.539 -0.793,-0.813 -1.562,-0.813 -0.95,0 -1.602,0.399 -1.953,1.188 -0.18,0.429 -0.266,0.968 -0.266,1.625 v 5.765 h -2.781 v -10.625 h 2.687 v 1.547 c 0.363,-0.539 0.703,-0.93 1.016,-1.172 0.57,-0.437 1.301,-0.656 2.187,-0.656 z m -1.031,-0.016 z"
         style="fill:#000000;fill-opacity:1;fill-rule:nonzero;stroke:none"
         id="path146"
         inkscape:connector-curvature="0" /><path
         d="m 1.418,317.48 v -51.023 h 141.73 V 366.68 l -3.429,0.89 c -1.883,0.492 -33.774,0.903 -70.864,0.914 l -67.437,0.02 z"
         style="fill:#858c90;fill-opacity:0.23809503;fill-rule:nonzero;stroke:none"
         id="path148"
         inkscape:connector-curvature="0" /><path
         d="m 11.332,318.355 c 0.094,0.657 0.27,1.149 0.531,1.469 0.489,0.594 1.328,0.891 2.516,0.891 0.707,0 1.285,-0.078 1.734,-0.235 0.832,-0.3 1.25,-0.859 1.25,-1.671 0,-0.477 -0.211,-0.848 -0.625,-1.11 -0.418,-0.25 -1.07,-0.472 -1.953,-0.672 l -1.531,-0.343 c -1.5,-0.332 -2.539,-0.696 -3.109,-1.094 -0.969,-0.664 -1.454,-1.707 -1.454,-3.125 0,-1.281 0.469,-2.348 1.407,-3.203 0.937,-0.852 2.316,-1.282 4.14,-1.282 1.508,0 2.801,0.403 3.875,1.204 1.071,0.804 1.633,1.968 1.688,3.5 H 16.91 c -0.055,-0.864 -0.433,-1.477 -1.14,-1.844 -0.469,-0.238 -1.055,-0.36 -1.75,-0.36 -0.774,0 -1.391,0.157 -1.86,0.469 -0.461,0.313 -0.687,0.75 -0.687,1.313 0,0.511 0.226,0.89 0.687,1.14 0.289,0.18 0.914,0.375 1.875,0.594 l 2.485,0.609 c 1.082,0.262 1.898,0.606 2.453,1.032 0.863,0.679 1.297,1.664 1.297,2.953 0,1.312 -0.508,2.406 -1.516,3.281 -1,0.867 -2.422,1.297 -4.266,1.297 -1.875,0 -3.351,-0.426 -4.422,-1.281 -1.074,-0.864 -1.609,-2.039 -1.609,-3.532 z m 2.922,-10.39 z"
         style="fill:#000000;fill-opacity:1;fill-rule:nonzero;stroke:none"
         id="path150"
         inkscape:connector-curvature="0" /><path
         d="m 27.027,320.824 c 0.813,0 1.438,-0.285 1.875,-0.859 0.438,-0.582 0.657,-1.406 0.657,-2.469 0,-1.07 -0.219,-1.894 -0.657,-2.469 -0.437,-0.582 -1.062,-0.875 -1.875,-0.875 -0.812,0 -1.445,0.293 -1.89,0.875 -0.438,0.575 -0.657,1.399 -0.657,2.469 0,1.063 0.219,1.887 0.657,2.469 0.445,0.574 1.078,0.859 1.89,0.859 z m 5.453,-3.328 c 0,1.563 -0.453,2.902 -1.359,4.016 -0.898,1.105 -2.262,1.656 -4.094,1.656 -1.824,0 -3.187,-0.551 -4.093,-1.656 -0.899,-1.114 -1.344,-2.453 -1.344,-4.016 0,-1.539 0.445,-2.875 1.344,-4 0.906,-1.125 2.269,-1.687 4.093,-1.687 1.832,0 3.196,0.562 4.094,1.687 0.906,1.125 1.359,2.461 1.359,4 z m -5.453,-5.625 z"
         style="fill:#000000;fill-opacity:1;fill-rule:nonzero;stroke:none"
         id="path152"
         inkscape:connector-curvature="0" /><path
         d="m 40.805,315.965 c -0.055,-0.395 -0.188,-0.754 -0.407,-1.078 -0.312,-0.426 -0.796,-0.641 -1.453,-0.641 -0.937,0 -1.578,0.465 -1.922,1.391 -0.179,0.5 -0.265,1.164 -0.265,1.984 0,0.781 0.086,1.406 0.265,1.875 0.332,0.887 0.957,1.328 1.875,1.328 0.657,0 1.118,-0.172 1.391,-0.515 0.27,-0.352 0.438,-0.813 0.5,-1.375 h 2.844 c -0.074,0.843 -0.383,1.648 -0.922,2.406 -0.875,1.219 -2.168,1.828 -3.875,1.828 -1.719,0 -2.984,-0.504 -3.797,-1.516 -0.805,-1.019 -1.203,-2.343 -1.203,-3.968 0,-1.832 0.445,-3.254 1.344,-4.266 0.894,-1.02 2.125,-1.531 3.687,-1.531 1.332,0 2.426,0.304 3.281,0.906 0.852,0.594 1.36,1.652 1.516,3.172 z m -1.891,-4.094 z"
         style="fill:#000000;fill-opacity:1;fill-rule:nonzero;stroke:none"
         id="path154"
         inkscape:connector-curvature="0" /><path
         d="m 48.426,310.871 h -2.813 v -2.562 h 2.813 z m -2.813,1.281 h 2.813 v 10.641 h -2.813 z"
         style="fill:#000000;fill-opacity:1;fill-rule:nonzero;stroke:none"
         id="path156"
         inkscape:connector-curvature="0" /><path
         d="m 56.98,317.621 c -0.179,0.106 -0.355,0.195 -0.531,0.266 -0.179,0.062 -0.422,0.125 -0.734,0.187 l -0.625,0.125 c -0.594,0.106 -1.016,0.231 -1.266,0.375 -0.429,0.25 -0.64,0.649 -0.64,1.188 0,0.468 0.128,0.812 0.39,1.031 0.258,0.211 0.582,0.312 0.969,0.312 0.594,0 1.141,-0.175 1.641,-0.531 0.507,-0.351 0.773,-0.992 0.796,-1.922 z m -1.687,-1.297 c 0.508,-0.07 0.875,-0.156 1.094,-0.25 0.394,-0.164 0.593,-0.429 0.593,-0.797 0,-0.437 -0.152,-0.734 -0.453,-0.89 -0.304,-0.164 -0.746,-0.25 -1.328,-0.25 -0.656,0 -1.121,0.164 -1.39,0.484 -0.2,0.242 -0.329,0.563 -0.391,0.969 H 50.73 c 0.051,-0.926 0.313,-1.692 0.782,-2.297 0.726,-0.938 1.988,-1.406 3.781,-1.406 1.164,0 2.203,0.234 3.109,0.703 0.907,0.461 1.36,1.328 1.36,2.609 v 4.891 c 0,0.336 0.004,0.746 0.015,1.234 0.02,0.367 0.078,0.617 0.172,0.75 0.094,0.125 0.227,0.231 0.406,0.313 v 0.406 h -3.031 c -0.086,-0.219 -0.14,-0.422 -0.172,-0.609 -0.031,-0.188 -0.058,-0.399 -0.078,-0.641 -0.386,0.418 -0.828,0.773 -1.328,1.062 -0.594,0.344 -1.273,0.516 -2.031,0.516 -0.961,0 -1.758,-0.273 -2.391,-0.812 -0.625,-0.551 -0.937,-1.332 -0.937,-2.344 0,-1.313 0.504,-2.258 1.515,-2.844 0.551,-0.32 1.364,-0.551 2.438,-0.687 z m 0.141,-4.453 z"
         style="fill:#000000;fill-opacity:1;fill-rule:nonzero;stroke:none"
         id="path158"
         inkscape:connector-curvature="0" /><path
         d="m 62.289,308.402 h 2.781 v 14.391 h -2.781 z"
         style="fill:#000000;fill-opacity:1;fill-rule:nonzero;stroke:none"
         id="path160"
         inkscape:connector-curvature="0" /><path
         d="m 76.293,322.793 h -2.984 v -14.391 h 2.984 z m -1.5,-14.672 z"
         style="fill:#000000;fill-opacity:1;fill-rule:nonzero;stroke:none"
         id="path162"
         inkscape:connector-curvature="0" /><path
         d="m 90.738,311.918 c 0.469,0 0.93,0.094 1.391,0.281 0.457,0.18 0.875,0.492 1.25,0.938 0.289,0.375 0.488,0.836 0.594,1.375 0.07,0.355 0.109,0.883 0.109,1.578 l -0.031,6.703 h -2.844 v -6.781 c 0,-0.407 -0.07,-0.739 -0.203,-1 -0.242,-0.489 -0.695,-0.735 -1.359,-0.735 -0.774,0 -1.305,0.321 -1.594,0.953 -0.149,0.344 -0.219,0.75 -0.219,1.219 v 6.344 H 85.02 v -6.344 c 0,-0.625 -0.063,-1.082 -0.188,-1.375 -0.242,-0.508 -0.699,-0.765 -1.375,-0.765 -0.805,0 -1.34,0.257 -1.609,0.765 -0.149,0.293 -0.219,0.731 -0.219,1.313 v 6.406 h -2.828 v -10.625 h 2.703 v 1.547 c 0.344,-0.551 0.672,-0.942 0.984,-1.172 0.539,-0.414 1.239,-0.625 2.094,-0.625 0.813,0 1.469,0.18 1.969,0.531 0.406,0.336 0.711,0.762 0.922,1.281 0.363,-0.625 0.816,-1.082 1.359,-1.375 0.57,-0.289 1.207,-0.437 1.906,-0.437 z"
         style="fill:#000000;fill-opacity:1;fill-rule:nonzero;stroke:none"
         id="path164"
         inkscape:connector-curvature="0" /><path
         d="m 103.973,317.465 c 0,-0.813 -0.188,-1.535 -0.563,-2.172 -0.375,-0.633 -0.984,-0.953 -1.828,-0.953 -1.012,0 -1.703,0.48 -2.078,1.437 -0.199,0.512 -0.297,1.157 -0.297,1.938 0,1.242 0.328,2.109 0.984,2.609 0.395,0.293 0.86,0.438 1.391,0.438 0.77,0 1.359,-0.297 1.766,-0.891 0.414,-0.601 0.625,-1.406 0.625,-2.406 z m -1.594,-5.547 c 1.25,0 2.301,0.461 3.156,1.375 0.863,0.918 1.297,2.266 1.297,4.047 0,1.875 -0.422,3.305 -1.266,4.281 -0.843,0.981 -1.929,1.469 -3.25,1.469 -0.843,0 -1.546,-0.211 -2.109,-0.625 -0.305,-0.238 -0.605,-0.582 -0.906,-1.031 v 5.546 h -2.75 v -14.828 h 2.672 v 1.563 c 0.3,-0.457 0.617,-0.82 0.953,-1.094 0.613,-0.469 1.347,-0.703 2.203,-0.703 z"
         style="fill:#000000;fill-opacity:1;fill-rule:nonzero;stroke:none"
         id="path166"
         inkscape:connector-curvature="0" /><path
         d="m 114.703,317.621 c -0.18,0.106 -0.355,0.195 -0.531,0.266 -0.18,0.062 -0.422,0.125 -0.734,0.187 l -0.626,0.125 c -0.593,0.106 -1.015,0.231 -1.265,0.375 -0.43,0.25 -0.641,0.649 -0.641,1.188 0,0.468 0.129,0.812 0.391,1.031 0.258,0.211 0.582,0.312 0.969,0.312 0.593,0 1.14,-0.175 1.64,-0.531 0.508,-0.351 0.774,-0.992 0.797,-1.922 z m -1.687,-1.297 c 0.507,-0.07 0.875,-0.156 1.093,-0.25 0.395,-0.164 0.594,-0.429 0.594,-0.797 0,-0.437 -0.152,-0.734 -0.453,-0.89 -0.305,-0.164 -0.746,-0.25 -1.328,-0.25 -0.656,0 -1.121,0.164 -1.391,0.484 -0.199,0.242 -0.328,0.563 -0.39,0.969 h -2.688 c 0.051,-0.926 0.313,-1.692 0.781,-2.297 0.727,-0.938 1.989,-1.406 3.782,-1.406 1.164,0 2.203,0.234 3.109,0.703 0.906,0.461 1.359,1.328 1.359,2.609 v 4.891 c 0,0.336 0.004,0.746 0.016,1.234 0.02,0.367 0.078,0.617 0.172,0.75 0.094,0.125 0.226,0.231 0.406,0.313 v 0.406 h -3.031 c -0.086,-0.219 -0.141,-0.422 -0.172,-0.609 -0.031,-0.188 -0.059,-0.399 -0.078,-0.641 -0.387,0.418 -0.828,0.773 -1.328,1.062 -0.594,0.344 -1.274,0.516 -2.031,0.516 -0.961,0 -1.758,-0.273 -2.391,-0.812 -0.625,-0.551 -0.938,-1.332 -0.938,-2.344 0,-1.313 0.504,-2.258 1.516,-2.844 0.551,-0.32 1.363,-0.551 2.437,-0.687 z m 0.14,-4.453 z"
         style="fill:#000000;fill-opacity:1;fill-rule:nonzero;stroke:none"
         id="path168"
         inkscape:connector-curvature="0" /><path
         d="m 126.305,315.965 c -0.055,-0.395 -0.188,-0.754 -0.407,-1.078 -0.312,-0.426 -0.796,-0.641 -1.453,-0.641 -0.937,0 -1.578,0.465 -1.922,1.391 -0.179,0.5 -0.265,1.164 -0.265,1.984 0,0.781 0.086,1.406 0.265,1.875 0.332,0.887 0.957,1.328 1.875,1.328 0.657,0 1.118,-0.172 1.391,-0.515 0.27,-0.352 0.438,-0.813 0.5,-1.375 h 2.844 c -0.074,0.843 -0.383,1.648 -0.922,2.406 -0.875,1.219 -2.168,1.828 -3.875,1.828 -1.719,0 -2.984,-0.504 -3.797,-1.516 -0.805,-1.019 -1.203,-2.343 -1.203,-3.968 0,-1.832 0.445,-3.254 1.344,-4.266 0.894,-1.02 2.125,-1.531 3.687,-1.531 1.332,0 2.426,0.304 3.281,0.906 0.852,0.594 1.36,1.652 1.516,3.172 z m -1.891,-4.094 z"
         style="fill:#000000;fill-opacity:1;fill-rule:nonzero;stroke:none"
         id="path170"
         inkscape:connector-curvature="0" /><path
         d="m 129.973,314.23 v -1.984 h 1.484 v -2.969 h 2.75 v 2.969 h 1.734 v 1.984 h -1.734 v 5.625 c 0,0.438 0.055,0.711 0.172,0.813 0.113,0.105 0.453,0.156 1.016,0.156 0.082,0 0.171,0 0.265,0 0.094,0 0.188,-0.004 0.281,-0.015 v 2.078 l -1.312,0.047 c -1.324,0.05 -2.227,-0.172 -2.703,-0.672 -0.313,-0.321 -0.469,-0.817 -0.469,-1.485 v -6.547 z"
         style="fill:#000000;fill-opacity:1;fill-rule:nonzero;stroke:none"
         id="path172"
         inkscape:connector-curvature="0" /><g
         id="g174"><path
           d="M 293.242,62.363 V 368.504"
           style="fill:none;stroke:#000000;stroke-width:0.85039401;stroke-linecap:butt;stroke-linejoin:miter;stroke-miterlimit:4;stroke-dasharray:5.102362, 5.102362;stroke-dashoffset:0;stroke-opacity:1"
           id="path176"
           inkscape:connector-curvature="0" /></g><g
         id="g186"><path
           d="M 746.789,62.363 V 368.504"
           style="fill:none;stroke:#000000;stroke-width:0.85039401;stroke-linecap:butt;stroke-linejoin:miter;stroke-miterlimit:4;stroke-dasharray:5.102362, 5.102362;stroke-dashoffset:0;stroke-opacity:1"
           id="path188"
           inkscape:connector-curvature="0" /></g><path
         d="m 410.79018,63.698997 h 334.04985 v 32.598 H 410.79018 Z"
         style="fill:#93d0d6;fill-opacity:1;fill-rule:nonzero;stroke:none;stroke-width:1.05142558"
         id="path196"
         inkscape:connector-curvature="0" /><path
         d="m 746.555,97.797 h 302.176 v 32.598 H 746.555 Z"
         style="fill:#94d0d6;fill-opacity:1;fill-rule:nonzero;stroke:none"
         id="path264"
         inkscape:connector-curvature="0" /><path
         d="m 194.38282,96.214 h 451.47951 v 32.598 H 194.38282 Z"
         style="fill:#94d0d6;fill-opacity:1;fill-rule:nonzero;stroke:none;stroke-width:1.22233963"
         id="path304"
         inkscape:connector-curvature="0" /><path
         d="M 141.73,63.781 H 410.92891 V 96.379 H 141.73 Z"
         style="fill:#93d0d6;fill-opacity:1;fill-rule:nonzero;stroke:none;stroke-width:0.94385803"
         id="path348"
         inkscape:connector-curvature="0" /><path
         d="M 194.29122,130.312 H 419.02604 V 162.91 H 194.29122 Z"
         style="fill:#93d0d6;fill-opacity:1;fill-rule:nonzero;stroke:none;stroke-width:1.21961594"
         id="path412"
         inkscape:connector-curvature="0" /><path
         d="M 749.05212,131.812 H 1048.535 V 164.41 H 749.05212 Z"
         style="fill:#93d0d6;fill-opacity:1;fill-rule:nonzero;stroke:none;stroke-width:1.40790677"
         id="path438"
         inkscape:connector-curvature="0" /><path
         d="m 292.82,165.828 h 453.543 v 32.598 H 292.82 Z"
         style="fill:#ffa164;fill-opacity:1;fill-rule:nonzero;stroke:none"
         id="path464"
         inkscape:connector-curvature="0" /><path
         d="m 747.781,165.828 h 300.754 v 32.598 H 747.781 Z"
         style="fill:#ffa164;fill-opacity:1;fill-rule:nonzero;stroke:none"
         id="path510"
         inkscape:connector-curvature="0" /><path
         d="M 746.39541,233.859 H 1048.891 v 32.598 H 746.39541 Z"
         style="fill:#ffa164;fill-opacity:1;fill-rule:nonzero;stroke:none;stroke-width:1.41630709"
         id="path620"
         inkscape:connector-curvature="0" /><path
         d="m 294.37455,267.875 h 351.82623 v 32.598 H 294.37455 Z"
         style="fill:#afc6e9;fill-opacity:1;fill-rule:nonzero;stroke:none;stroke-width:1.07903862"
         id="path660"
         inkscape:connector-curvature="0" /><path
         d="m 293.88199,301.891 h 351.67487 v 32.598 H 293.88199 Z"
         style="fill:#afc6e9;fill-opacity:1;fill-rule:nonzero;stroke:none;stroke-width:1.52566266"
         id="path714"
         inkscape:connector-curvature="0" /><path
         d="M 747.44512,302.434 H 1048.535 v 32.598 H 747.44512 Z"
         style="fill:#afc6e9;fill-opacity:1;fill-rule:nonzero;stroke:none;stroke-width:1.41167915"
         id="path754"
         inkscape:connector-curvature="0" /><path
         d="m 193.7505,335.12872 h 755.293 v 32.598 h -755.293 z"
         style="fill:#afc6e9;fill-opacity:1;fill-rule:nonzero;stroke:none;stroke-width:0.99972075"
         id="path756"
         inkscape:connector-curvature="0" /><path
         d="M 747.46224,269.375 H 1048.535 v 32.598 H 747.46224 Z"
         style="fill:#afc6e9;fill-opacity:1;fill-rule:nonzero;stroke:none;stroke-width:0.99817944"
         id="path886"
         inkscape:connector-curvature="0" /><text
         xml:space="preserve"
         style="font-style:normal;font-variant:normal;font-weight:normal;font-stretch:normal;font-size:15px;line-height:1.25;font-family:sans-serif;-inkscape-font-specification:sans-serif;letter-spacing:0px;word-spacing:0px;fill:#000000;fill-opacity:1;stroke:none;stroke-width:0.75"
         x="270.49249"
         y="53.941925"
         id="text1841"><tspan
           sodipodi:role="line"
           id="tspan1839"
           x="270.49249"
           y="53.941925"
           style="font-size:15px;stroke-width:0.75">2022</tspan></text>
<text
         xml:space="preserve"
         style="font-style:normal;font-variant:normal;font-weight:normal;font-stretch:normal;font-size:15px;line-height:1.25;font-family:sans-serif;-inkscape-font-specification:sans-serif;letter-spacing:0px;word-spacing:0px;fill:#000000;fill-opacity:1;stroke:none;stroke-width:0.75"
         x="429.05704"
         y="53.941925"
         id="text1845"><tspan
           sodipodi:role="line"
           id="tspan1843"
           x="429.05704"
           y="53.941925"
           style="font-size:15px;stroke-width:0.75">2023</tspan></text>
<text
         xml:space="preserve"
         style="font-style:normal;font-variant:normal;font-weight:normal;font-stretch:normal;font-size:15px;line-height:1.25;font-family:sans-serif;-inkscape-font-specification:sans-serif;letter-spacing:0px;word-spacing:0px;fill:#000000;fill-opacity:1;stroke:none;stroke-width:0.75"
         x="568.96704"
         y="53.941925"
         id="text1849"><tspan
           sodipodi:role="line"
           id="tspan1847"
           x="568.96704"
           y="53.941925"
           style="font-size:15px;stroke-width:0.75">2024</tspan></text>
<text
         xml:space="preserve"
         style="font-style:normal;font-variant:normal;font-weight:normal;font-stretch:normal;font-size:15px;line-height:1.25;font-family:sans-serif;-inkscape-font-specification:sans-serif;letter-spacing:0px;word-spacing:0px;fill:#000000;fill-opacity:1;stroke:none;stroke-width:0.75"
         x="733.74982"
         y="55.387371"
         id="text1853"><tspan
           sodipodi:role="line"
           id="tspan1851"
           x="733.74982"
           y="55.387371"
           style="font-size:15px;stroke-width:0.75">2025</tspan></text>
<text
         xml:space="preserve"
         style="font-style:normal;font-variant:normal;font-weight:normal;font-stretch:normal;font-size:15px;line-height:1.25;font-family:sans-serif;-inkscape-font-specification:sans-serif;letter-spacing:0px;word-spacing:0px;fill:#000000;fill-opacity:1;stroke:none;stroke-width:0.75"
         x="884.54163"
         y="53.941925"
         id="text1857"><tspan
           sodipodi:role="line"
           id="tspan1855"
           x="884.54163"
           y="53.941925"
           style="font-size:15px;stroke-width:0.75">2026</tspan></text>
<text
         xml:space="preserve"
         style="font-style:normal;font-variant:normal;font-weight:normal;font-stretch:normal;font-size:17px;line-height:1.25;font-family:sans-serif;-inkscape-font-specification:sans-serif;letter-spacing:0px;word-spacing:0px;fill:#000000;fill-opacity:1;stroke:none;stroke-width:0.75"
         x="168.18314"
         y="85.048729"
         id="text1861"><tspan
           sodipodi:role="line"
           id="tspan1859"
           x="168.18314"
           y="85.048729"
           style="font-size:17px;stroke-width:0.75">aim 1. parametric models</tspan></text>
<text
         xml:space="preserve"
         style="font-style:normal;font-variant:normal;font-weight:normal;font-stretch:normal;font-size:17px;line-height:1.25;font-family:sans-serif;-inkscape-font-specification:sans-serif;letter-spacing:0px;word-spacing:0px;fill:#000000;fill-opacity:1;stroke:none;stroke-width:0.75"
         x="449.58759"
         y="85.449486"
         id="text1865"><tspan
           sodipodi:role="line"
           id="tspan1863"
           x="449.58759"
           y="85.449486"
           style="font-size:17px;stroke-width:0.75">aim 2. nonparametric models</tspan></text>
<rect
         style="opacity:1;fill:#94d0d6;fill-opacity:1;stroke:none;stroke-width:0.8513546;stroke-miterlimit:4;stroke-dasharray:10.2162541, 10.2162541;stroke-dashoffset:0;stroke-opacity:1"
         id="rect1867"
         width="300.89102"
         height="32.93853"
         x="747.84003"
         y="64.858467" /><text
         xml:space="preserve"
         style="font-style:normal;font-variant:normal;font-weight:normal;font-stretch:normal;font-size:16.99998474px;line-height:1.25;font-family:sans-serif;-inkscape-font-specification:sans-serif;letter-spacing:0px;word-spacing:0px;fill:#000000;fill-opacity:1;stroke:none;stroke-width:0.75"
         x="763.96906"
         y="85.048721"
         id="text1871"><tspan
           sodipodi:role="line"
           id="tspan1869"
           x="763.96906"
           y="85.048721"
           style="font-size:16.99998474px;stroke-width:0.75">aim 3. tensor data integration</tspan></text>
<text
         xml:space="preserve"
         style="font-style:normal;font-variant:normal;font-weight:normal;font-stretch:normal;font-size:16px;line-height:1.25;font-family:sans-serif;-inkscape-font-specification:sans-serif;letter-spacing:0px;word-spacing:0px;fill:#000000;fill-opacity:1;stroke:none;stroke-width:0.75"
         x="797.33545"
         y="118.02581"
         id="text1875"><tspan
           sodipodi:role="line"
           id="tspan1873"
           x="797.33545"
           y="118.02581"
           style="font-size:16px;stroke-width:0.75">neural network algorithm</tspan></text>
<text
         xml:space="preserve"
         style="font-style:normal;font-variant:normal;font-weight:normal;font-stretch:normal;font-size:16px;line-height:1.25;font-family:sans-serif;-inkscape-font-specification:sans-serif;letter-spacing:0px;word-spacing:0px;fill:#000000;fill-opacity:1;stroke:none;stroke-width:0.75"
         x="219.8472"
         y="121.0258"
         id="text1879"><tspan
           sodipodi:role="line"
           id="tspan1877"
           x="219.8472"
           y="121.0258"
           style="font-size:16px;stroke-width:0.75">non-convex optimization with accuracy gaurantees</tspan></text>
<rect
         style="opacity:1;fill:#94d0d6;fill-opacity:1;stroke:none;stroke-width:1.19130707;stroke-miterlimit:4;stroke-dasharray:14.2956842, 14.2956842;stroke-dashoffset:0;stroke-opacity:1"
         id="rect1885"
         width="326.63849"
         height="32.300312"
         x="419.02603"
         y="130.6097" /><text
         xml:space="preserve"
         style="font-style:normal;font-variant:normal;font-weight:normal;font-stretch:normal;font-size:16px;line-height:1.25;font-family:sans-serif;-inkscape-font-specification:sans-serif;letter-spacing:0px;word-spacing:0px;fill:#000000;fill-opacity:1;stroke:none;stroke-width:0.75"
         x="217.14497"
         y="153.00668"
         id="text1889"><tspan
           sodipodi:role="line"
           id="tspan1887"
           x="217.14497"
           y="153.00668"
           style="font-size:16px;stroke-width:0.75">application to imaging</tspan></text>
<text
         xml:space="preserve"
         style="font-style:normal;font-variant:normal;font-weight:normal;font-stretch:normal;font-size:16px;line-height:1.25;font-family:sans-serif;-inkscape-font-specification:sans-serif;letter-spacing:0px;word-spacing:0px;fill:#000000;fill-opacity:1;stroke:none;stroke-width:0.75"
         x="795.83557"
         y="154.30058"
         id="text1893"><tspan
           sodipodi:role="line"
           id="tspan1891"
           x="795.83557"
           y="154.30058"
           style="font-size:16px;stroke-width:0.75">application to genomics</tspan></text>
<text
         xml:space="preserve"
         style="font-style:normal;font-variant:normal;font-weight:normal;font-stretch:normal;font-size:16px;line-height:1.25;font-family:sans-serif;-inkscape-font-specification:sans-serif;letter-spacing:0px;word-spacing:0px;fill:#000000;fill-opacity:1;stroke:none;stroke-width:0.75"
         x="435.29752"
         y="153.20137"
         id="text1897"><tspan
           sodipodi:role="line"
           id="tspan1895"
           x="435.29752"
           y="153.20137"
           style="font-size:16px;stroke-width:0.75">application to social network sciences</tspan></text>
<text
         xml:space="preserve"
         style="font-style:normal;font-variant:normal;font-weight:normal;font-stretch:normal;font-size:16px;line-height:1.25;font-family:sans-serif;-inkscape-font-specification:sans-serif;letter-spacing:0px;word-spacing:0px;fill:#000000;fill-opacity:1;stroke:none;stroke-width:0.75"
         x="295.49789"
         y="222.6111"
         id="text1901"><tspan
           sodipodi:role="line"
           id="tspan1899"
           x="295.49789"
           y="222.6111"
           style="font-size:16px;stroke-width:0.75">\undergraduate summer research</tspan></text>
<text
         xml:space="preserve"
         style="font-style:normal;font-variant:normal;font-weight:normal;font-stretch:normal;font-size:16px;line-height:1.25;font-family:sans-serif;-inkscape-font-specification:sans-serif;letter-spacing:0px;word-spacing:0px;fill:#000000;fill-opacity:1;stroke:none;stroke-width:0.75"
         x="299.99112"
         y="256.81131"
         id="text1905"><tspan
           sodipodi:role="line"
           id="tspan1903"
           x="299.99112"
           y="256.81131"
           style="font-size:16px;stroke-width:0.75">host undergraduates for summer research</tspan></text>
<text
         xml:space="preserve"
         style="font-style:normal;font-variant:normal;font-weight:normal;font-stretch:normal;font-size:15px;line-height:1.25;font-family:sans-serif;-inkscape-font-specification:sans-serif;letter-spacing:0px;word-spacing:0px;fill:#000000;fill-opacity:1;stroke:none;stroke-width:0.75"
         x="298.20776"
         y="323.20187"
         id="text1909"><tspan
           sodipodi:role="line"
           id="tspan1907"
           x="298.20776"
           y="323.20187"
           style="font-size:15px;stroke-width:0.75">develop cloud-based collaboration tools   </tspan></text>
<text
         xml:space="preserve"
         style="font-style:normal;font-variant:normal;font-weight:normal;font-stretch:normal;font-size:16px;line-height:1.25;font-family:sans-serif;-inkscape-font-specification:sans-serif;letter-spacing:0px;word-spacing:0px;fill:#000000;fill-opacity:1;stroke:none;stroke-width:0.75"
         x="795.57214"
         y="292.00281"
         id="text1154"><tspan
           sodipodi:role="line"
           id="tspan1152"
           x="795.57214"
           y="292.00281"
           style="font-size:16px;stroke-width:0.75">build data-driven prototypes</tspan></text>
<text
         xml:space="preserve"
         style="font-style:normal;font-variant:normal;font-weight:normal;font-stretch:normal;font-size:16px;line-height:1.25;font-family:sans-serif;-inkscape-font-specification:sans-serif;letter-spacing:0px;word-spacing:0px;fill:#000000;fill-opacity:1;stroke:none;stroke-width:0.75"
         x="298.99222"
         y="290.60587"
         id="text1158"><tspan
           sodipodi:role="line"
           id="tspan1156"
           x="298.99222"
           y="290.60587"
           style="font-size:16px;stroke-width:0.75">build system for multimodal data analysis</tspan></text>
<text
         xml:space="preserve"
         style="font-style:normal;font-variant:normal;font-weight:normal;font-stretch:normal;font-size:15px;line-height:1.25;font-family:sans-serif;-inkscape-font-specification:sans-serif;letter-spacing:0px;word-spacing:0px;fill:#000000;fill-opacity:1;stroke:none;stroke-width:0.75"
         x="155.0704"
         y="221.67596"
         id="text1162"><tspan
           sodipodi:role="line"
           id="tspan1160"
           x="155.0704"
           y="221.67596"
           style="font-size:15px;stroke-width:0.75">online tutorial </tspan></text>
<path
         d="m 294.23145,199.761 h 352.63681 v 32.598 H 294.23145 Z"
         style="fill:#ffa164;fill-opacity:1;fill-rule:nonzero;stroke:none;stroke-width:1.52774787"
         id="path26"
         inkscape:connector-curvature="0" /><text
         xml:space="preserve"
         style="font-style:normal;font-variant:normal;font-weight:normal;font-stretch:normal;font-size:16px;line-height:1.25;font-family:sans-serif;-inkscape-font-specification:sans-serif;letter-spacing:0px;word-spacing:0px;fill:#000000;fill-opacity:1;stroke:none;stroke-width:0.75"
         x="300.25647"
         y="222.13127"
         id="text1166"><tspan
           sodipodi:role="line"
           id="tspan1164"
           x="300.25647"
           y="222.13127"
           style="font-size:16px;stroke-width:0.75">diversity and inclusion in education </tspan></text>
<text
         xml:space="preserve"
         style="font-style:normal;font-variant:normal;font-weight:normal;font-stretch:normal;font-size:15px;line-height:1.25;font-family:sans-serif;-inkscape-font-specification:sans-serif;letter-spacing:0px;word-spacing:0px;fill:#000000;fill-opacity:1;stroke:none;stroke-width:0.75"
         x="797.92816"
         y="221.03204"
         id="text1170"><tspan
           sodipodi:role="line"
           id="tspan1168"
           x="797.92816"
           y="221.03204"
           style="font-size:15px;stroke-width:0.75">students' career development</tspan></text>
<text
         xml:space="preserve"
         style="font-style:normal;font-variant:normal;font-weight:normal;font-stretch:normal;font-size:16px;line-height:1.25;font-family:sans-serif;-inkscape-font-specification:sans-serif;letter-spacing:0px;word-spacing:0px;fill:#000000;fill-opacity:1;stroke:none;stroke-width:0.75"
         x="795.81476"
         y="187.31166"
         id="text1174"><tspan
           sodipodi:role="line"
           id="tspan1172"
           x="795.81476"
           y="187.31166"
           style="font-size:16px;stroke-width:0.75">create online courses</tspan></text>
<text
         xml:space="preserve"
         style="font-style:normal;font-variant:normal;font-weight:normal;font-stretch:normal;font-size:16px;line-height:1.25;font-family:sans-serif;-inkscape-font-specification:sans-serif;letter-spacing:0px;word-spacing:0px;fill:#000000;fill-opacity:1;stroke:none;stroke-width:0.75"
         x="797.49524"
         y="256.03403"
         id="text1178"><tspan
           sodipodi:role="line"
           id="tspan1176"
           x="797.49524"
           y="256.03403"
           style="font-size:16px;stroke-width:0.75">presentation at IFDS, Data Hub</tspan></text>
<text
         xml:space="preserve"
         style="font-style:normal;font-variant:normal;font-weight:normal;font-stretch:normal;font-size:16px;line-height:1.25;font-family:sans-serif;-inkscape-font-specification:sans-serif;letter-spacing:0px;word-spacing:0px;fill:#000000;fill-opacity:1;stroke:none;stroke-width:0.75"
         x="794.70056"
         y="325.2117"
         id="text1182"><tspan
           sodipodi:role="line"
           id="tspan1180"
           x="794.70056"
           y="325.2117"
           style="font-size:16px;stroke-width:0.75">release free software</tspan></text>
<text
         xml:space="preserve"
         style="font-style:normal;font-variant:normal;font-weight:normal;font-stretch:normal;font-size:16px;line-height:1.25;font-family:sans-serif;-inkscape-font-specification:sans-serif;letter-spacing:0px;word-spacing:0px;fill:#000000;fill-opacity:1;stroke:none;stroke-width:0.75"
         x="298.74728"
         y="358.68921"
         id="text1186"><tspan
           sodipodi:role="line"
           id="tspan1184"
           x="298.74728"
           y="358.68921"
           style="font-size:16px;stroke-width:0.75">disseminate research outcomes in academic conferences and public lectures </tspan></text>
<text
         xml:space="preserve"
         style="font-style:normal;font-variant:normal;font-weight:normal;font-stretch:normal;font-size:20px;line-height:1.25;font-family:sans-serif;-inkscape-font-specification:sans-serif;letter-spacing:0px;word-spacing:0px;fill:#000000;fill-opacity:1;stroke:none;stroke-width:0.75"
         x="806.8139"
         y="405.27127"
         id="text1190"><tspan
           sodipodi:role="line"
           id="tspan1188"
           x="806.8139"
           y="422.96658"
           style="stroke-width:0.75" /></text>
<text
         xml:space="preserve"
         style="font-style:normal;font-variant:normal;font-weight:normal;font-stretch:normal;font-size:15px;line-height:1.25;font-family:sans-serif;-inkscape-font-specification:sans-serif;letter-spacing:0px;word-spacing:0px;fill:#000000;fill-opacity:1;stroke:none;stroke-width:0.75"
         x="302.02591"
         y="188.37692"
         id="text961"><tspan
           sodipodi:role="line"
           id="tspan959"
           x="302.02591"
           y="188.37692"
           style="font-size:15px;stroke-width:0.75">develop new course on data sciences</tspan></text>
</g></g></svg>