<?xml version="1.0" encoding="UTF-8" standalone="no"?>
<!-- Created with Inkscape (http://www.inkscape.org/) -->

<svg
   xmlns:dc="http://purl.org/dc/elements/1.1/"
   xmlns:cc="http://creativecommons.org/ns#"
   xmlns:rdf="http://www.w3.org/1999/02/22-rdf-syntax-ns#"
   xmlns:svg="http://www.w3.org/2000/svg"
   xmlns="http://www.w3.org/2000/svg"
   xmlns:sodipodi="http://sodipodi.sourceforge.net/DTD/sodipodi-0.dtd"
   xmlns:inkscape="http://www.inkscape.org/namespaces/inkscape"
   width="84.700111mm"
   height="38.135799mm"
   viewBox="0 0 84.700111 38.135799"
   version="1.1"
   id="svg8"
   inkscape:version="0.92.5 (2060ec1f9f, 2020-04-08)"
   sodipodi:docname="figure2.svg">
  <defs
     id="defs2">
    <clipPath
       id="clipPath20"
       clipPathUnits="userSpaceOnUse">
      <path
         inkscape:connector-curvature="0"
         id="path18"
         d="m 106.742,79.87 h 59.066 V 16.12 h -59.066 z" />
    </clipPath>
    <clipPath
       id="clipPath30"
       clipPathUnits="userSpaceOnUse">
      <path
         inkscape:connector-curvature="0"
         id="path28"
         d="m 106,16 h 61 v 66 h -61 z" />
    </clipPath>
    <clipPath
       id="clipPath40"
       clipPathUnits="userSpaceOnUse">
      <path
         inkscape:connector-curvature="0"
         id="path38"
         d="m 106.539,81.801 h 59.5 v -65.57 h -59.5 z" />
    </clipPath>
    <clipPath
       id="clipPath50"
       clipPathUnits="userSpaceOnUse">
      <path
         inkscape:connector-curvature="0"
         id="path48"
         d="m 106,16 h 60 v 65 h -60 z" />
    </clipPath>
    <clipPath
       id="clipPath60"
       clipPathUnits="userSpaceOnUse">
      <path
         inkscape:connector-curvature="0"
         id="path58"
         d="m 106.742,80.629 h 59.066 v -63.75 h -59.066 z" />
    </clipPath>
    <clipPath
       id="clipPath70"
       clipPathUnits="userSpaceOnUse">
      <path
         inkscape:connector-curvature="0"
         id="path68"
         d="m 106,16 h 60 v 65 h -60 z" />
    </clipPath>
    <clipPath
       id="clipPath80"
       clipPathUnits="userSpaceOnUse">
      <path
         inkscape:connector-curvature="0"
         id="path78"
         d="m 106.742,80.629 h 59.066 v -63.75 h -59.066 z" />
    </clipPath>
    <clipPath
       id="clipPath92"
       clipPathUnits="userSpaceOnUse">
      <path
         inkscape:connector-curvature="0"
         id="path90"
         d="M 0.074,79.131 H 59.058 V 15.381 H 0.074 Z" />
    </clipPath>
    <clipPath
       id="clipPath102"
       clipPathUnits="userSpaceOnUse">
      <path
         inkscape:connector-curvature="0"
         id="path100"
         d="M 0,15 H 61 V 81 H 0 Z" />
    </clipPath>
    <clipPath
       id="clipPath112"
       clipPathUnits="userSpaceOnUse">
      <path
         inkscape:connector-curvature="0"
         id="path110"
         d="M 0,80.746 H 60.184 V 15.172 H 0 Z" />
    </clipPath>
    <clipPath
       id="clipPath122"
       clipPathUnits="userSpaceOnUse">
      <path
         inkscape:connector-curvature="0"
         id="path120"
         d="M 0,16 H 60 V 80 H 0 Z" />
    </clipPath>
    <clipPath
       id="clipPath132"
       clipPathUnits="userSpaceOnUse">
      <path
         inkscape:connector-curvature="0"
         id="path130"
         d="M 0.074,79.891 H 59.058 V 16.141 H 0.074 Z" />
    </clipPath>
    <clipPath
       id="clipPath142"
       clipPathUnits="userSpaceOnUse">
      <path
         inkscape:connector-curvature="0"
         id="path140"
         d="M 0,16 H 60 V 80 H 0 Z" />
    </clipPath>
    <clipPath
       id="clipPath152"
       clipPathUnits="userSpaceOnUse">
      <path
         inkscape:connector-curvature="0"
         id="path150"
         d="M 0.074,79.891 H 59.058 V 16.141 H 0.074 Z" />
    </clipPath>
    <clipPath
       id="clipPath466"
       clipPathUnits="userSpaceOnUse">
      <path
         inkscape:connector-curvature="0"
         id="path464"
         d="m 475.984,99.241 h 93.957 V 15.315 h -93.957 z" />
    </clipPath>
    <clipPath
       id="clipPath476"
       clipPathUnits="userSpaceOnUse">
      <path
         inkscape:connector-curvature="0"
         id="path474"
         d="m 479,19 h 88 v 67 h -88 z" />
    </clipPath>
    <clipPath
       id="clipPath532"
       clipPathUnits="userSpaceOnUse">
      <path
         inkscape:connector-curvature="0"
         id="path530"
         d="m 476.414,99.241 h 93.957 V 15.397 h -93.957 z" />
    </clipPath>
    <clipPath
       id="clipPath542"
       clipPathUnits="userSpaceOnUse">
      <path
         inkscape:connector-curvature="0"
         id="path540"
         d="m 479,19 h 78 v 78 h -78 z" />
    </clipPath>
  </defs>
  <sodipodi:namedview
     id="base"
     pagecolor="#ffffff"
     bordercolor="#666666"
     borderopacity="1.0"
     inkscape:pageopacity="0.0"
     inkscape:pageshadow="2"
     inkscape:zoom="2.8"
     inkscape:cx="-44.835888"
     inkscape:cy="70.703813"
     inkscape:document-units="mm"
     inkscape:current-layer="g10"
     showgrid="false"
     fit-margin-top="0"
     fit-margin-left="0"
     fit-margin-right="0"
     fit-margin-bottom="0"
     inkscape:window-width="1600"
     inkscape:window-height="788"
     inkscape:window-x="240"
     inkscape:window-y="0"
     inkscape:window-maximized="0" />
  <metadata
     id="metadata5">
    <rdf:RDF>
      <cc:Work
         rdf:about="">
        <dc:format>image/svg+xml</dc:format>
        <dc:type
           rdf:resource="http://purl.org/dc/dcmitype/StillImage" />
        <dc:title></dc:title>
      </cc:Work>
    </rdf:RDF>
  </metadata>
  <g
     inkscape:label="Layer 1"
     inkscape:groupmode="layer"
     id="layer1"
     transform="translate(-32.57524,-167.20221)">
    <g
       transform="matrix(0.35277777,0,0,-0.35277777,-97.103465,205.36517)"
       inkscape:label="demo"
       id="g10">
      <g
         id="g12" />
      <g
         id="g158"
         transform="translate(1.5590538)">
        <g
           transform="translate(0,99.240692)"
           id="g400">
          <path
             inkscape:connector-curvature="0"
             id="path402"
             style="fill:none;stroke:#000000;stroke-width:0.182786;stroke-linecap:round;stroke-linejoin:round;stroke-miterlimit:10;stroke-dasharray:none;stroke-opacity:1"
             d="m 376.078,-83.441 h 86.348" />
        </g>
        <g
           transform="rotate(180,0,49.620346)"
           id="g404">
          <path
             inkscape:connector-curvature="0"
             id="path406"
             style="fill:#000000;fill-opacity:1;fill-rule:evenodd;stroke:#000000;stroke-width:0.19497199;stroke-linecap:butt;stroke-linejoin:miter;stroke-miterlimit:4;stroke-dasharray:none;stroke-opacity:1"
             d="m -460.598,83.441 0.731,-0.73 -2.559,0.73 2.559,0.735 z" />
        </g>
        <g
           transform="translate(0,99.240692)"
           id="g408">
          <path
             inkscape:connector-curvature="0"
             id="path410"
             style="fill:none;stroke:#000000;stroke-width:0.16864599;stroke-linecap:round;stroke-linejoin:round;stroke-miterlimit:10;stroke-dasharray:none;stroke-opacity:1"
             d="m 376.078,-83.441 v -1.622" />
        </g>
        <g
           transform="translate(0,99.240692)"
           id="g412">
          <path
             inkscape:connector-curvature="0"
             id="path414"
             style="fill:none;stroke:#000000;stroke-width:0.182786;stroke-linecap:round;stroke-linejoin:round;stroke-miterlimit:10;stroke-dasharray:none;stroke-opacity:1"
             d="M 372.625,-80.348 V -2.996" />
        </g>
        <g
           transform="rotate(-90,49.620346,49.620346)"
           id="g416">
          <path
             inkscape:connector-curvature="0"
             id="path418"
             style="fill:#000000;fill-opacity:1;fill-rule:evenodd;stroke:#000000;stroke-width:0.19497199;stroke-linecap:butt;stroke-linejoin:miter;stroke-miterlimit:4;stroke-dasharray:none;stroke-opacity:1"
             d="m 4.824,372.625 0.731,-0.73 -2.559,0.73 2.559,0.73 z" />
        </g>
        <g
           transform="translate(0,99.240692)"
           id="g420">
          <path
             inkscape:connector-curvature="0"
             id="path422"
             style="fill:none;stroke:#000000;stroke-width:0.16864599;stroke-linecap:round;stroke-linejoin:round;stroke-miterlimit:10;stroke-dasharray:none;stroke-opacity:1"
             d="m 372.625,-80.348 h -1.617" />
        </g>
        <text
           id="text426"
           style="font-variant:normal;font-weight:normal;font-size:5.22245312px;font-family:Helvetica;-inkscape-font-specification:Helvetica;writing-mode:lr-tb;fill:#000000;fill-opacity:1;fill-rule:nonzero;stroke:none"
           transform="matrix(1,0,0,-1,372.75431,9.907182)">
          <tspan
             id="tspan424"
             sodipodi:role="line"
             y="0"
             x="0 2.9036839 4.3503032">0.0</tspan>
        </text>
        <text
           id="text432"
           style="font-variant:normal;font-weight:normal;font-size:5.22245312px;font-family:Helvetica;-inkscape-font-specification:Helvetica;writing-mode:lr-tb;fill:#000000;fill-opacity:1;fill-rule:nonzero;stroke:none"
           transform="matrix(0,1,1,0,369.70029,16.353321)">
          <tspan
             id="tspan428"
             sodipodi:role="line"
             y="0"
             x="0 2.9036839 4.3503032">0.0</tspan>
          <tspan
             id="tspan430"
             sodipodi:role="line"
             y="0.17418291"
             x="69.953423 73.43158 77.202194">SNR</tspan>
        </text>
        <path
           inkscape:connector-curvature="0"
           id="path434"
           style="fill:#008c8c;fill-opacity:0.49803904;fill-rule:evenodd;stroke:none"
           d="M 459.781,95.448 459.652,19.084 H 378.805" />
        <path
           inkscape:connector-curvature="0"
           id="path436"
           style="fill:#3f3f13;fill-opacity:0.38823499;fill-rule:nonzero;stroke:none"
           d="M 378.281,41.487 V 94.924 H 418.5 c 33.508,0 42.195,0.84 41.281,0 -4.074,-3.742 -8.054,-7.41 -11.914,-10.984 C 411.898,50.666 385.879,25.6 382.957,22.772 l -4.676,-4.207 z" />
        <path
           inkscape:connector-curvature="0"
           id="path438"
           style="fill:#00898c;fill-opacity:0.38823499;fill-rule:nonzero;stroke:none"
           d="m 533.406,18.631 c -15.922,-0.199 -16.562,-0.14 -15.75,0.067 0.66,0.168 1.133,-0.235 12.754,1.043 0.18,-0.039 0.528,0.199 0.77,0.531 0.242,0.332 0.441,0.434 0.441,0.227 0,-0.418 1.285,-0.196 1.965,0.335 0.238,0.184 0.43,0.25 0.43,0.145 0,-0.289 4.796,1.398 5.398,1.898 0.289,0.239 0.574,0.395 0.641,0.348 0.328,-0.238 0.871,-0.019 1.488,0.598 0.375,0.375 0.684,0.531 0.684,0.343 0,-0.558 5.812,2.493 5.843,3.071 0.016,0.336 0.086,0.375 0.196,0.101 0.125,-0.312 0.406,-0.269 1.086,0.164 0.503,0.321 0.992,0.661 1.086,0.762 0.093,0.098 0.746,0.473 1.453,0.832 0.707,0.356 1.285,0.781 1.285,0.938 0,0.16 0.23,0.289 0.512,0.289 0.281,0 0.511,0.156 0.511,0.343 0,0.188 0.231,0.34 0.516,0.34 0.281,0 0.512,0.227 0.512,0.504 0,0.305 0.199,0.426 0.511,0.305 0.285,-0.109 0.516,-0.027 0.516,0.184 0,0.207 0.191,0.378 0.43,0.378 0.238,0 0.816,0.344 1.285,0.77 0.472,0.422 2.777,2.309 5.129,4.191 2.347,1.879 6.316,5.399 9.336,8.407 5.644,5.636 10.847,11.089 10.847,11.332 0,0.074 0.84,1.043 1.867,2.156 1.028,1.113 1.805,2.09 1.723,2.168 -0.078,0.082 0.246,0.457 0.727,0.832 0.675,0.531 0.769,0.754 0.418,0.976 -0.36,0.227 -0.344,0.29 0.086,0.297 0.3,0 0.824,0.313 1.168,0.688 0.339,0.375 0.535,0.683 0.433,0.683 -0.101,0 0.336,0.571 0.973,1.266 0.636,0.695 1.16,1.449 1.16,1.672 0,0.226 0.23,0.5 0.512,0.609 0.281,0.106 0.511,0.43 0.511,0.719 0,0.289 0.121,0.523 0.27,0.523 0.543,0 2.797,3.372 2.371,3.543 -0.25,0.102 -0.191,0.18 0.145,0.196 0.66,0.031 1.781,1.609 1.488,2.09 -0.113,0.183 0.012,0.332 0.281,0.332 0.449,0 2.148,2.187 2.215,2.851 0.016,0.16 0.309,0.5 0.648,0.762 0.5,0.375 0.52,0.476 0.11,0.504 -0.282,0.015 -0.133,0.183 0.336,0.371 0.691,0.273 0.754,0.394 0.339,0.656 -0.425,0.27 -0.417,0.32 0.075,0.324 0.32,0.004 1.722,2.871 1.988,3.246 -0.16,-18.136 0,-49.273 0,-65.851 -21.785,0.141 -21.785,0.016 -42.512,-0.059 z" />
        <text
           y="-5.6563888"
           x="401.92023"
           id="text442"
           style="font-variant:normal;font-weight:normal;font-size:7px;font-family:Helvetica;-inkscape-font-specification:Helvetica;writing-mode:lr-tb;fill:#000000;fill-opacity:1;fill-rule:nonzero;stroke:none"
           transform="scale(1,-1)">
          <tspan
             id="tspan440"
             sodipodi:role="line"
             y="-5.6563888"
             x="401.92023">biclustering</tspan>
        </text>
        <text
           id="text450"
           style="font-variant:normal;font-weight:normal;font-size:6.96327019px;font-family:Helvetica;-inkscape-font-specification:Helvetica;writing-mode:lr-tb;fill:#000000;fill-opacity:1;fill-rule:nonzero;stroke:none"
           transform="matrix(1,0,0,-1,395.74507,65.351189)">
          <tspan
             id="tspan444"
             y="0"
             x="0">A</tspan>
          <tspan
             id="tspan446"
             y="35.513943"
             x="18.079796">B</tspan>
          <tspan
             id="tspan448"
             y="35.514534"
             x="144.52155" />
        </text>
        <g
           transform="translate(0,99.240692)"
           id="g452">
          <path
             inkscape:connector-curvature="0"
             id="path454"
             style="fill:none;stroke:#000000;stroke-width:0.261123;stroke-linecap:butt;stroke-linejoin:miter;stroke-miterlimit:4;stroke-dasharray:none;stroke-opacity:1"
             d="m 378.805,-80.156 80.976,76.363" />
        </g>
        <text
           transform="scale(1,-1)"
           id="text1118"
           y="-4.718112"
           x="528.35632"
           style="font-style:normal;font-variant:normal;font-weight:normal;font-stretch:normal;font-size:7px;line-height:125%;font-family:Helvetica;-inkscape-font-specification:'Helvetica, Normal';text-align:start;letter-spacing:0px;word-spacing:0px;writing-mode:lr-tb;text-anchor:start;fill:#000000;fill-opacity:1;stroke:none;stroke-width:0.75px;stroke-linecap:butt;stroke-linejoin:miter;stroke-opacity:1"
           xml:space="preserve"><tspan
             style="font-size:7px;stroke-width:0.75px"
             y="-4.718112"
             x="528.35632"
             id="tspan1116"
             sodipodi:role="line">high-order clustering </tspan></text>
        <text
           xml:space="preserve"
           style="font-style:normal;font-variant:normal;font-weight:normal;font-stretch:normal;font-size:5px;line-height:1.25;font-family:Helvetica;-inkscape-font-specification:Helvetica;letter-spacing:0px;word-spacing:0px;fill:#000000;fill-opacity:1;stroke:none;stroke-width:0.75"
           x="368.46823"
           y="-104.53345"
           id="text629"
           transform="scale(1,-1)"><tspan
             sodipodi:role="line"
             id="tspan627"
             x="368.46823"
             y="-104.53345"
             style="font-style:normal;font-variant:normal;font-weight:normal;font-stretch:normal;font-size:5px;font-family:Helvetica;-inkscape-font-specification:Helvetica;stroke-width:0.75">(i)</tspan></text>
        <text
           xml:space="preserve"
           style="font-style:normal;font-variant:normal;font-weight:normal;font-stretch:normal;font-size:5px;line-height:1.25;font-family:Helvetica;-inkscape-font-specification:Helvetica;letter-spacing:0px;word-spacing:0px;fill:#000000;fill-opacity:1;stroke:none;stroke-width:0.75"
           x="507.21823"
           y="-104.53346"
           id="text633"
           transform="scale(1,-1)"><tspan
             sodipodi:role="line"
             id="tspan631"
             x="507.21823"
             y="-104.53346"
             style="font-style:normal;font-variant:normal;font-weight:normal;font-stretch:normal;font-size:5px;font-family:Helvetica;-inkscape-font-specification:Helvetica;stroke-width:0.75">(ii)</tspan></text>
      </g>
      <g
         id="g460"
         transform="translate(-21.089,-5.918308)">
        <g
           clip-path="url(#clipPath466)"
           id="g462"
           transform="translate(59.677365,5.8715118)">
          <g
             transform="translate(0,-0.759308)"
             id="g468">
            <g
               id="g470">
              <g
                 clip-path="url(#clipPath476)"
                 id="g472">
                <g
                   id="g478">
                  <g
                     transform="translate(0,100)"
                     id="g480">
                    <path
                       inkscape:connector-curvature="0"
                       id="path482"
                       style="fill:none;stroke:#000000;stroke-width:0.261123;stroke-linecap:round;stroke-linejoin:round;stroke-miterlimit:10;stroke-dasharray:none;stroke-opacity:1"
                       d="m 479.461,-80.809 1.742,0.028 1.738,0.078 1.743,0.133 1.738,0.187 1.742,0.238 1.738,0.29 1.739,0.343 1.742,0.403 1.738,0.445 1.742,0.508 1.739,0.554 1.742,0.61 1.738,0.664 1.742,0.711 1.739,0.773 1.738,0.821 1.742,0.875 1.738,0.925 1.742,0.981 1.739,1.031 1.742,1.09 1.738,1.137 1.738,1.195 1.743,1.246 1.738,1.297 1.742,1.351 1.738,1.403 1.743,1.461 1.738,1.508 1.738,1.562 1.742,1.617 1.739,1.672 1.742,1.723 1.738,1.773 1.742,1.828 1.739,1.883 1.738,1.934 1.742,1.988 1.738,2.039 1.743,2.094 1.738,2.144 1.742,2.203 1.738,2.25 1.742,2.305 1.739,2.36 1.738,2.41 1.742,2.465 1.738,2.519 1.743,2.566 1.738,2.625" />
                  </g>
                </g>
              </g>
            </g>
          </g>
          <path
             inkscape:connector-curvature="0"
             id="path484"
             style="fill:#3f3f13;fill-opacity:0.38823499;fill-rule:nonzero;stroke:none"
             d="m 480.703,95.877 76.274,-0.027 -4.344,-6.805 C 551.609,87.084 529.047,55.737 515.605,42.69 503.777,31.6 495.035,22.553 479.984,18.432 c 0.176,26.957 0.352,55.152 0.719,77.445 z" />
          <path
             inkscape:connector-curvature="0"
             id="path486"
             style="fill:#000080;fill-opacity:0.10588199;fill-rule:nonzero;stroke:none"
             d="m 481.742,18.944 c 15.481,5.765 22.414,13.086 34.313,24.504 8.308,7.972 23.504,26.347 36.414,45.66 l 4.508,6.742 4.875,0.016 4.49619,0.200404 v -11.332 L 563.562,79.862 c -0.781,-1.156 -1.535,-2.278 -2.277,-3.379 -3.144,-4.664 -6.062,-8.899 -9.851,-13.449 -2.739,-3.289 -8.438,-9.383 -13.946,-14.965 -0.34,-0.34 -0.676,-0.684 -1.011,-1.02 -0.309,-0.312 -0.618,-0.621 -0.922,-0.925 -0.485,-0.481 -0.965,-0.958 -1.438,-1.426 -3.375,-3.332 -6.406,-6.172 -8.277,-7.664 -6.543,-5.223 -12.981,-9.309 -19.395,-12.293 -6.336,-2.95 -12.648,-4.828 -19.023,-5.672 -1.649,0.371 -7.442,-0.817 -5.68,-0.125 z"
             sodipodi:nodetypes="cccccccccccccccccc" />
        </g>
      </g>
      <g
         id="g488"
         transform="translate(37.5)">
        <g
           transform="translate(0,99.240692)"
           id="g490">
          <path
             inkscape:connector-curvature="0"
             id="path492"
             style="fill:#000000;fill-opacity:1;fill-rule:evenodd;stroke:#000000;stroke-width:0.182786;stroke-linecap:butt;stroke-linejoin:miter;stroke-miterlimit:4;stroke-dasharray:none;stroke-opacity:1"
             d="m 480.18,-84.121 87.367,-0.371" />
        </g>
        <g
           transform="matrix(-1,0.00425532,-0.00425532,-1,0,99.240692)"
           id="g494">
          <path
             inkscape:connector-curvature="0"
             id="path496"
             style="fill:#000000;fill-opacity:1;fill-rule:evenodd;stroke:#000000;stroke-width:0.19497;stroke-linecap:butt;stroke-linejoin:miter;stroke-miterlimit:4;stroke-dasharray:none;stroke-opacity:1"
             d="m -566.068,82.076 0.734,-0.732 -2.562,0.732 2.559,0.733 z" />
        </g>
        <g
           transform="translate(0,99.240692)"
           id="g498">
          <path
             inkscape:connector-curvature="0"
             id="path500"
             style="fill:none;stroke:#000000;stroke-width:0.182786;stroke-linecap:butt;stroke-linejoin:miter;stroke-miterlimit:4;stroke-dasharray:none;stroke-opacity:1"
             d="M 476.711,-80.918 V -3.316" />
        </g>
        <g
           transform="rotate(-89.999976,49.620367,49.620346)"
           id="g502">
          <path
             inkscape:connector-curvature="0"
             id="path504"
             style="fill:#000000;fill-opacity:1;fill-rule:evenodd;stroke:#000000;stroke-width:0.19497199;stroke-linecap:butt;stroke-linejoin:miter;stroke-miterlimit:4;stroke-dasharray:none;stroke-opacity:1"
             d="m 5.145,476.711 0.73,-0.731 -2.558,0.731 2.558,0.73 z" />
        </g>
        <text
           id="text508"
           style="font-variant:normal;font-weight:normal;font-size:5.22245312px;font-family:Helvetica;-inkscape-font-specification:Helvetica;writing-mode:lr-tb;fill:#000000;fill-opacity:1;fill-rule:nonzero;stroke:none"
           transform="matrix(0,1,1,0,473.78801,86.742494)">
          <tspan
             id="tspan506"
             sodipodi:role="line"
             y="0"
             x="0 3.4781537 7.248765">SNR</tspan>
        </text>
        <text
           id="text512"
           style="font-variant:normal;font-weight:normal;font-size:5.22245312px;font-family:Helvetica;-inkscape-font-specification:Helvetica;writing-mode:lr-tb;fill:#000000;fill-opacity:1;fill-rule:nonzero;stroke:none"
           transform="matrix(1,0,0,-1,477.94931,7.683387)">
          <tspan
             id="tspan510"
             sodipodi:role="line"
             y="0"
             x="0 2.9036839 4.3503032">0.0</tspan>
        </text>
        <text
           id="text516"
           style="font-variant:normal;font-weight:normal;font-size:5.22245312px;font-family:Helvetica;-inkscape-font-specification:Helvetica;writing-mode:lr-tb;fill:#000000;fill-opacity:1;fill-rule:nonzero;stroke:none"
           transform="rotate(-90,248.10456,-225.14835)">
          <tspan
             id="tspan514"
             sodipodi:role="line"
             y="0"
             x="0 2.9036839 4.3503032">0.0</tspan>
        </text>
        <g
           transform="translate(0,99.240692)"
           id="g518">
          <path
             inkscape:connector-curvature="0"
             id="path520"
             style="fill:none;stroke:#000000;stroke-width:0.161626;stroke-linecap:butt;stroke-linejoin:miter;stroke-miterlimit:4;stroke-dasharray:none;stroke-opacity:1"
             d="m 475.145,-80.918 h 1.566" />
        </g>
        <g
           transform="translate(0,99.240692)"
           id="g522">
          <path
             inkscape:connector-curvature="0"
             id="path524"
             style="fill:none;stroke:#000000;stroke-width:0.178222;stroke-linecap:butt;stroke-linejoin:miter;stroke-miterlimit:4;stroke-dasharray:none;stroke-opacity:1"
             d="m 480.363,-84.309 v -1.566" />
        </g>
      </g>
      <g
         id="g526"
         transform="translate(39,3)">
        <g
           clip-path="url(#clipPath532)"
           id="g528"
           transform="translate(-4.5,-1.5)">
          <g
             transform="translate(0,-0.759308)"
             id="g534">
            <g
               id="g536"
               transform="translate(-0.64866984,-0.57707873)">
              <g
                 clip-path="url(#clipPath542)"
                 id="g538"
                 transform="translate(5.4910716,-0.80357145)">
                <g
                   id="g544">
                  <g
                     transform="translate(0,100)"
                     id="g546">
                    <path
                       inkscape:connector-curvature="0"
                       id="path548"
                       style="fill:none;stroke:#000000;stroke-width:0.261123;stroke-linecap:round;stroke-linejoin:round;stroke-miterlimit:10;stroke-dasharray:none;stroke-opacity:1"
                       d="m 479.895,-80.727 1.738,0.266 1.742,0.484 1.738,0.625 1.739,0.747 1.742,0.839 1.738,0.934 1.742,1.012 1.739,1.09 1.742,1.156 1.738,1.226 1.742,1.289 1.738,1.348 1.739,1.402 1.742,1.461 1.738,1.516 1.742,1.562 1.739,1.614 1.742,1.664 1.738,1.711 1.738,1.754 1.743,1.8 1.738,1.844 1.742,1.883 1.738,1.93 1.743,1.965 1.738,2.007 1.738,2.047 1.742,2.082 1.739,2.125 1.742,2.156 1.738,2.196 1.742,2.23 1.739,2.266 1.738,2.305 1.742,2.332 1.738,2.367 1.742,2.402 1.739,2.434 1.742,2.465 1.738,2.5 1.742,2.527 1.739,2.562 1.738,2.59 1.742,2.621" />
                  </g>
                </g>
              </g>
            </g>
          </g>
          <text
             id="text554"
             style="font-variant:normal;font-weight:normal;font-size:6.96327019px;font-family:Helvetica;-inkscape-font-specification:Helvetica;writing-mode:lr-tb;fill:#000000;fill-opacity:1;fill-rule:nonzero;stroke:none"
             transform="matrix(1,0,0,-1,539.94623,62.15452)">
            <tspan
               id="tspan550"
               y="0"
               x="0" />
          </text>
        </g>
      </g>
      <g
         id="g556">
        <path
           inkscape:connector-curvature="0"
           id="path558"
           style="fill:#000000;fill-opacity:1;fill-rule:evenodd;stroke:none"
           d="m 424.57,54.452 v 0.086 l -0.004,0.082 -0.007,0.086 -0.008,0.082 -0.024,0.156 -0.015,0.078 -0.02,0.074 -0.019,0.07 -0.024,0.071 -0.023,0.066 -0.031,0.067 -0.063,0.125 -0.039,0.058 -0.078,0.11 -0.043,0.05 -0.047,0.047 -0.102,0.086 -0.054,0.039 -0.059,0.035 -0.058,0.032 -0.063,0.027 -0.133,0.047 -0.07,0.015 -0.074,0.016 -0.157,0.016 h -0.082 c -0.757,0 -1.398,-0.61 -1.449,-0.653 -0.582,-0.578 -0.801,-1.23 -0.801,-1.246 0,-0.043 0.036,-0.054 0.075,-0.054 0.136,0 0.254,0.074 0.363,0.156 0.129,0.094 0.141,0.117 0.219,0.285 0.062,0.145 0.234,0.5 0.5,0.809 0.175,0.195 0.32,0.304 0.613,0.304 0.707,0 1.156,-0.586 1.156,-1.539 0,-1.484 -1.054,-2.957 -2.402,-2.957 -1.035,0 -1.602,0.828 -1.602,1.867 0,0.989 0.512,2.082 1.575,2.711 0.07,0.043 0.289,0.172 0.289,0.27 0,0.047 -0.055,0.047 -0.071,0.047 -0.254,0 -2.41,-1.157 -2.41,-3.344 0,-1.016 0.531,-1.949 1.738,-1.949 1.422,0 3.504,1.429 3.504,3.672 z" />
        <path
           inkscape:connector-curvature="0"
           id="path560"
           style="fill:#000000;fill-opacity:1;fill-rule:evenodd;stroke:none"
           d="m 427.32,49.194 v 0.012 h -0.004 v 0.011 l -0.007,0.008 v 0.004 l -0.008,0.008 -0.004,0.008 -0.008,0.007 v 0.004 l -0.004,0.004 h -0.004 v 0.004 l -0.008,0.008 v 0.004 l -0.007,0.008 h -0.004 l -0.004,0.007 -0.024,0.024 -0.007,0.004 -0.004,0.008 -0.004,0.004 -0.004,0.007 -0.008,0.004 -0.012,0.012 c -0.906,0.918 -1.14,2.293 -1.14,3.406 0,1.266 0.277,2.535 1.172,3.446 0.093,0.085 0.093,0.101 0.093,0.125 0,0.05 -0.027,0.07 -0.07,0.07 -0.074,0 -0.73,-0.492 -1.156,-1.418 -0.375,-0.801 -0.461,-1.609 -0.461,-2.223 0,-0.57 0.078,-1.449 0.48,-2.273 0.434,-0.895 1.063,-1.367 1.137,-1.367 0.043,0 0.07,0.019 0.07,0.074 z" />
        <path
           inkscape:connector-curvature="0"
           id="path562"
           style="fill:#000000;fill-opacity:1;fill-rule:evenodd;stroke:none"
           d="m 428.062,50.053 -0.007,-0.023 -0.004,-0.024 -0.004,-0.019 -0.008,-0.02 -0.004,-0.019 -0.008,-0.032 -0.007,-0.015 -0.004,-0.016 -0.008,-0.011 -0.004,-0.012 -0.024,-0.035 -0.007,-0.008 -0.008,-0.012 -0.012,-0.004 -0.023,-0.015 -0.012,-0.004 -0.012,-0.008 -0.047,-0.012 -0.019,-0.004 h -0.024 l -0.007,-0.004 h -0.047 l -0.012,-0.004 h -0.082 c -0.086,0 -0.168,0 -0.168,-0.136 0,-0.059 0.039,-0.09 0.094,-0.09 0.199,0 0.41,0.023 0.613,0.023 0.238,0 0.488,-0.023 0.723,-0.023 0.035,0 0.129,0 0.129,0.148 0,0.078 -0.075,0.078 -0.172,0.078 -0.367,0 -0.367,0.051 -0.367,0.118 0,0.089 0.304,1.273 0.359,1.457 0.094,-0.211 0.297,-0.469 0.668,-0.469 l -0.008,0.164 c -0.48,0 -0.574,0.605 -0.574,0.644 0,0.016 0,0.032 0.019,0.118 l 0.36,1.429 c 0.051,0.196 0.246,0.399 0.379,0.508 0.254,0.227 0.465,0.278 0.589,0.278 0.29,0 0.465,-0.254 0.465,-0.688 0,-0.426 -0.238,-1.262 -0.371,-1.543 -0.246,-0.508 -0.594,-0.746 -0.867,-0.746 l 0.008,-0.164 c 0.844,0 1.754,1.066 1.754,2.137 0,0.683 -0.414,1.164 -0.969,1.164 -0.363,0 -0.711,-0.262 -0.953,-0.547 -0.07,0.394 -0.383,0.547 -0.652,0.547 -0.336,0 -0.477,-0.285 -0.539,-0.414 -0.133,-0.25 -0.227,-0.684 -0.227,-0.707 0,-0.075 0.07,-0.075 0.086,-0.075 0.074,0 0.078,0.012 0.125,0.168 0.125,0.516 0.269,0.868 0.531,0.868 0.121,0 0.227,-0.059 0.227,-0.333 0,-0.171 -0.024,-0.25 -0.051,-0.375 z" />
        <path
           inkscape:connector-curvature="0"
           id="path564"
           style="fill:#000000;fill-opacity:1;fill-rule:evenodd;stroke:none"
           d="m 435.191,54.721 h 0.016 l 0.016,0.004 h 0.05 l 0.008,0.004 h 0.02 l 0.015,0.008 h 0.008 l 0.008,0.004 0.004,0.004 0.016,0.007 0.019,0.02 v 0.004 h 0.004 l 0.004,0.008 0.004,0.004 v 0.003 l 0.004,0.004 v 0.004 l 0.004,0.004 v 0.02 l 0.004,0.004 v 0.019 c 0,0.125 -0.118,0.125 -0.204,0.125 h -3.035 c -0.086,0 -0.203,0 -0.203,-0.121 0,-0.129 0.113,-0.129 0.203,-0.129 z" />
        <path
           inkscape:connector-curvature="0"
           id="path566"
           style="fill:#000000;fill-opacity:1;fill-rule:evenodd;stroke:none"
           d="m 437.648,56.811 v 0.082 l -0.003,0.004 v 0.008 l -0.004,0.008 v 0.003 l -0.008,0.008 v 0.008 l -0.004,0.004 h -0.004 l -0.004,0.004 -0.008,0.004 h -0.004 l -0.007,0.004 h -0.012 l -0.004,0.004 h -0.031 l -0.004,0.004 h -0.055 c -0.324,-0.325 -0.789,-0.329 -0.996,-0.329 v -0.183 c 0.121,0 0.457,0 0.738,0.14 v -2.593 c 0,-0.172 0,-0.239 -0.511,-0.239 h -0.192 v -0.179 c 0.09,0.004 0.719,0.019 0.906,0.019 0.161,0 0.801,-0.015 0.911,-0.019 v 0.179 h -0.192 c -0.512,0 -0.512,0.067 -0.512,0.239 z" />
        <path
           inkscape:connector-curvature="0"
           id="path568"
           style="fill:#000000;fill-opacity:1;fill-rule:evenodd;stroke:none"
           d="m 441.328,52.76 v 0.168 l -0.004,0.059 -0.008,0.125 -0.007,0.129 -0.012,0.133 -0.016,0.14 -0.019,0.141 -0.024,0.148 -0.027,0.149 -0.035,0.152 -0.039,0.152 -0.043,0.153 -0.051,0.16 -0.059,0.156 -0.031,0.074 -0.031,0.078 -0.035,0.079 -0.039,0.078 c -0.438,0.894 -1.063,1.367 -1.137,1.367 -0.039,0 -0.07,-0.027 -0.07,-0.07 0,-0.024 0,-0.04 0.136,-0.168 0.715,-0.719 1.133,-1.879 1.133,-3.403 0,-1.242 -0.273,-2.527 -1.176,-3.445 -0.093,-0.086 -0.093,-0.102 -0.093,-0.121 0,-0.043 0.031,-0.074 0.07,-0.074 0.074,0 0.727,0.496 1.16,1.421 0.371,0.797 0.457,1.606 0.457,2.219 z" />
        <path
           inkscape:connector-curvature="0"
           id="path570"
           style="fill:#000000;fill-opacity:1;fill-rule:evenodd;stroke:none"
           d="m 605.906,12.94 v 0.059 l -0.004,0.007 v 0.039 l -0.004,0.008 v 0.012 l -0.011,0.023 -0.004,0.004 -0.004,0.008 -0.008,0.008 -0.016,0.008 -0.003,0.004 h -0.008 l -0.012,0.004 h -0.008 l -0.004,0.003 h -0.035 l -0.008,0.004 h -0.078 c -0.437,-0.429 -1.054,-0.437 -1.336,-0.437 v -0.246 c 0.164,0 0.617,0 0.989,0.191 v -3.48 c 0,-0.231 0,-0.317 -0.684,-0.317 h -0.254 V 8.596 c 0.121,0.008 0.957,0.028 1.215,0.028 0.211,0 1.07,-0.02 1.219,-0.028 v 0.246 h -0.258 c -0.684,0 -0.684,0.086 -0.684,0.317 z" />
        <path
           inkscape:connector-curvature="0"
           id="path572"
           style="fill:#000000;fill-opacity:1;fill-rule:nonzero;stroke:none"
           d="m 603.641,7.077 h 4.047 v 0.398 h -4.047" />
        <path
           inkscape:connector-curvature="0"
           id="path574"
           style="fill:#000000;fill-opacity:1;fill-rule:evenodd;stroke:none"
           d="M 604.059,0.569 604.055,0.549 604.039,0.487 604.035,0.475 604.031,0.459 604.023,0.436 604.016,0.424 604.012,0.416 604.004,0.405 604,0.397 603.969,0.366 603.961,0.362 603.949,0.354 603.902,0.338 603.871,0.331 h -0.016 l -0.011,-0.004 h -0.047 l -0.012,-0.004 h -0.058 c -0.09,0 -0.184,0 -0.184,-0.145 0,-0.074 0.059,-0.101 0.094,-0.101 0.179,0 0.406,0.027 0.586,0.027 0.234,0 0.492,-0.027 0.718,-0.027 0.063,0 0.137,0.019 0.137,0.148 0,0.098 -0.098,0.098 -0.176,0.098 -0.156,0 -0.336,0 -0.336,0.082 0,0.035 0.047,0.215 0.075,0.312 0.082,0.364 0.175,0.735 0.25,1.016 0.082,-0.133 0.297,-0.399 0.707,-0.399 v 0.188 c -0.485,0 -0.606,0.527 -0.606,0.598 0,0.027 0.012,0.074 0.016,0.101 l 0.344,1.375 c 0.394,0.524 0.738,0.625 0.957,0.625 0.265,0 0.496,-0.199 0.496,-0.664 0,-0.277 -0.149,-0.973 -0.356,-1.371 -0.168,-0.332 -0.504,-0.664 -0.851,-0.664 V 1.334 c 0.832,0 1.754,0.922 1.754,1.938 0,0.797 -0.555,1.141 -1.024,1.141 -0.426,0 -0.789,-0.286 -0.973,-0.481 -0.113,0.391 -0.496,0.481 -0.703,0.481 -0.265,0 -0.429,-0.18 -0.539,-0.364 -0.136,-0.23 -0.242,-0.64 -0.242,-0.683 0,-0.086 0.094,-0.086 0.113,-0.086 0.098,0 0.102,0.019 0.153,0.203 0.101,0.398 0.23,0.738 0.5,0.738 0.175,0 0.222,-0.152 0.222,-0.332 0,-0.078 -0.015,-0.168 -0.023,-0.207 z" />
        <path
           inkscape:connector-curvature="0"
           id="path576"
           style="fill:#000000;fill-opacity:1;fill-rule:evenodd;stroke:none"
           d="m 459.48,12.999 v 0.093 l -0.003,0.004 v 0.024 l -0.004,0.004 v 0.003 l -0.004,0.008 v 0.008 l -0.004,0.008 -0.004,0.004 -0.004,0.008 -0.004,0.003 -0.008,0.004 -0.004,0.004 -0.015,0.008 h -0.008 l -0.008,0.004 h -0.012 l -0.003,0.004 h -0.036 l -0.004,0.004 h -0.078 c -0.437,-0.434 -1.058,-0.438 -1.336,-0.438 V 12.51 c 0.164,0 0.614,0 0.985,0.192 V 9.217 c 0,-0.226 0,-0.316 -0.68,-0.316 h -0.258 V 8.659 c 0.121,0.004 0.961,0.027 1.215,0.027 0.211,0 1.074,-0.023 1.223,-0.027 v 0.242 h -0.262 c -0.684,0 -0.684,0.09 -0.684,0.316 z" />
        <path
           inkscape:connector-curvature="0"
           id="path578"
           style="fill:#000000;fill-opacity:1;fill-rule:nonzero;stroke:none"
           d="m 457.219,7.139 h 4.043 v 0.399 h -4.043" />
        <path
           inkscape:connector-curvature="0"
           id="path580"
           style="fill:#000000;fill-opacity:1;fill-rule:evenodd;stroke:none"
           d="M 457.637,0.631 457.633,0.612 457.617,0.549 457.609,0.538 457.605,0.522 457.594,0.487 457.586,0.475 457.582,0.467 457.574,0.456 457.57,0.448 457.555,0.432 457.547,0.428 457.535,0.42 457.527,0.416 457.516,0.413 457.504,0.405 457.492,0.401 457.477,0.397 h -0.012 l -0.016,-0.004 h -0.011 L 457.43,0.389 h -0.028 l -0.007,-0.004 h -0.09 c -0.094,0 -0.188,0 -0.188,-0.144 0,-0.078 0.063,-0.106 0.094,-0.106 0.18,0 0.406,0.028 0.59,0.028 0.234,0 0.488,-0.028 0.719,-0.028 0.058,0 0.136,0.024 0.136,0.153 0,0.097 -0.097,0.097 -0.176,0.097 -0.156,0 -0.339,0 -0.339,0.078 0,0.036 0.05,0.215 0.078,0.317 0.082,0.363 0.176,0.73 0.25,1.015 0.082,-0.136 0.293,-0.398 0.703,-0.398 v 0.187 c -0.484,0 -0.606,0.528 -0.606,0.594 0,0.028 0.012,0.078 0.02,0.106 l 0.34,1.371 c 0.398,0.527 0.742,0.629 0.957,0.629 0.265,0 0.5,-0.203 0.5,-0.664 0,-0.282 -0.153,-0.977 -0.356,-1.375 -0.172,-0.332 -0.507,-0.661 -0.855,-0.661 V 1.397 c 0.832,0 1.758,0.922 1.758,1.937 0,0.797 -0.555,1.137 -1.024,1.137 -0.426,0 -0.789,-0.281 -0.972,-0.476 -0.118,0.39 -0.5,0.476 -0.704,0.476 -0.265,0 -0.429,-0.176 -0.539,-0.359 -0.136,-0.235 -0.246,-0.641 -0.246,-0.684 0,-0.09 0.094,-0.09 0.117,-0.09 0.094,0 0.102,0.024 0.149,0.207 0.101,0.399 0.234,0.739 0.5,0.739 0.176,0 0.223,-0.153 0.223,-0.336 0,-0.074 -0.012,-0.164 -0.02,-0.203 z" />
        <path
           inkscape:connector-curvature="0"
           id="path602"
           style="fill:#000000;fill-opacity:1;fill-rule:evenodd;stroke:none"
           d="m 552.43554,77.172766 -0.004,0.083 v 0.082 l -0.015,0.156 -0.024,0.148 -0.031,0.141 -0.02,0.07 -0.023,0.067 -0.023,0.062 -0.028,0.063 -0.031,0.062 -0.031,0.055 -0.035,0.058 -0.036,0.051 -0.039,0.051 -0.039,0.047 -0.047,0.047 -0.046,0.043 -0.047,0.035 -0.055,0.039 -0.109,0.062 -0.059,0.028 -0.062,0.023 -0.067,0.02 -0.133,0.031 -0.074,0.008 -0.074,0.004 -0.078,0.004 c -0.719,0 -1.324,-0.579 -1.375,-0.622 -0.551,-0.546 -0.754,-1.164 -0.754,-1.179 0,-0.039 0.031,-0.051 0.066,-0.051 0.133,0 0.242,0.07 0.348,0.148 0.121,0.09 0.129,0.11 0.207,0.27 0.058,0.137 0.219,0.477 0.473,0.766 0.164,0.183 0.304,0.289 0.582,0.289 0.668,0 1.093,-0.555 1.093,-1.457 0,-1.407 -1,-2.801 -2.277,-2.801 -0.977,0 -1.516,0.781 -1.516,1.765 0,0.938 0.485,1.973 1.493,2.571 0.066,0.039 0.273,0.16 0.273,0.254 0,0.047 -0.055,0.047 -0.066,0.047 -0.243,0 -2.286,-1.098 -2.286,-3.168 0,-0.965 0.504,-1.844 1.649,-1.844 1.348,0 3.32,1.347 3.32,3.472 z" />
        <path
           inkscape:connector-curvature="0"
           id="path604"
           style="fill:#000000;fill-opacity:1;fill-rule:evenodd;stroke:none"
           d="m 555.03754,72.196766 v 0.016 h -0.004 v 0.003 l -0.004,0.004 v 0.004 l -0.004,0.004 v 0.004 l -0.004,0.004 v 0.004 l -0.023,0.023 v 0.004 l -0.008,0.008 h -0.004 l -0.004,0.004 v 0.004 l -0.027,0.027 -0.004,0.008 -0.004,0.004 -0.008,0.004 -0.004,0.004 -0.004,0.008 -0.004,0.003 -0.007,0.004 c -0.86,0.871 -1.082,2.172 -1.082,3.227 0,1.203 0.261,2.402 1.109,3.262 0.09,0.086 0.09,0.097 0.09,0.121 0,0.047 -0.028,0.066 -0.067,0.066 -0.07,0 -0.691,-0.469 -1.097,-1.344 -0.352,-0.757 -0.434,-1.523 -0.434,-2.105 0,-0.535 0.074,-1.367 0.453,-2.149 0.414,-0.851 1.008,-1.296 1.078,-1.296 0.039,0 0.067,0.019 0.067,0.07 z" />
        <path
           inkscape:connector-curvature="0"
           id="path606"
           style="fill:#000000;fill-opacity:1;fill-rule:evenodd;stroke:none"
           d="m 555.74054,73.008766 -0.008,-0.023 -0.008,-0.039 -0.004,-0.016 -0.004,-0.019 -0.007,-0.016 -0.008,-0.031 -0.004,-0.012 -0.008,-0.012 -0.008,-0.015 -0.004,-0.012 -0.015,-0.016 -0.008,-0.011 -0.016,-0.016 -0.011,-0.008 -0.024,-0.007 -0.012,-0.008 -0.046,-0.012 h -0.016 l -0.012,-0.004 h -0.019 l -0.008,-0.004 h -0.035 l -0.012,-0.004 h -0.078 c -0.082,0 -0.156,0 -0.156,-0.129 0,-0.054 0.035,-0.082 0.089,-0.082 0.188,0 0.387,0.02 0.579,0.02 0.226,0 0.461,-0.02 0.683,-0.02 0.035,0 0.125,0 0.125,0.137 0,0.074 -0.07,0.074 -0.168,0.074 -0.344,0 -0.344,0.051 -0.344,0.11 0,0.086 0.29,1.207 0.34,1.382 0.086,-0.199 0.282,-0.441 0.633,-0.441 l -0.008,0.152 c -0.453,0 -0.543,0.571 -0.543,0.614 0,0.011 0,0.027 0.02,0.109 l 0.34,1.352 c 0.047,0.187 0.234,0.379 0.355,0.484 0.242,0.215 0.445,0.262 0.563,0.262 0.273,0 0.437,-0.242 0.437,-0.653 0,-0.402 -0.226,-1.195 -0.351,-1.461 -0.235,-0.48 -0.563,-0.707 -0.821,-0.707 l 0.008,-0.152 c 0.801,0 1.66,1.004 1.66,2.02 0,0.648 -0.39,1.101 -0.914,1.101 -0.347,0 -0.676,-0.246 -0.902,-0.515 -0.07,0.371 -0.367,0.515 -0.621,0.515 -0.321,0 -0.449,-0.265 -0.512,-0.39 -0.125,-0.235 -0.215,-0.649 -0.215,-0.672 0,-0.067 0.071,-0.067 0.082,-0.067 0.071,0 0.078,0.008 0.117,0.16 0.122,0.489 0.254,0.821 0.504,0.821 0.118,0 0.215,-0.055 0.215,-0.317 0,-0.16 -0.023,-0.234 -0.047,-0.355 z" />
        <path
           inkscape:connector-curvature="0"
           id="path608"
           style="fill:#000000;fill-opacity:1;fill-rule:evenodd;stroke:none"
           d="m 562.49054,77.430766 h 0.055 l 0.007,0.004 h 0.024 l 0.008,0.004 h 0.015 l 0.024,0.012 h 0.008 l 0.003,0.004 0.008,0.004 0.02,0.019 v 0.004 h 0.004 l 0.004,0.008 v 0.004 l 0.003,0.004 v 0.004 l 0.004,0.004 v 0.011 l 0.004,0.008 v 0.023 c 0,0.122 -0.109,0.122 -0.191,0.122 h -2.875 c -0.078,0 -0.192,0 -0.192,-0.118 0,-0.121 0.11,-0.121 0.192,-0.121 z" />
        <path
           inkscape:connector-curvature="0"
           id="path610"
           style="fill:#000000;fill-opacity:1;fill-rule:evenodd;stroke:none"
           d="m 565.95954,79.544766 v 0.007 l 0.004,0.004 v 0.008 l 0.003,0.004 v 0.012 l 0.004,0.004 v 0.015 l 0.004,0.004 v 0.012 l 0.004,0.004 v 0.004 c 0,0.023 -0.019,0.066 -0.078,0.066 -0.098,0 -0.496,-0.039 -0.617,-0.047 -0.039,-0.004 -0.106,-0.011 -0.106,-0.113 0,-0.066 0.067,-0.066 0.125,-0.066 0.231,0 0.231,-0.036 0.231,-0.075 0,-0.031 -0.008,-0.062 -0.02,-0.105 l -0.273,-1.098 c -0.102,0.156 -0.266,0.281 -0.5,0.281 v -0.132 c 0.34,0 0.433,-0.368 0.433,-0.418 0,-0.02 -0.011,-0.055 -0.015,-0.071 l -0.227,-0.898 c -0.035,-0.137 -0.14,-0.234 -0.246,-0.328 -0.043,-0.035 -0.238,-0.192 -0.445,-0.192 -0.18,0 -0.352,0.125 -0.352,0.469 0,0.258 0.141,0.785 0.25,0.981 0.223,0.386 0.469,0.457 0.602,0.457 v 0.132 c -0.613,0 -1.242,-0.679 -1.242,-1.371 0,-0.468 0.312,-0.8 0.73,-0.8 0.258,0 0.488,0.148 0.684,0.336 0.09,-0.29 0.371,-0.336 0.496,-0.336 0.172,0 0.293,0.105 0.379,0.253 0.109,0.188 0.172,0.465 0.172,0.485 0,0.062 -0.063,0.062 -0.078,0.062 -0.071,0 -0.075,-0.019 -0.106,-0.148 -0.059,-0.234 -0.152,-0.52 -0.352,-0.52 -0.125,0 -0.16,0.106 -0.16,0.239 0,0.09 0.012,0.132 0.024,0.195 z" />
        <path
           inkscape:connector-curvature="0"
           id="path612"
           style="fill:#000000;fill-opacity:1;fill-rule:evenodd;stroke:none"
           d="m 568.49454,79.743766 v 0.004 l 0.004,0.004 v 0.004 l 0.004,0.003 v 0.008 l 0.003,0.004 v 0.004 l 0.004,0.004 v 0.004 l 0.004,0.004 v 0.008 l 0.004,0.003 v 0.004 l 0.004,0.004 v 0.016 l 0.004,0.004 v 0.012 c 0,0.078 -0.062,0.121 -0.121,0.121 -0.078,0 -0.102,-0.055 -0.125,-0.121 l -1.801,-4.489 c -0.031,-0.062 -0.031,-0.074 -0.031,-0.093 0,-0.075 0.066,-0.122 0.117,-0.122 0.082,0 0.106,0.059 0.129,0.122 z" />
        <path
           inkscape:connector-curvature="0"
           id="path614"
           style="fill:#000000;fill-opacity:1;fill-rule:evenodd;stroke:none"
           d="m 571.33854,77.219766 h -0.165 c -0.015,-0.105 -0.062,-0.394 -0.125,-0.441 -0.039,-0.027 -0.41,-0.027 -0.476,-0.027 h -0.891 c 0.508,0.449 0.676,0.582 0.965,0.808 0.356,0.285 0.692,0.586 0.692,1.043 0,0.586 -0.512,0.942 -1.129,0.942 -0.598,0 -1.004,-0.418 -1.004,-0.864 0,-0.246 0.207,-0.269 0.258,-0.269 0.113,0 0.253,0.082 0.253,0.254 0,0.086 -0.035,0.257 -0.285,0.257 0.149,0.34 0.477,0.446 0.703,0.446 0.485,0 0.735,-0.375 0.735,-0.766 0,-0.418 -0.297,-0.75 -0.453,-0.926 l -1.164,-1.148 c -0.047,-0.043 -0.047,-0.055 -0.047,-0.188 h 1.984 z" />
        <path
           inkscape:connector-curvature="0"
           id="path616"
           style="fill:#000000;fill-opacity:1;fill-rule:evenodd;stroke:none"
           d="m 574.00254,75.571766 v 0.055 l -0.004,0.05 v 0.055 l -0.004,0.059 -0.004,0.113 -0.008,0.125 -0.012,0.125 -0.031,0.266 -0.023,0.14 -0.028,0.141 -0.031,0.144 -0.039,0.145 -0.043,0.144 -0.047,0.149 -0.055,0.148 -0.031,0.075 -0.027,0.074 -0.035,0.074 -0.035,0.07 c -0.411,0.848 -1.004,1.297 -1.075,1.297 -0.039,0 -0.07,-0.027 -0.07,-0.066 0,-0.024 0,-0.035 0.133,-0.16 0.676,-0.68 1.07,-1.778 1.07,-3.223 0,-1.176 -0.258,-2.391 -1.113,-3.262 -0.09,-0.078 -0.09,-0.094 -0.09,-0.113 0,-0.043 0.031,-0.07 0.07,-0.07 0.071,0 0.688,0.468 1.098,1.343 0.352,0.758 0.434,1.524 0.434,2.102 z" />
      </g>
      <g
         transform="matrix(0.70111796,0,0,-0.70111796,534.40053,386.3077)"
         id="g1444">
        <g
           style="font-style:normal;font-variant:normal;font-weight:normal;font-stretch:normal;letter-spacing:normal;word-spacing:normal;text-anchor:start;fill:none;fill-opacity:1;fill-rule:evenodd;stroke:#000000;stroke-linecap:butt;stroke-linejoin:miter;stroke-miterlimit:10.43299961;stroke-dasharray:none;stroke-dashoffset:0;stroke-opacity:1"
           id="content"
           transform="matrix(0.18902989,0,0,-0.18902989,-33.08023,570.26152)"
           xml:space="preserve"
           stroke-miterlimit="10.433"
           font-style="normal"
           font-variant="normal"
           font-weight="normal"
           font-stretch="normal"
           font-size-adjust="none"
           letter-spacing="normal"
           word-spacing="normal"><path
             style="fill:#000000;stroke-width:0"
             inkscape:connector-curvature="0"
             d="m 494.24,430.21 -0.01,0.59 -0.02,0.58 -0.05,0.57 -0.05,0.56 -0.08,0.55 -0.09,0.53 -0.11,0.52 -0.12,0.51 -0.15,0.5 -0.16,0.48 -0.17,0.46 -0.2,0.45 -0.21,0.43 -0.23,0.42 -0.25,0.4 -0.26,0.38 -0.28,0.37 -0.3,0.34 -0.32,0.32 -0.34,0.31 -0.35,0.28 -0.38,0.26 -0.39,0.24 -0.41,0.22 -0.42,0.19 -0.45,0.17 -0.47,0.15 -0.48,0.12 -0.5,0.09 -0.53,0.07 -0.54,0.04 -0.56,0.01 c -5.18,0 -9.56,-4.18 -9.92,-4.48 -3.98,-3.94 -5.47,-8.42 -5.47,-8.52 0,-0.29 0.25,-0.36 0.5,-0.36 0.94,0 1.74,0.5 2.49,1.05 0.89,0.66 0.95,0.8 1.5,1.95 0.43,0.99 1.59,3.44 3.43,5.54 1.19,1.34 2.19,2.09 4.19,2.09 4.83,0 7.91,-4 7.91,-10.52 0,-10.17 -7.22,-20.23 -16.44,-20.23 -7.08,0 -10.95,5.64 -10.95,12.75 0,6.78 3.48,14.25 10.76,18.55 0.49,0.29 1.99,1.18 1.99,1.84 0,0.34 -0.39,0.34 -0.5,0.34 -1.74,0 -16.49,-7.92 -16.49,-22.87 0,-6.97 3.64,-13.34 11.91,-13.34 9.72,0 23.97,9.76 23.97,25.1 z"
             id="path1423" /><path
             style="fill:#000000;stroke-width:0"
             inkscape:connector-curvature="0"
             d="m 513.04,394.25 v 0.02 0.03 0.01 0.02 l -0.01,0.01 v 0.02 l -0.01,0.01 v 0.02 l -0.01,0.02 -0.01,0.02 -0.01,0.02 -0.02,0.03 -0.01,0.02 -0.02,0.03 -0.02,0.03 -0.03,0.03 -0.02,0.03 -0.03,0.04 -0.02,0.02 -0.02,0.02 -0.01,0.02 -0.02,0.02 -0.02,0.02 -0.02,0.03 -0.02,0.02 -0.02,0.02 -0.03,0.03 -0.02,0.02 -0.02,0.03 -0.03,0.03 -0.03,0.03 -0.02,0.03 -0.03,0.03 -0.03,0.03 -0.03,0.03 -0.04,0.03 -0.03,0.04 -0.03,0.03 -0.04,0.04 -0.03,0.03 -0.04,0.04 -0.04,0.04 c -6.22,6.28 -7.81,15.69 -7.81,23.31 0,8.67 1.89,17.35 8.01,23.56 0.64,0.61 0.64,0.71 0.64,0.86 0,0.35 -0.19,0.49 -0.48,0.49 -0.5,0 -4.99,-3.38 -7.92,-9.7 -2.55,-5.49 -3.14,-11.02 -3.14,-15.21 0,-3.89 0.54,-9.9 3.28,-15.54 2.98,-6.13 7.28,-9.36 7.78,-9.36 0.29,0 0.48,0.14 0.48,0.5 z"
             id="path1425" /><path
             style="fill:#000000;stroke-width:0"
             inkscape:connector-curvature="0"
             d="m 518.11,400.12 -0.04,-0.15 -0.03,-0.15 -0.03,-0.14 -0.04,-0.13 -0.03,-0.13 -0.04,-0.11 -0.03,-0.12 -0.04,-0.1 -0.03,-0.1 -0.04,-0.09 -0.05,-0.09 -0.04,-0.08 -0.05,-0.07 -0.05,-0.07 -0.06,-0.07 -0.06,-0.06 -0.07,-0.05 -0.08,-0.05 -0.08,-0.04 -0.08,-0.04 -0.1,-0.04 -0.1,-0.03 -0.11,-0.03 -0.11,-0.02 -0.13,-0.02 -0.07,-0.01 -0.07,-0.01 -0.07,-0.01 -0.07,-0.01 h -0.08 l -0.08,-0.01 h -0.08 l -0.08,-0.01 h -0.09 -0.09 -0.09 -0.1 l -0.1,-0.01 h -0.1 c -0.59,0 -1.14,0 -1.14,-0.93 0,-0.41 0.25,-0.61 0.64,-0.61 1.36,0 2.8,0.15 4.19,0.15 1.64,0 3.34,-0.15 4.94,-0.15 0.25,0 0.89,0 0.89,1 0,0.54 -0.5,0.54 -1.19,0.54 -2.5,0 -2.5,0.36 -2.5,0.8 0,0.61 2.09,8.72 2.45,9.97 0.64,-1.44 2.03,-3.19 4.58,-3.19 l -0.05,1.1 c -3.29,0 -3.93,4.14 -3.93,4.43 0,0.1 0,0.21 0.14,0.8 l 2.45,9.77 c 0.34,1.34 1.69,2.73 2.58,3.48 1.75,1.55 3.2,1.89 4.05,1.89 1.98,0 3.18,-1.73 3.18,-4.69 0,-2.93 -1.64,-8.65 -2.54,-10.56 -1.69,-3.48 -4.08,-5.12 -5.93,-5.12 l 0.05,-1.1 c 5.78,0 12,7.27 12,14.6 0,4.68 -2.83,7.96 -6.62,7.96 -2.49,0 -4.88,-1.78 -6.52,-3.73 -0.5,2.69 -2.64,3.73 -4.48,3.73 -2.3,0 -3.25,-1.93 -3.69,-2.82 -0.91,-1.71 -1.55,-4.69 -1.55,-4.85 0,-0.5 0.5,-0.5 0.6,-0.5 0.5,0 0.54,0.07 0.84,1.16 0.86,3.53 1.84,5.92 3.64,5.92 0.84,0 1.55,-0.39 1.55,-2.28 0,-1.16 -0.16,-1.7 -0.35,-2.55 z"
             id="path1427" /><path
             style="fill:#000000;stroke-width:0"
             inkscape:connector-curvature="0"
             d="m 566.88,432.07 h 0.06 0.05 l 0.11,0.01 h 0.12 0.06 l 0.06,0.01 h 0.06 l 0.05,0.01 0.06,0.01 0.06,0.01 0.06,0.01 0.05,0.01 0.06,0.02 0.05,0.02 0.05,0.02 0.05,0.02 0.05,0.03 0.04,0.03 0.04,0.03 0.04,0.04 0.04,0.04 0.02,0.02 0.01,0.02 0.02,0.02 0.02,0.03 0.01,0.02 0.01,0.03 0.02,0.02 0.01,0.03 0.01,0.03 0.01,0.03 v 0.03 l 0.01,0.03 0.01,0.04 v 0.03 l 0.01,0.03 v 0.04 0.04 0.04 c 0,0.86 -0.79,0.86 -1.39,0.86 h -20.76 c -0.57,0 -1.39,0 -1.39,-0.83 0,-0.88 0.79,-0.88 1.39,-0.88 z"
             id="path1429" /><path
             style="fill:#000000;stroke-width:0"
             inkscape:connector-curvature="0"
             d="m 584.41,450.34 -0.6,-0.45 -0.58,-0.46 -0.55,-0.47 -0.53,-0.49 -0.5,-0.5 -0.47,-0.51 -0.45,-0.53 -0.42,-0.53 -0.4,-0.54 -0.37,-0.55 -0.36,-0.56 -0.33,-0.56 -0.31,-0.57 -0.28,-0.57 -0.27,-0.58 -0.25,-0.58 -0.23,-0.58 -0.2,-0.58 -0.2,-0.59 -0.17,-0.58 -0.15,-0.58 -0.14,-0.58 -0.13,-0.57 -0.1,-0.57 -0.1,-0.57 -0.08,-0.56 -0.06,-0.55 -0.05,-0.55 -0.04,-0.53 -0.03,-0.53 -0.02,-0.52 v -0.5 c 0,-4.92 1.47,-12.55 8.37,-17.42 0.29,0 0.69,0 0.69,0.4 0,0.22 -0.09,0.28 -0.34,0.53 -4.64,4.19 -6.35,10.11 -6.35,16.46 0,9.4 3.6,14 6.46,16.58 0.14,0.14 0.23,0.25 0.23,0.42 0,0.42 -0.4,0.42 -0.69,0.42 z"
             id="path1431" /><path
             style="fill:#000000;stroke-width:0"
             inkscape:connector-curvature="0"
             d="m 607.53,447.34 v 0 0.01 0 l 0.01,0.01 v 0 0.01 0 l 0.01,0.01 v 0.01 0 l 0.01,0.02 v 0.02 l 0.01,0.02 v 0.02 l 0.01,0.02 0.01,0.02 v 0.02 l 0.01,0.02 v 0.03 l 0.02,0.04 v 0.03 l 0.01,0.02 v 0.02 l 0.01,0.03 v 0.02 0.02 l 0.01,0.02 v 0.02 l 0.01,0.01 v 0.02 0.01 0 0.01 0.01 0 l 0.01,0.01 v 0 0.01 0 0 0.01 0 c 0,0.18 -0.14,0.5 -0.55,0.5 -0.7,0 -3.59,-0.28 -4.47,-0.36 -0.28,-0.03 -0.76,-0.07 -0.76,-0.8 0,-0.48 0.48,-0.48 0.9,-0.48 1.68,0 1.68,-0.25 1.68,-0.54 0,-0.23 -0.07,-0.45 -0.15,-0.76 l -1.98,-7.94 c -0.74,1.14 -1.92,2.05 -3.59,2.05 v -0.97 c 2.43,0 3.1,-2.64 3.1,-3.03 0,-0.14 -0.07,-0.39 -0.1,-0.49 l -1.65,-6.51 c -0.23,-0.99 -1,-1.67 -1.76,-2.35 -0.31,-0.26 -1.72,-1.39 -3.22,-1.39 -1.28,0 -2.53,0.91 -2.53,3.38 0,1.86 1,5.69 1.81,7.08 1.6,2.79 3.38,3.31 4.35,3.31 v 0.97 c -4.46,0 -8.99,-4.91 -8.99,-9.92 0,-3.38 2.27,-5.78 5.27,-5.78 1.87,0 3.54,1.07 4.94,2.43 0.67,-2.09 2.68,-2.43 3.59,-2.43 1.25,0 2.12,0.76 2.75,1.84 0.76,1.36 1.22,3.34 1.22,3.48 0,0.46 -0.46,0.46 -0.55,0.46 -0.5,0 -0.53,-0.14 -0.76,-1.08 -0.43,-1.67 -1.1,-3.74 -2.55,-3.74 -0.91,0 -1.16,0.77 -1.16,1.71 0,0.67 0.08,0.98 0.17,1.43 z"
             id="path1433" /><path
             style="fill:#000000;stroke-width:0"
             inkscape:connector-curvature="0"
             d="m 634.32,432.07 h 0.05 0.05 l 0.12,0.01 h 0.11 0.06 l 0.06,0.01 h 0.06 l 0.06,0.01 0.06,0.01 0.05,0.01 0.06,0.01 0.06,0.01 0.05,0.02 0.05,0.02 0.05,0.02 0.05,0.02 0.05,0.03 0.05,0.03 0.04,0.03 0.04,0.04 0.03,0.04 0.02,0.02 0.02,0.02 0.01,0.02 0.02,0.03 0.01,0.02 0.02,0.03 0.01,0.02 0.01,0.03 0.01,0.03 0.01,0.03 0.01,0.03 0.01,0.03 v 0.04 l 0.01,0.03 v 0.03 0.04 l 0.01,0.04 v 0.04 c 0,0.86 -0.8,0.86 -1.39,0.86 h -20.77 c -0.56,0 -1.39,0 -1.39,-0.83 0,-0.88 0.8,-0.88 1.39,-0.88 z"
             id="path1435" /><path
             style="fill:#000000;stroke-width:0"
             inkscape:connector-curvature="0"
             d="m 651.15,446.36 -0.01,0.04 v 0.04 0.04 0.04 0.04 0.04 0.04 0.03 0.04 0.03 0.03 l -0.01,0.03 v 0.03 0.03 l -0.01,0.03 v 0.02 0.03 l -0.01,0.02 v 0.02 l -0.01,0.03 -0.01,0.04 -0.02,0.04 -0.01,0.03 -0.02,0.03 -0.02,0.03 -0.03,0.03 -0.03,0.02 -0.03,0.02 -0.03,0.01 -0.04,0.02 -0.04,0.01 -0.04,0.01 -0.05,0.01 -0.03,0.01 h -0.02 -0.03 l -0.03,0.01 h -0.03 -0.03 -0.03 -0.03 l -0.04,0.01 h -0.03 -0.04 -0.04 -0.04 -0.04 -0.04 -0.04 -0.05 -0.04 c -2.24,-2.2 -5.39,-2.23 -6.83,-2.23 v -1.25 c 0.84,0 3.14,0 5.05,0.96 v -17.76 c 0,-1.16 0,-1.61 -3.49,-1.61 h -1.31 v -1.25 c 0.63,0.03 4.91,0.14 6.2,0.14 1.08,0 5.47,-0.11 6.24,-0.14 v 1.25 h -1.33 c -3.48,0 -3.48,0.45 -3.48,1.61 z"
             id="path1437" /><path
             style="fill:#000000;stroke-width:0"
             inkscape:connector-curvature="0"
             d="m 662.41,450.34 h -0.02 -0.03 -0.02 -0.03 -0.03 -0.02 -0.03 l -0.03,-0.01 h -0.03 -0.03 l -0.02,-0.01 h -0.03 l -0.03,-0.01 -0.03,-0.01 h -0.02 l -0.03,-0.01 -0.03,-0.01 -0.02,-0.02 -0.02,-0.01 -0.03,-0.01 -0.02,-0.02 -0.02,-0.02 -0.02,-0.02 v -0.01 l -0.01,-0.01 -0.01,-0.01 -0.01,-0.01 v -0.01 l -0.01,-0.02 -0.01,-0.01 v -0.01 l -0.01,-0.02 v -0.01 l -0.01,-0.02 v -0.01 -0.02 l -0.01,-0.02 v -0.02 -0.01 -0.02 -0.02 c 0,-0.17 0.11,-0.28 0.31,-0.53 3,-2.75 6.35,-7.46 6.35,-16.44 0,-7.28 -2.27,-12.8 -6.04,-16.2 -0.58,-0.6 -0.62,-0.63 -0.62,-0.82 0,-0.17 0.11,-0.4 0.45,-0.4 0.42,0 3.74,2.29 6.03,6.65 1.53,2.89 2.55,6.66 2.55,10.74 0,4.9 -1.47,12.53 -8.36,17.42 z"
             id="path1439" /><path
             style="fill:#000000;stroke-width:0"
             inkscape:connector-curvature="0"
             d="m 691.91,418.65 v 0.37 l -0.01,0.39 -0.01,0.39 -0.01,0.41 -0.04,0.84 -0.06,0.88 -0.08,0.92 -0.11,0.95 -0.13,0.97 -0.17,1.01 -0.19,1.02 -0.23,1.03 -0.27,1.05 -0.3,1.06 -0.35,1.07 -0.4,1.07 -0.21,0.53 -0.22,0.53 -0.24,0.53 -0.25,0.53 c -2.98,6.12 -7.27,9.36 -7.77,9.36 -0.29,0 -0.5,-0.19 -0.5,-0.49 0,-0.15 0,-0.25 0.94,-1.15 4.89,-4.92 7.73,-12.85 7.73,-23.27 0,-8.51 -1.84,-17.28 -8.03,-23.56 -0.64,-0.59 -0.64,-0.7 -0.64,-0.84 0,-0.3 0.21,-0.5 0.5,-0.5 0.5,0 4.97,3.39 7.92,9.71 2.54,5.47 3.13,11 3.13,15.19 z"
             id="path1441" /></g>      </g>
      <text
         xml:space="preserve"
         style="font-style:normal;font-variant:normal;font-weight:normal;font-stretch:normal;font-size:7px;line-height:1.25;font-family:Helvetica;-inkscape-font-specification:Helvetica;letter-spacing:0px;word-spacing:0px;fill:#000000;fill-opacity:1;stroke:none;stroke-width:0.75"
         x="531.76227"
         y="-58.792107"
         id="text169"
         transform="scale(1,-1)"><tspan
           sodipodi:role="line"
           id="tspan167"
           x="531.76227"
           y="-58.792107"
           style="font-style:normal;font-variant:normal;font-weight:normal;font-stretch:normal;font-size:7px;font-family:Helvetica;-inkscape-font-specification:Helvetica;stroke-width:0.75">A</tspan></text>
      <text
         xml:space="preserve"
         style="font-style:normal;font-variant:normal;font-weight:normal;font-stretch:normal;font-size:7px;line-height:1.25;font-family:Helvetica;-inkscape-font-specification:Helvetica;letter-spacing:0px;word-spacing:0px;fill:#000000;fill-opacity:1;stroke:none;stroke-width:0.75"
         x="575.23053"
         y="-26.059134"
         id="text173"
         transform="scale(1,-1)"><tspan
           sodipodi:role="line"
           id="tspan171"
           x="575.23053"
           y="-26.059134"
           style="font-style:normal;font-variant:normal;font-weight:normal;font-stretch:normal;font-size:7px;font-family:Helvetica;-inkscape-font-specification:Helvetica;stroke-width:0.75">B</tspan></text>
      <text
         xml:space="preserve"
         style="font-style:normal;font-variant:normal;font-weight:normal;font-stretch:normal;font-size:7px;line-height:1.25;font-family:Helvetica;-inkscape-font-specification:Helvetica;letter-spacing:0px;word-spacing:0px;fill:#000000;fill-opacity:1;stroke:none;stroke-width:0.75"
         x="572.28412"
         y="-53.916271"
         id="text177"
         transform="scale(1,-1)"><tspan
           sodipodi:role="line"
           id="tspan175"
           x="572.28412"
           y="-53.916271"
           style="font-style:normal;font-variant:normal;font-weight:normal;font-stretch:normal;font-size:7px;font-family:Helvetica;-inkscape-font-specification:Helvetica;stroke-width:0.75">C</tspan></text>
    </g>
  </g>
</svg>
